<svg width="361" height="219" fill="none" xmlns="http://www.w3.org/2000/svg"><g clip-path="url(#clip0)"><path d="M16.826 219s-26.168-32.339-13.234-94.801c8.134-39.287 42.31-58.752 88.121-56.894 15.748.639 41.37-18.397 78.184-41.781 78.747-50.018 192.655-28.775 165.393 83.733-13.193 54.446 41.498 55.318 14.316 109.743H16.826z" fill="#EBF3FA"/><path d="M308.118 48.24c-.12-7.941-13.19-8.81-13.19-8.81s-11.772 10.832-14.316 10.511c-2.545-.321 8.263-11.236 8.263-11.236-4.659-1.686-18.325 1.082-18.325 1.082s-3.076 15.364-5.463 14.424c-2.387-.94 3.414-13.465 3.414-13.465-4.976.211-10.664 4.524-10.664 4.524-7.631 7.442 2.279 16.899 2.279 16.899s-1.18 5.301-5.946 10.51c0 0-1.012.928-2.235 2.632l1.261.322a12.709 12.709 0 01.595-.9l.009-.011a72.5 72.5 0 01.571-.72l.001-.001c0-.002.002 0 .002-.002.577-.658.979-1.15 1.246-1.513l.003-.004c1.756-2.081 4.203-4.752 5.477-5.118 0 0-.09-.232-.123-.65.039.208.079.424.123.65.98 5.195 11.571 8.727 17.895 9.026 6.324.299 4.136-2.073 1.601-5.664-2.535-3.59-9.5-4.596-11.229-6.192-1.729-1.595 1.474-1.93 5.402-.596s4.911 5.871 11.226 8.145c6.315 2.274 14.347-8.692 14.347-8.692-4.823.25-12.209-4.275-12.124-5.901.085-1.626 11.911 1.562 13.878 1.571 1.965.008 6.143-2.879 6.022-10.82z" fill="#DFEBFD"/><path d="M319.428 125.953c6.152-10.448-10.195-22.056-10.195-22.056s-23.952 4.69-27.013 2.233c-3.061-2.457 19.698-8.025 19.698-8.025-4.734-5.931-24.747-13.273-24.747-13.273s-16.213 17.565-18.578 14.427c-2.366-3.138 15.146-14.817 15.146-14.817-6.655-3.713-17.496-2.647-17.496-2.647-15.859 3.588-10.452 23.854-10.452 23.854s-5.749 5.966-16.101 8.936c0 0-2.058.398-5.005 1.64l1.386 1.429c.496-.256.989-.488 1.482-.693.003-.002.005-.004.009-.004a131.95 131.95 0 011.338-.49h.002l.003-.001c1.276-.397 2.191-.717 2.826-.974.002-.001.004-.001.005-.003 3.943-1.306 9.255-2.827 11.205-2.284 0 0 .069-.376.357-.945l-.357.945c-2.848 7.556 8.152 20.647 16.158 26.104 8.006 5.457 7.038.61 6.586-6.102-.454-6.713-8.734-13.604-9.72-17.069-.986-3.465 3.455-1.335 7.516 3.551 4.062 4.886 1.74 11.588 8.166 19.612 6.426 8.025 25.606.164 25.606.164-6.484-3.537-12.518-15.355-11.115-17.407 1.402-2.053 14.286 11.58 16.842 13.168 2.556 1.59 10.296 1.175 16.448-9.273zM98.244 87.093c3.648-7.524 16.508-2.488 16.508-2.488s6.411 15.619 8.982 16.456c2.571.835-2.885-14.43-2.885-14.43 5.195.482 17.003 9.257 17.003 9.257s-3.903 16.04-1.207 16.215c2.697.174 2.735-14.38 2.735-14.38 4.655 2.435 8.163 9.104 8.163 9.104 3.969 10.526-9.695 15.1-9.695 15.1s-1.233 5.588.998 12.696c0 0 .554 1.339.962 3.515l-1.345-.258a13.027 13.027 0 00-.166-1.119l-.001-.006-.003-.016c-.052-.227-.128-.55-.224-.942v-.002c0-.001-.002-.001 0-.001a26.177 26.177 0 01-.516-2.003v-.004c-.749-2.774-1.896-6.422-2.948-7.342 0 0 .189-.182.405-.564l-.405.564c-3.248 4.517-14.925 3.134-21.092.582-6.167-2.553-3.024-3.835.994-6.124 4.017-2.288 11.11-.122 13.471-.868 2.359-.746-.547-2.503-4.889-2.993-4.342-.49-7.298 3.397-14.336 2.733-7.038-.665-9.822-14.731-9.822-14.731 4.49 2.403 13.551 1.399 14.194-.19.643-1.59-12.06-3.854-13.941-4.729-1.885-.88-4.588-5.509-.94-13.032z" fill="#CDE0FB"/><path opacity=".5" d="M309.493 217.369l-13.905-.004-7.356-.002c-2.854-.001-5.189-2.348-5.189-5.216l.016-51.606c0-2.867 2.336-5.212 5.192-5.211l6.522.003 14.738.004c2.855 0 5.189 2.347 5.189 5.215l-.014 51.605c-.003 2.866-2.338 5.212-5.193 5.212z" fill="#C0D8FB"/><path d="M312.442 202.738l-.369-2.715-.369-2.717a2.54 2.54 0 00-3.077-2.135 2.53 2.53 0 00.436-1.202 2.539 2.539 0 002.927 1.497 2.554 2.554 0 001.875-3.068l-.636-2.665-.635-2.667a2.545 2.545 0 00-3.055-1.883 2.553 2.553 0 00-1.875 3.067l.957 4.018a2.505 2.505 0 00-1.999-1.08 2.565 2.565 0 00.281-2.663 2.562 2.562 0 00-.808-2.704l-4.208-3.494a2.533 2.533 0 00-3.567.34 2.562 2.562 0 00.113 3.369 2.46 2.46 0 00-.675.088l-2.634.723-2.633.724a2.544 2.544 0 00-1.791 1.854l-.276-.665-1.052-2.53a2.537 2.537 0 00-3.315-1.367 2.555 2.555 0 00-1.361 3.329l1.052 2.53.674 1.621a2.548 2.548 0 00-1.601 2.235l-.137 2.737-.138 2.738a2.549 2.549 0 00.653 1.833 2.52 2.52 0 001.75.838c.298.014.584-.025.855-.108a2.586 2.586 0 00-.201 1.721c-.468.27-.853.689-1.074 1.225l-1.043 2.534-1.043 2.534a2.546 2.546 0 00.006 1.946 2.53 2.53 0 001.369 1.377 2.532 2.532 0 002.829-.631c.166.391.429.747.788 1.023a2.534 2.534 0 003.553-.474l1.659-2.177 1.66-2.177c.224-.296.372-.626.452-.969a2.513 2.513 0 001.689-.432l.435-.302-.602.79-1.659 2.177a2.56 2.56 0 00.472 3.568 2.534 2.534 0 003.553-.474l1.659-2.177 1.66-2.178c.021-.028.039-.057.059-.086.134.216.299.409.485.573l-.591.775a2.56 2.56 0 00.472 3.568 2.533 2.533 0 003.553-.474l3.319-4.353a2.543 2.543 0 00.495-1.881 2.54 2.54 0 00-.968-1.686 2.447 2.447 0 00-.606-.341c.031-.003.061-.004.093-.008a2.556 2.556 0 002.165-2.869zm-22.836-2.429l.047-.934c.16.271.372.518.635.721.099.075.202.14.309.2l-1.16.804c.095-.246.155-.512.169-.791zm17.076-2.316l.495 3.653a2.533 2.533 0 00-.95-1.047 2.52 2.52 0 00-1.681-.353c.259-.16.496-.365.69-.62l1.425-1.869c.005.078.01.156.021.236zm-5.764-9.868l.638.53-.657.455c.07-.317.08-.65.019-.985zm.551 8.071a2.554 2.554 0 00-.449-1.081 2.49 2.49 0 00.544-.282l1.997-1.383-2.092 2.746zm1.657 4.762a2.542 2.542 0 00-1.909-.578l.054-.685a2.517 2.517 0 002.314.9 2.445 2.445 0 00-.459.363zm-5.104-9.632a2.562 2.562 0 00.02 2.856l.036.047c-.184.07-.36.16-.521.27.115-.362.149-.743.1-1.113a2.54 2.54 0 00-.968-1.686l-.008-.005 1.341-.369zm-2.523 6.119l.977-1.282a2.368 2.368 0 00-.032.241l-.185 2.355a2.54 2.54 0 00-1.287-.623l.527-.691zm-4.574 10.757l.287-.697a2.552 2.552 0 00.121-1.548c.058-.033.116-.067.172-.106l4.495-3.113c.029-.019.054-.042.083-.063.061.248.158.482.286.697l-.8.554a2.54 2.54 0 00-1.024 1.519 2.53 2.53 0 00-2.264.981l-1.356 1.776zm11.923-3.138l.14.589a2.483 2.483 0 00-.702-.199l.562-.39zm5.351.595l-.196-.821-.037-.156c.275.338.632.602 1.035.763a2.591 2.591 0 00-.802.214zm-15.349-13.111l-1.374 1.804-1.659 2.177c-.008.011-.013.021-.021.031l.087-1.726c.003-.044 0-.088 0-.131a2.557 2.557 0 001.781-2.631c.345.255.754.42 1.186.476z" fill="#AFCDFB"/><path opacity=".5" d="M295.586 217.365l-7.355-.002c-2.855-.001-5.189-2.348-5.189-5.216l.016-51.606c0-2.867 2.335-5.212 5.192-5.211l6.522.003c.538.928.853 2.036.851 3.224l-.017 58.287c.001.176-.005.35-.02.521z" fill="#AFCDFB"/><path d="M314.359 157.77l-19.749-.007-11.21-.004a1.011 1.011 0 01-1.008-1.014l.001-4.859c0-.558.455-1.013 1.01-1.013l11.193.003h.003l19.763.005c.555 0 1.008.456 1.008 1.014l-.001 4.859c0 .559-.455 1.016-1.01 1.016z" fill="#F99746"/><path d="M294.609 157.763l-11.209-.004a1.011 1.011 0 01-1.008-1.014l.001-4.859c0-.558.455-1.013 1.01-1.013l11.193.003h.003a1.014 1.014 0 011.006 1.014l-.002 4.859a1.014 1.014 0 01-.994 1.014z" fill="#EF7E29"/><path d="M271.42 19.601H124.758v197.887H271.42V19.601z" fill="#ABDDDA"/><path d="M264.429 26.014h-131.07v182.595h131.07V26.014z" fill="#fff"/><path d="M172.164 19.601v6.704c0 3.702 2.986 6.703 6.668 6.703h35.819c3.683 0 6.668-3.001 6.668-6.704v-6.703h-49.155z" fill="#F99746"/><path d="M161.311 60.515h-1.861V51.86h1.861v8.655zm10.34 0h-1.86l-3.623-5.695v5.695h-1.861V51.86h1.861l3.629 5.707V51.86h1.854v8.655zm7.58-2.27c0-.15-.022-.287-.068-.408a.79.79 0 00-.265-.335 2.403 2.403 0 00-.539-.303c-.23-.1-.526-.204-.891-.315-.413-.126-.803-.27-1.169-.427a4.334 4.334 0 01-.963-.562 2.547 2.547 0 01-.651-.745 1.962 1.962 0 01-.239-.987c0-.36.082-.69.244-.99.164-.299.393-.553.689-.763.296-.21.647-.373 1.054-.49a4.864 4.864 0 011.343-.175c.501 0 .956.066 1.366.199.409.133.758.318 1.048.556.289.238.512.52.67.847.157.326.235.685.235 1.072h-1.861c0-.181-.03-.35-.09-.505a1.022 1.022 0 00-.276-.398 1.304 1.304 0 00-.465-.26 2.127 2.127 0 00-.659-.091 2.3 2.3 0 00-.635.077 1.34 1.34 0 00-.447.214.917.917 0 00-.267.321.898.898 0 00-.09.393c0 .285.152.524.456.717.304.192.75.371 1.338.537.491.146.925.31 1.299.487.374.178.686.381.937.607.25.226.44.48.568.76.128.282.192.6.192.958 0 .38-.078.719-.233 1.016a2.114 2.114 0 01-.661.753 3.171 3.171 0 01-1.033.47 5.177 5.177 0 01-1.349.163c-.298 0-.597-.025-.894-.074a4.44 4.44 0 01-.852-.228 3.83 3.83 0 01-.754-.387 2.754 2.754 0 01-.605-.547 2.393 2.393 0 01-.403-.716 2.57 2.57 0 01-.146-.888h1.868c0 .261.044.483.131.666.087.182.207.33.363.443.155.113.343.195.562.247.219.052.463.077.732.077.239 0 .45-.025.627-.074a1.31 1.31 0 00.44-.205.811.811 0 00.257-.312.953.953 0 00.086-.395zm11.233-6.383v5.711c0 .5-.087.94-.26 1.322a2.672 2.672 0 01-.721.96 3.103 3.103 0 01-1.095.583 4.71 4.71 0 01-1.387.196 4.69 4.69 0 01-1.393-.196 3.082 3.082 0 01-1.095-.583 2.65 2.65 0 01-.717-.96c-.172-.382-.257-.823-.257-1.322v-5.711h1.86v5.711c0 .567.142.98.425 1.24.283.26.675.39 1.176.39.505 0 .896-.131 1.175-.39.279-.26.419-.673.419-1.24v-5.711h1.87zm6.141 5.486h-1.483v3.168h-1.861v-8.654h3.356c.52 0 .988.055 1.402.17.414.112.763.278 1.048.499.286.22.505.492.658.817.154.326.23.701.23 1.13 0 .317-.037.601-.112.853a2.206 2.206 0 01-.831 1.186 3.376 3.376 0 01-.67.38l1.954 3.537v.084h-1.997l-1.694-3.17zm-1.482-1.444h1.502c.244 0 .457-.031.642-.092.184-.061.337-.149.459-.261a1.11 1.11 0 00.276-.404 1.42 1.42 0 00.094-.526c0-.407-.122-.728-.364-.962-.242-.234-.613-.35-1.113-.35h-1.494v2.595h-.002zm12.617 2.828h-3.264l-.619 1.783h-1.979l3.362-8.655h1.725l3.381 8.655h-1.979l-.627-1.783zm-2.76-1.444h2.259l-1.136-3.239-1.123 3.239zm14.825 3.227h-1.86l-3.623-5.695v5.695h-1.861V51.86h1.861l3.629 5.707V51.86h1.856v8.655h-.002zm9.987-2.882c-.033.44-.136.844-.311 1.212a2.795 2.795 0 01-.72.948 3.33 3.33 0 01-1.113.618 4.61 4.61 0 01-1.492.223 4.02 4.02 0 01-1.561-.288 3.18 3.18 0 01-1.172-.83 3.73 3.73 0 01-.739-1.31 5.416 5.416 0 01-.258-1.726v-.571c0-.639.089-1.215.267-1.73.177-.515.43-.953.754-1.314a3.268 3.268 0 011.181-.832c.463-.194.981-.29 1.55-.29.564 0 1.06.075 1.493.227.432.153.799.366 1.101.636.302.272.538.595.707.97.169.374.277.781.322 1.22h-1.861a2.584 2.584 0 00-.14-.683 1.341 1.341 0 00-.313-.5 1.321 1.321 0 00-.527-.306 2.585 2.585 0 00-.783-.103c-.629 0-1.097.219-1.405.657-.308.438-.462 1.116-.462 2.036v.583c0 .447.034.84.101 1.177.068.337.176.619.323.844.147.226.337.396.571.509.234.112.515.17.847.17.293 0 .547-.032.76-.096a1.37 1.37 0 00.534-.288c.143-.129.254-.29.332-.485a2.32 2.32 0 00.149-.678h1.865zm7.927-.868h-3.573v2.317h4.193v1.433h-6.054V51.86h6.042v1.444h-4.181v2.063h3.573v1.398z" fill="#ABDDDA"/><path d="M203.995 200.311c-2.079.677-4.107 1.03-5.701.896-2.431-.204-3.8-1.483-3.854-3.603-.044-1.682.651-3.155 2.014-4.348a9.878 9.878 0 01-.033-.346c-.09-1.185.162-1.973.749-2.341.949-.595 2.359.219 2.419.254l-.316.541c-.316-.184-1.254-.591-1.774-.263-.448.282-.501 1.058-.462 1.689 1.109-.806 2.556-1.464 4.322-1.942a22.978 22.978 0 014.072-.698c.006-.148.018-.281.035-.388.043-.291.145-.632.429-.7.108-.023.317-.021.503.265.119.183.18.446.192.762.452-.011.874-.003 1.245.025a.244.244 0 00.01-.024 7.206 7.206 0 01.097-2.184c.159-.726.418-1.093.781-1.128a.476.476 0 01.494.308c.204.492-.178 1.822-.729 3.098l.001.007c.518.087.87.232.98.432.083.152.093.385-.126.588-.418.387-.752.29-.913.197a.896.896 0 01-.335-.385c-.417.83-.873 1.54-1.23 1.84-.329.278-.619.167-.727.106a.63.63 0 01-.159-.128 8.296 8.296 0 01-.476.988c-.652 1.151-1.389 1.744-2.127 1.708a1.2 1.2 0 01-.797-.354c-.409.888-.923 1.734-1.432 2.365-.519.643-1.181.879-1.865.664-1.21-.38-2.306-2.14-2.717-4.225-1.035 1.017-1.538 2.221-1.504 3.601.046 1.808 1.151 2.816 3.282 2.993 5.379.45 14.81-4.572 15.524-8.268-.579 3.005-5.054 6.43-9.872 7.998zm-6.88-6.805c.328 2.2 1.425 3.817 2.354 4.109.436.136.838-.019 1.193-.461.606-.751 1.129-1.678 1.504-2.582a3.795 3.795 0 01-.259-.819c-.15-.724-.176-1.72.003-2.402a15.79 15.79 0 00-2.945 1.029 9.61 9.61 0 00-1.85 1.126zm5.742 1.029c.134.205.312.365.55.376.473.02 1.042-.486 1.557-1.393.269-.472.483-.977.644-1.461a6.2 6.2 0 01-.176-1.274c-.692.055-1.447.15-2.223.29.404.792.169 2.13-.352 3.462zm3.401-2.467c.098.294.185.351.185.353.349-.302.747-.953 1.11-1.697-.296-.01-.63-.013-.993-.004-.051.42-.155.882-.302 1.348zm-3.664-.806c-.158.333-.272 1.398-.079 2.345.312-1.039.377-1.939.079-2.345zm6.148-.401l.004.001-.004-.001zm-.093-3.218a3.929 3.929 0 00-.148.656c.074-.257.126-.482.148-.656z" fill="#F99746"/><path d="M172.722 107.598h-23.706V83.79h23.706v23.808zm-22.589-1.122h21.472V84.91h-21.472v21.566z" fill="#ABDDDA"/><path d="M161.459 102.811c-.497 0-.972-.221-1.292-.61l-7.315-8.887a1.687 1.687 0 01.223-2.368 1.67 1.67 0 012.358.224l5.801 7.049 10.495-17.692a1.672 1.672 0 012.296-.584 1.687 1.687 0 01.582 2.306l-11.712 19.741a1.675 1.675 0 01-1.436.821z" fill="#F99746"/><path d="M172.722 144.823h-23.706v-23.808h23.706v23.808zm-22.589-1.122h21.472v-21.564h-21.472v21.564z" fill="#ABDDDA"/><path d="M161.459 139.832c-.497 0-.972-.222-1.292-.611l-7.315-8.887a1.687 1.687 0 01.223-2.368 1.67 1.67 0 012.358.225l5.801 7.048 10.495-17.69a1.671 1.671 0 012.296-.584 1.687 1.687 0 01.582 2.306l-11.712 19.74a1.679 1.679 0 01-1.436.821z" fill="#F99746"/><path d="M172.722 181.276h-23.706v-23.807h23.706v23.807zm-22.589-1.12h21.472v-21.564h-21.472v21.564z" fill="#ABDDDA"/><path d="M161.459 175.936c-.497 0-.972-.221-1.292-.61l-7.315-8.887a1.687 1.687 0 01.223-2.368 1.67 1.67 0 012.358.224l5.801 7.049 10.495-17.692a1.672 1.672 0 012.296-.584 1.687 1.687 0 01.582 2.306l-11.712 19.741a1.68 1.68 0 01-1.436.821z" fill="#F99746"/><path opacity=".5" d="M219.61 89.345h-30.912v2.323h30.912v-2.323zm26.264 0h-7.026v2.323h7.026v-2.323zM219.61 99.72h-30.912v2.323h30.912V99.72zm26.264 0H235.4v2.323h10.474V99.72zm0-5.188h-8.609v2.323h8.609v-2.323zm-25.73 0h-8.61v2.323h8.61v-2.323zm-12.316 0h-19.13v2.323h19.13v-2.323zm10.601 30.565h-29.731v2.323h29.731v-2.323zm1.181 10.375h-30.912v2.322h30.912v-2.322zm-1.565-5.188h-8v2.323h8v-2.323zm-10.217 0h-19.13v2.323h19.13v-2.323zm11.782 31.579h-30.912v2.323h30.912v-2.323zm0 10.375h-30.912v2.323h30.912v-2.323zm3.878-5.187h-13.443v2.323h13.443v-2.323zm-15.66 0h-19.13v2.323h19.13v-2.323z" fill="#ABDDDA"/><path d="M165.233 194.004h-16.217v1.649h16.217v-1.649zm19.973 0H168.99v1.649h16.216v-1.649zm-13.7 3.657h-22.49v1.649h22.49v-1.649z" fill="#ABDDDA"/><path d="M91.846 107.684v56.931c0 3.494-2.846 6.353-6.326 6.353H51.827c-.901 0-1.76-.191-2.54-.538a6.373 6.373 0 01-3.786-5.815v-56.931c0-3.495 2.847-6.352 6.326-6.352H85.52c3.48.001 6.326 2.859 6.326 6.352z" fill="#FCECDB"/><path d="M76.92 122.741c-3.56-1.344-5.362-5.33-4.026-8.904 1.337-3.575 5.306-5.385 8.866-4.043 3.56 1.342 5.362 5.329 4.026 8.904-1.336 3.574-5.306 5.385-8.866 4.043z" fill="#F7E0CB"/><path d="M85.786 118.698l-12.892-4.861c1.337-3.575 5.305-5.385 8.866-4.043 3.56 1.342 5.364 5.329 4.026 8.904z" fill="#EFCBAB"/><path d="M53.653 121.624c-2.947-2.416-3.383-6.772-.979-9.729a6.865 6.865 0 019.688-.984c2.945 2.415 3.383 6.772.98 9.73a6.867 6.867 0 01-9.689.983z" fill="#F7E0CB"/><path d="M63.34 120.641l-10.667-8.746a6.865 6.865 0 019.688-.984c2.946 2.415 3.384 6.771.979 9.73z" fill="#EFCBAB"/><path d="M76.92 164.923c-3.56-1.343-5.362-5.329-4.026-8.904 1.337-3.574 5.306-5.386 8.866-4.043 3.56 1.342 5.362 5.329 4.026 8.904-1.336 3.575-5.306 5.385-8.866 4.043z" fill="#F7E0CB"/><path d="M85.786 161.35l-12.892-4.861c1.337-3.575 5.305-5.385 8.866-4.043 3.56 1.342 5.364 5.329 4.026 8.904z" fill="#EFCBAB"/><path d="M60.72 164.807c3.495-1.503 5.115-5.567 3.618-9.077-1.496-3.511-5.543-5.138-9.038-3.635-3.496 1.503-5.116 5.567-3.62 9.078 1.497 3.51 5.544 5.137 9.04 3.634z" fill="#F7E0CB"/><path d="M63.34 163.292l-10.667-8.746a6.865 6.865 0 019.688-.984c2.946 2.415 3.384 6.773.979 9.73z" fill="#EFCBAB"/><path d="M82.29 144.391c-3.438 1.637-7.543.164-9.17-3.287-1.63-3.45-.165-7.574 3.271-9.21 3.437-1.635 7.543-.163 9.172 3.287 1.628 3.451.162 7.575-3.273 9.21z" fill="#F7E0CB"/><path d="M85.563 135.183l-12.444 5.923c-1.628-3.45-.164-7.574 3.272-9.209 3.437-1.637 7.543-.165 9.172 3.286z" fill="#EFCBAB"/><path d="M51.615 135.574c1.413-3.547 5.422-5.27 8.95-3.851 3.53 1.419 5.248 5.442 3.835 8.989-1.413 3.545-5.422 5.27-8.95 3.851-3.53-1.419-5.248-5.444-3.835-8.989z" fill="#F7E0CB"/><path d="M55.448 144.563l5.118-12.84c3.53 1.419 5.247 5.442 3.834 8.989-1.413 3.545-5.422 5.269-8.952 3.851z" fill="#EFCBAB"/><path opacity=".5" d="M91.846 115.476v49.54c0 3.273-2.604 5.952-5.788 5.952h-30.83c-.825 0-1.61-.179-2.324-.504v-48.13c0-1.968.818-3.749 2.121-5.002a6.637 6.637 0 011.63-1.158 6.456 6.456 0 012.92-.697h32.27v-.001z" fill="#EFCBAB"/><path d="M54.005 179.08v-56.931c0-3.494 2.847-6.353 6.325-6.353h33.694c3.478 0 6.325 2.859 6.325 6.353v56.931c0 3.493-2.847 6.352-6.325 6.352H60.329c-3.479-.001-6.324-2.859-6.324-6.352z" fill="#FCECDB"/><path d="M85.422 137.205c-3.56-1.343-5.362-5.329-4.026-8.904 1.337-3.575 5.306-5.386 8.866-4.043 3.56 1.342 5.362 5.329 4.026 8.904-1.336 3.575-5.306 5.385-8.866 4.043z" fill="#F7E0CB"/><path d="M94.29 133.162l-12.892-4.861c1.336-3.575 5.305-5.386 8.866-4.043 3.56 1.342 5.362 5.329 4.026 8.904z" fill="#EFCBAB"/><path d="M62.155 136.087c-2.947-2.415-3.383-6.772-.979-9.729a6.864 6.864 0 019.688-.984c2.945 2.415 3.383 6.771.98 9.73a6.865 6.865 0 01-9.689.983z" fill="#F7E0CB"/><path d="M71.844 135.104l-10.668-8.746a6.865 6.865 0 019.688-.984c2.945 2.416 3.384 6.772.98 9.73z" fill="#EFCBAB"/><path d="M85.422 179.386c-3.56-1.343-5.362-5.329-4.026-8.904 1.337-3.575 5.306-5.386 8.866-4.043 3.56 1.342 5.362 5.329 4.026 8.904-1.336 3.576-5.306 5.386-8.866 4.043z" fill="#F7E0CB"/><path d="M94.29 175.814l-12.892-4.861c1.336-3.574 5.305-5.386 8.866-4.043 3.56 1.342 5.362 5.33 4.026 8.904z" fill="#EFCBAB"/><path d="M62.155 178.27c-2.947-2.416-3.383-6.772-.979-9.73a6.865 6.865 0 019.688-.983c2.945 2.414 3.383 6.77.98 9.729a6.867 6.867 0 01-9.689.984z" fill="#F7E0CB"/><path d="M71.844 177.756l-10.668-8.746a6.866 6.866 0 019.688-.984c2.945 2.415 3.384 6.771.98 9.73z" fill="#EFCBAB"/><path d="M90.792 158.856c-3.437 1.636-7.542.163-9.17-3.287-1.629-3.451-.165-7.574 3.272-9.211 3.435-1.635 7.543-.163 9.17 3.287 1.63 3.451.164 7.575-3.272 9.211z" fill="#F7E0CB"/><path d="M94.065 149.647l-12.444 5.922c-1.628-3.451-.164-7.574 3.273-9.21 3.436-1.636 7.543-.164 9.17 3.288z" fill="#EFCBAB"/><path d="M69.714 158.718c3.364-1.778 4.657-5.959 2.886-9.338-1.77-3.379-5.934-4.677-9.299-2.899-3.364 1.779-4.656 5.96-2.886 9.339 1.771 3.379 5.934 4.677 9.299 2.898z" fill="#F7E0CB"/><path d="M63.95 159.027l5.117-12.84c3.53 1.419 5.247 5.442 3.834 8.989-1.412 3.546-5.42 5.27-8.95 3.851z" fill="#EFCBAB"/><path d="M95.133 138.505H42.214v79.314h52.919v-79.314z" fill="#EF7E29"/><path d="M102.504 138.505H49.585v79.315h52.919v-79.315z" fill="#F99746"/><path d="M49.585 143.107l-2.535 3.961h-4.836v-8.563h7.371v4.602z" fill="#D8661A"/><path d="M45.065 144.753h-7.37l4.52-6.248h7.37l-4.52 6.248z" fill="#F99746"/><path opacity=".5" d="M76.88 218.073H49.584v-75.954l27.294 2.634v73.32z" fill="#EFCBAB"/><path d="M102.504 144.753l-4.293 2.315H52.136l-2.55-3.961v-4.602l52.918 6.248z" fill="#EF7E29"/><path d="M106.243 144.753H53.324l-3.739-6.248h52.919l3.739 6.248z" fill="#F99746"/><path d="M85.305 217.711H28.38c-3.523 0-6.407-2.896-6.407-6.435v-34.614c0-3.538 2.884-6.435 6.407-6.435h56.925c3.524 0 6.407 2.897 6.407 6.435v34.614c0 3.539-2.882 6.435-6.407 6.435z" fill="#FCECDB"/><path d="M43.414 185.52c-1.345 3.649-5.337 5.494-8.917 4.124s-5.394-5.436-4.048-9.085c1.344-3.646 5.337-5.494 8.917-4.124s5.392 5.439 4.048 9.085z" fill="#F7E0CB"/><path d="M39.366 176.437l-4.869 13.208c-3.58-1.37-5.394-5.435-4.048-9.084 1.344-3.648 5.337-5.494 8.917-4.124z" fill="#EFCBAB"/><path d="M42.296 209.359a6.838 6.838 0 01-9.743 1.004c-2.962-2.464-3.405-6.906-.985-9.926 2.419-3.017 6.782-3.467 9.744-1.004 2.962 2.464 3.402 6.909.984 9.926z" fill="#F7E0CB"/><path d="M41.31 199.433l-8.759 10.93c-2.961-2.464-3.404-6.906-.984-9.926 2.419-3.017 6.781-3.467 9.743-1.004z" fill="#EFCBAB"/><path d="M85.66 185.52c-1.346 3.649-5.338 5.494-8.918 4.124-3.58-1.37-5.394-5.436-4.049-9.085 1.345-3.646 5.337-5.494 8.918-4.124 3.579 1.37 5.392 5.439 4.048 9.085z" fill="#F7E0CB"/><path d="M81.61 176.437l-4.868 13.208c-3.58-1.37-5.394-5.435-4.049-9.084 1.345-3.648 5.339-5.494 8.918-4.124z" fill="#EFCBAB"/><path d="M84.54 209.359c-2.336 2.915-6.483 3.434-9.433 1.245a4.981 4.981 0 01-.31-.241c-2.964-2.463-3.405-6.907-.985-9.926a6.838 6.838 0 0110.038-.745c2.695 2.506 3.025 6.752.69 9.667z" fill="#F7E0CB"/><path d="M83.849 199.693l-8.743 10.911a5.01 5.01 0 01-.311-.241c-2.963-2.462-3.405-6.907-.985-9.926a6.838 6.838 0 0110.038-.744z" fill="#EFCBAB"/><path d="M65.098 180.019c1.639 3.522.164 7.728-3.292 9.397-3.457 1.668-7.586.168-9.224-3.353-1.638-3.521-.164-7.728 3.292-9.397 3.456-1.668 7.586-.167 9.224 3.353z" fill="#F7E0CB"/><path d="M55.874 176.665l5.932 12.749c-3.457 1.669-7.585.169-9.224-3.353-1.638-3.52-.163-7.728 3.292-9.396z" fill="#EFCBAB"/><path d="M56.267 211.447c-3.553-1.448-5.278-5.553-3.856-9.171 1.421-3.617 5.45-5.375 9.002-3.927 3.55 1.448 5.278 5.553 3.855 9.171-1.42 3.617-5.452 5.375-9.002 3.927z" fill="#F7E0CB"/><path d="M65.27 207.52l-12.859-5.244c1.421-3.617 5.45-5.375 9.002-3.927 3.55 1.448 5.278 5.553 3.857 9.171z" fill="#EFCBAB"/><path d="M168.302 212.127a5.676 5.676 0 01-1.664 4.015 5.627 5.627 0 01-3.998 1.671h-26.735c-3.113 0-5.659-2.56-5.659-5.686 0-1.564.637-2.984 1.662-4.015a5.639 5.639 0 013.998-1.67h26.735c3.113.001 5.661 2.559 5.661 5.685z" fill="#2B478B"/><path d="M154.509 212.127a5.683 5.683 0 01-1.662 4.015 5.627 5.627 0 01-3.998 1.671h-12.946c-3.113 0-5.66-2.56-5.66-5.686a5.68 5.68 0 011.663-4.015 5.639 5.639 0 013.998-1.67h12.946c3.112.001 5.659 2.559 5.659 5.685z" fill="#699FF0"/><path opacity=".4" d="M163.092 209.497h-25.501a.806.806 0 01-.803-.805v-.182c0-.443.361-.806.803-.806h25.501c.442 0 .803.363.803.806v.182a.807.807 0 01-.803.805z" fill="#E9F3FE"/><path d="M145.487 196.023a6.033 6.033 0 01.322 4.6 6.002 6.002 0 01-2.999 3.491l-25.341 12.753c-2.95 1.485-6.575.273-8.054-2.689a6.038 6.038 0 01-.324-4.598 6.008 6.008 0 013-3.49l25.341-12.753c2.951-1.486 6.577-.278 8.055 2.686z" fill="#EF7E29"/><path d="M132.415 202.602a6.042 6.042 0 01.324 4.598 6 6 0 01-2.999 3.491l-12.271 6.175c-2.95 1.485-6.575.273-8.054-2.689a6.038 6.038 0 01-.324-4.598 6.008 6.008 0 013-3.49l12.271-6.175c2.951-1.485 6.574-.275 8.053 2.688z" fill="#F99746"/><path opacity=".5" d="M139.306 196.014l-24.171 12.165a.852.852 0 01-1.142-.381l-.086-.172a.86.86 0 01.38-1.147l24.171-12.165a.852.852 0 011.142.381l.085.172a.857.857 0 01-.379 1.147z" fill="#FFE2CC"/><path d="M256.233 140.595s1.203 3.718 1.099 4.569c-.104.851-.858 3.756-1.397 4.5-.54.743-.805-3.029-1.232-3.597-.427-.569-.087 1.42-.389 1.604-.301.185-.928-1.462-1.197-2.042-.27-.581.659-2.723.662-4.216.003-1.494 2.454-.818 2.454-.818z" fill="#FFB27D"/><path d="M227.963 111.061c-.334-4.263 4.278-7.186 7.919-4.97.075.046.148.092.222.14 5.452 3.524 17.214 19.967 18.024 21.615.809 1.647 3.198 14.752 3.198 14.752s-2.952 1.084-4.333-.041c0 0-4.789-12.428-5.497-13.049-.709-.622-19.154-11.016-19.311-14.913a101.148 101.148 0 00-.222-3.534z" fill="#233862"/><path d="M180.483 112.283l1.603 4.625 23.168-8.1-1.604-4.626-23.167 8.101z" fill="#F99746"/><path d="M175.898 116.479l6.188.43-1.603-4.626-4.585 4.196zm30.977-11.703l.507 1.463c.311.9-.162 1.882-1.058 2.195l-1.072.374-1.603-4.625 1.166-.408a1.616 1.616 0 012.06 1.001z" fill="#F9DDBF"/><path d="M260.878 207.306s2.198 2.015 1.768 3.446c-.428 1.431-2.412 2.385-2.68 4.135-.269 1.749-1.341 2.703-2.305 2.703h-4.601s-.71-1.23 1.006-1.602c1.715-.371 2.361-2.426 2.254-4.335-.107-1.909.162-4.453.162-4.453l3.645-.848.751.954zm-26.965 5.211s.394 4.585-.571 5.061l-12.349-.025s0-1.431 1.984-1.749c1.984-.319 5.468-1.484 6.057-4.082.59-2.598 4.879.795 4.879.795z" fill="#233862"/><path d="M223.487 147.756s.652 8.036 1.417 17.697c1.04 13.122 2.292 29.24 2.416 32.294.214 5.303 1.073 13.784 1.073 13.784s2.037 2.015 6.112 1.165c0 0 3.632-12.107 4.668-24.917l.049-.633c.965-13.042 2.465-40.502 2.465-40.502l-18.2 1.112z" fill="#F99746"/><path d="M223.487 147.756s.652 8.036 1.417 17.697l14.269 22.326.049-.633c.965-13.042 2.465-40.502 2.465-40.502l-18.2 1.112z" fill="#EF7E29"/><path d="M226.461 148.711s11.741 29.103 19.459 42.781c7.72 13.677 10.132 17.494 10.132 17.494s4.423-1.749 4.824-2.942c0 0-2.951-26.404-8.121-32.842-2.921-3.637-6.352-14.552-6.514-18.37-.161-3.817-1.045-11.371-1.045-11.371l-18.735 5.25z" fill="#F99746"/><path d="M236.585 105.052s-7.865 4.007-12.472 2.671c0 0 1.098-1.451 3.05-2.553a37.022 37.022 0 01-.399-2.396c-.225-1.563-.242-2.451-.242-2.451l3.016-2.481 2.86-2.375c-.102 6.518 4.187 9.585 4.187 9.585z" fill="#FFB27D"/><path d="M244.398 145.765c-3.176 1.93-6.183 3.382-9.701 4.197-4.15.989-9.252.697-10.958.959a.716.716 0 01-.499-.126c-.133-.069-.886-5.153-1.641-11.571-.033-.258-.069-.519-.083-.781l-.011-.086c-.293-2.509-.55-5.143-.773-7.785a174.03 174.03 0 01-.435-5.997c-.131-2.388-.185-4.583-.131-6.389.024-.825.072-1.566.146-2.21.449-3.748 2.229-6.427 3.906-8.421l1.391-1.588c1.612.102 3.259-.203 4.812-1.234 1.698-1.122 3.532-2.33 3.878-2.129 2.604 1.431 4.722 5.137 6.237 10.033.868 2.818 1.534 6.015 1.96 9.401.137 1.052.254 2.13.342 3.202l.048.593c.203 2.935.538 5.685.908 8.141.498 3.313 1.064 6.087 1.464 8.041.201.995.354 1.764.446 2.315.08.479-.879 1.167-1.306 1.435z" fill="#2B478B"/><path d="M232.499 97.957s-1.935 3.714-5.736 4.819c-.225-1.564-.242-2.452-.242-2.452l3.016-2.481 2.962.114z" fill="#ED985F"/><path d="M225.121 100.244s7.601 1.094 8.22-3.598c.618-4.692 2.016-7.71-2.81-8.607-4.827-.897-6.009.773-6.599 2.289-.593 1.517-.772 9.511 1.189 9.916z" fill="#FFB27D"/><path d="M235.913 87.371c.067-.08.224-.147.577-.173 0 0-.285-.172-.663-.174-.084-.491-.362-1.36-1.211-1.555 0 0 .459.234.529.757-.998-.99-3.11-1.683-8.907-1.107-7.641.76-5.021 5.63-4.019 6.196 1.001.567 3.464-1.091 5.313-.98 1.849.11 2.252 2.781 2.886 3.136.633.355.374-.29 1.215-.692.839-.4.948 1.008.722 1.929-.226.921.96 2.108.96 2.108l1.152-1.296c1.151-1.295 2.153-6.707 1.596-7.844-.051-.1-.1-.202-.15-.305z" fill="#2C3A64"/><path d="M233.499 118.603s-6.409 4.897-13.202 5.971c-.131-2.388-.185-4.584-.131-6.389l13.333.418z" fill="#233862"/><path d="M194.141 112.284c-.101-.109-1.408-4.497-3.668-4.176-1.475.208-3.884 1.066-3.244 3.017.251.767 4.744 3.41 4.744 3.41l2.168-2.251z" fill="#FFB27D"/><path d="M234.291 109.14c3.654 2.196 3.358 7.665-.55 9.362a8.28 8.28 0 01-.242.101c-6.016 2.424-26.177 2.537-27.982 2.246-1.806-.291-13.829-5.92-13.829-5.92s.829-3.046 2.541-3.525c0 0 12.863 3.273 13.778 3.053.914-.221 20.031-9.308 23.286-7.18a96.442 96.442 0 002.998 1.863z" fill="#2B478B"/><path d="M331.838 213.401a4.256 4.256 0 01-1.246 3.008 4.216 4.216 0 01-2.995 1.252h-20.03a4.26 4.26 0 01-2.995-7.268 4.226 4.226 0 012.995-1.25h20.03c2.332-.001 4.241 1.915 4.241 4.258z" fill="#EF7E29"/><path d="M321.506 213.401a4.264 4.264 0 01-1.245 3.008 4.22 4.22 0 01-2.995 1.252h-9.699a4.26 4.26 0 01-2.995-7.268 4.226 4.226 0 012.995-1.25h9.699c2.331-.001 4.24 1.915 4.24 4.258z" fill="#F99746"/><path opacity=".5" d="M327.936 211.43h-19.107a.605.605 0 01-.601-.604v-.137c0-.332.271-.604.601-.604h19.107c.33 0 .601.272.601.604v.137c0 .332-.27.604-.601.604z" fill="#FFE2CC"/></g><defs><clipPath id="clip0"><path fill="#fff" d="M0 0h361v219H0z"/></clipPath></defs></svg>