<svg width="337" height="307" fill="none" xmlns="http://www.w3.org/2000/svg"><path d="M267.647 119.295c14.717 0 26.648-11.931 26.648-26.648S282.364 66 267.647 66 241 77.93 241 92.647c0 14.717 11.93 26.648 26.647 26.648z" fill="#66C7FA"/><path d="M279.7 85.808a14.731 14.731 0 012.391 8.073c0 8.186-6.636 14.822-14.822 14.822s-14.822-6.636-14.822-14.822 6.636-14.822 14.822-14.822c1.377 0 2.709.19 3.98.537" stroke="#fff" stroke-miterlimit="10"/><path d="M267.269 102.763a8.883 8.883 0 10-8.882-8.882 8.882 8.882 0 008.882 8.882z" stroke="#fff" stroke-miterlimit="10"/><path d="M270.205 93.88a2.942 2.942 0 01-2.943 2.944 2.942 2.942 0 01-2.944-2.943 2.942 2.942 0 012.944-2.943 2.942 2.942 0 012.943 2.943zm7.77-17.204l-3.541 3.548 1.059 2.482 3.541-3.541-1.059-2.49z" fill="#fff"/><path d="M281.516 80.224l-2.482-1.059-3.541 3.54 2.482 1.06 3.541-3.54z" fill="#fff"/><path d="M275.867 81.72l-6.858 6.934.538.532 6.858-6.934-.538-.532z" fill="#fff"/><path d="M259.433 178.055c-.333-26.867-21.344-48.559-48.188-49.686-8.686-.363-16.918 1.468-24.166 5.001-12.265 5.962-25.914 8.315-39.54 7.778-.507-.023-1.021-.03-1.536-.038-30.135-.356-55.096 24.105-55.33 54.248-.182 23.538 14.511 43.671 35.235 51.555 9.351 3.556 15.381 12.136 24.15 16.956 40.607 22.327 70.41-1.211 75.782-16.04 4.812-13.286 12.128-25.543 21.366-36.242 7.748-8.973 12.386-20.708 12.227-33.532z" fill="#D2E8F9"/><path d="M247.599 262.257H107.432l-13.218 13.097h166.603l-13.218-13.097z" fill="#C2DFF9"/><path d="M226.664 201.252c-1.649-3.715-4.774-6.597-8.64-7.868-11.947-3.942-30.975-3.488-30.975-3.488h-23.705s-17.863-.454-29.394 3.48c-3.798 1.294-6.862 4.154-8.489 7.816l-12.408 27.948 25.747 10.207v25.407h74.51v-25.407l25.747-10.207-12.393-27.888z" fill="url(#paint0_linear)"/><path d="M115.414 230.071c-1.408 5.796-6.575 31.785 12.998 35.152l10.366-25.884-23.364-9.268z" fill="url(#paint1_linear)"/><path d="M236.243 230.253c1.475 6.128 6.34 31.626-13.036 34.97l-10.184-25.793 23.22-9.177z" fill="url(#paint2_linear)"/><path d="M154.825 190.539s6.643-17.803 7.324-18.567c.681-.764-4.086-.681-5.281 1.876-1.196 2.557-6.726 9.284-6.726 9.284l4.683 7.407z" fill="url(#paint3_linear)"/><path d="M196.99 190.539s-6.643-17.803-7.324-18.567c-.68-.764 4.086-.681 5.282 1.876 1.195 2.557 6.726 9.284 6.726 9.284l-4.684 7.407z" fill="url(#paint4_linear)"/><path d="M175.753 174.408l-11.818 2.951v12.809l11.818 8.943 11.825-8.943v-12.809l-11.825-2.951z" fill="url(#paint5_linear)"/><path d="M202.657 159.972l-4.085 4.744c.249-1.294.378-2.618.378-3.949v-7.211c0-1.899-.711-3.73-1.997-5.13-2.527-2.776-4.699-7.815-4.699-7.815-15.139 9.185-31.21 0-31.21 0-1.286 1.982-3.836 4.539-5.742 6.332a7.612 7.612 0 00-2.399 5.546v8.278c0 1.218.106 2.428.326 3.616l-3.806-4.411s-6.809-9.979-2.497-20.3c0 0 3.859-13.611 12.023-13.724 0 0 5.349-6.356 16.94-6.348v-.008c.053 0 .098.008.151.008.053 0 .098-.008.151-.008v.008c11.584-.008 16.948 6.348 16.948 6.348 8.005.227 11.637 14.398 11.637 14.398 3.73 11.235-2.119 19.626-2.119 19.626z" fill="#233862"/><path d="M196.953 148.426a7.635 7.635 0 011.997 5.13v7.21c0 11.841-10.305 22.683-23.023 22.683-12.719 0-23.024-10.842-23.024-22.683v-8.277c0-2.103.87-4.108 2.399-5.546 1.906-1.793 4.448-4.35 5.742-6.332 0 0 16.078 9.185 31.218 0 0 0 2.163 5.039 4.691 7.815z" fill="url(#paint6_linear)"/><path opacity=".36" d="M187.578 180.173v4.237c-3.42 2.058-7.399 3.276-11.651 3.276-4.396 0-8.505-1.301-11.993-3.488v-4.237c3.496 2.187 7.597 3.488 11.993 3.488 4.252 0 8.231-1.21 11.651-3.276z" fill="#F28D33"/><path d="M154.333 168.355c-8.133-1.664-6.227-12.378-4.532-14.519 1.15-1.453 2.346-1.188 3.11-.749v7.68c-.008 2.617.499 5.175 1.422 7.588zm43.195.008a21.215 21.215 0 001.422-7.596v-7.672c.757-.439 1.96-.719 3.11.741 1.694 2.134 3.601 12.855-4.532 14.527z" fill="#FDBF77"/><path d="M177.72 170.209c0 .953-1.347 1.733-3.004 1.733s-3.004-.772-3.004-1.733c0-.961 1.347-.371 3.004-.371s3.004-.582 3.004.371z" fill="#F28D33"/><path d="M177.977 177.571a.522.522 0 01-.348-.136c-.371-.341-1.309-.681-2.565-.681s-2.194.34-2.565.681a.52.52 0 01-.726-.031.521.521 0 01.03-.726c.636-.583 1.884-.946 3.253-.946 1.37 0 2.618.363 3.254.946a.506.506 0 01.03.726.484.484 0 01-.363.167zm-11.319-12.235a1.338 1.338 0 10.001-2.677 1.338 1.338 0 00-.001 2.677zm16.146 0a1.338 1.338 0 10.001-2.677 1.338 1.338 0 00-.001 2.677zm-13.089-6.877a.781.781 0 01.605.915c-.249 1.294-2.209 1.869-4.055 1.869-.961 0-1.877-.159-2.588-.439a.77.77 0 01.568-1.43c.529.212 1.263.318 2.02.326 2.701.038 3.45-1.241 3.45-1.241zm10.486 0a.781.781 0 00-.605.915c.25 1.294 2.217 1.869 4.056 1.869.96 0 1.876-.159 2.587-.439a.768.768 0 10-.567-1.43c-.53.212-1.264.318-2.02.326-2.701.038-3.451-1.241-3.451-1.241z" fill="#083A60"/><path d="M165.697 167.826c0-.485-1.203-.878-2.693-.878-1.491 0-2.694.393-2.694.878 0 .484 1.203.877 2.694.877 1.483 0 2.693-.393 2.693-.877zm23.644 0c0-.485-1.203-.878-2.693-.878-1.491 0-2.694.393-2.694.878 0 .484 1.203.877 2.694.877 1.49 0 2.693-.393 2.693-.877z" fill="#F28D33"/><path opacity=".28" d="M155.309 146.943a7.615 7.615 0 00-2.398 5.546v8.285c0 3.405.855 6.726 2.376 9.738 1.21-4.881 3.465-11.879 3.412-14.716-.083-4.116-4.116-1.052-4.517-3.791-.257-1.763 2.656-5.969 4.767-8.746-1.181 1.309-2.52 2.625-3.64 3.684zm41.212 0a7.612 7.612 0 012.399 5.546v8.285c0 3.405-.855 6.726-2.376 9.738-1.211-4.881-3.465-11.879-3.412-14.716.083-4.116 4.116-1.052 4.517-3.791.257-1.763-2.656-5.969-4.767-8.746 1.18 1.309 2.52 2.625 3.639 3.684z" fill="#E8945B"/><path d="M155.037 192.324s-.129-8.557-2.172-14.436c-.968-2.776-1.588-4.411-1.974-5.364a3.356 3.356 0 01.045-2.648c1.68-3.73 5.016-13.437 4.396-14.898-.764-1.785-3.579 2.172-5.115 4.215-1.536 2.043-9.616 15.109-8.844 19.46.764 4.342 3.518 12.597 3.518 14.382 0 1.786-23.901 44.322-24.363 55.232-.159 3.715 2.376 16.82 9.284 17.175 9.049.462 14.761-11.296 15.783-14.617 1.006-3.322 9.442-58.501 9.442-58.501z" fill="url(#paint7_linear)"/><path d="M196.779 192.324s.128-8.557 2.171-14.436c.968-2.776 1.589-4.411 1.975-5.364a3.352 3.352 0 00-.046-2.648c-1.679-3.73-5.016-13.437-4.396-14.898.765-1.785 3.579 2.172 5.115 4.215 1.536 2.043 9.617 15.109 8.845 19.46-.764 4.342-3.518 12.597-3.518 14.382 0 1.786 23.901 44.322 24.362 55.232.159 3.715-2.376 16.82-9.283 17.175-9.049.462-14.762-11.296-15.783-14.617-1.006-3.322-9.442-58.501-9.442-58.501z" fill="url(#paint8_linear)"/><path opacity=".42" d="M231.272 248.335c-.121-2.95-1.96-8.216-4.585-14.36l4.055-1.611c8.701 24.18-3.586 32.269-7.369 32.919l-.015-.03c5.879-1.884 8.065-13.468 7.914-16.918zm-110.751-.068c.121-2.95 1.959-8.216 4.585-14.36l-4.056-1.612c-8.7 24.181 3.587 32.269 7.37 32.92l.015-.03c-5.879-1.884-8.066-13.46-7.914-16.918z" fill="#F49D47"/><path d="M79.67 25.094c-10.75-2.64-21.706-1.097-32.564-1.498-10.425-.386-18.99-3.692-23.553-13.967C22.108 6.383 19.891 3.47 18 .361c1.475-.916 2.285.136 3.132.673 4.895 3.087 10.29 4.494 16.01 4.57 8.035.106 16.078-.22 24.105.106 6.727.272 13.407 1.551 17.402 7.785 2.67 4.17 4.699 8.74 7.014 13.135-2.187.204-3.776-1.846-5.992-1.536zM68.148 9.712c.288 3.874 2.626 6.742 4.57 9.79.121.19.757.25 1.014.114.227-.12.47-.726.356-.9-1.93-3.019-3.08-6.552-5.94-9.004zm-8.398 8.906c-.628-3.783-2.444-6.93-5.266-9.541.787 3.7 2.33 6.99 5.266 9.54zm7.37.53c-.53-4.17-3.73-9.292-6.787-10.147 2.497 3.571 3.42 7.392 6.786 10.146zm-16.184-2.974c-.06-3.216-2.141-4.752-3.05-6.825-.264-.605-.99-.847-1.535-.348-.273.25-.462 1.06-.273 1.279 1.498 1.8 1.74 4.623 4.858 5.894zm-9.178 2.103c-.068-.257-.075-.393-.136-.492-1.21-1.982-2.028-4.229-3.866-5.788-.076-.06-.795.356-.787.515.159 2.345 1.74 4.017 2.905 5.886.273.439.72.75 1.249.53.287-.114.469-.462.635-.65z" fill="#E8E7F5"/><path d="M79.67 25.094c2.21-.31 3.806 1.74 5.993 1.544.189 2.156 2.126 3.223 3.11 4.88.446.749 1.097 1.581.143 2.24-.718.499-1.286-.16-1.793-.78-2.3-2.792-6.189-4.116-7.452-7.884z" fill="#D2D4EC"/><path d="M68.148 9.712c2.852 2.452 4.002 5.985 5.931 9.004.114.174-.128.78-.355.9-.257.137-.885.076-1.014-.113-1.937-3.05-4.275-5.917-4.562-9.79zm-8.398 8.906c-2.929-2.55-4.48-5.841-5.267-9.541 2.823 2.61 4.638 5.758 5.266 9.54zm7.369.529c-3.367-2.754-4.29-6.575-6.787-10.146 3.064.855 6.257 5.977 6.787 10.146z" fill="#AAB7D6"/><path d="M50.935 16.174c-3.117-1.264-3.36-4.086-4.857-5.894-.182-.22 0-1.03.272-1.279.545-.5 1.271-.257 1.536.348.908 2.073 2.988 3.61 3.049 6.825z" fill="#AEB9D8"/><path d="M41.757 18.277c-.174.19-.348.537-.628.65-.537.22-.976-.09-1.248-.529-1.165-1.869-2.746-3.54-2.905-5.886-.008-.167.71-.575.787-.515 1.838 1.559 2.655 3.806 3.866 5.788.053.106.06.235.128.492z" fill="#AAB7D6"/><path d="M24.105 147.452c2.474 1.619 4.872.144 7.043-.56 8.217-2.633 16.691-3.965 25.158-5.289 5.886-.923 11.25 1.037 16.183 4.192 3.594 2.292 7.188 4.577 10.66 7.271-7.596.129-14.995.507-22.25 2.315-7 1.74-13.998 3.48-21.012 5.183-.953.234-1.967.25-2.95.363-2.164-1.491-4.623-.356-6.908-.757-3.723-.65-7.823-1.233-9.367-5.144-1.226-3.125 1.037-5.592 3.443-7.574zm23.068-1.763c1.725 3.662 5.259 5.569 8.149 8.111.159.136.794.03.93-.159.447-.605.137-1.165-.4-1.574-2.838-2.149-5.092-5.046-8.679-6.378zm1.884 9.775c-2.39-3.382-5.235-6.272-9.268-7.725 2.678 3.034 4.948 6.53 9.268 7.725zm-7.187 1.922c-2.399-3.359-5.168-6.318-9.14-7.884 2.217 3.541 5.44 5.977 9.14 7.884zm-10.45-.915c-.113-.265-.158-.681-.4-.893a236.055 236.055 0 00-5.342-4.57c-.37-.303-.96-.583-1.256 0-.181.356-.181 1.097.06 1.324a105.303 105.303 0 005.32 4.562c.5.401 1.157.363 1.619-.423zm24.795-12.446c-.674-.069-1.234.196-1.044.749.544 1.641 2.11 2.322 3.45 3.139.597.364 1.415-.302 1.188-.9-.628-1.627-2.452-1.99-3.594-2.988z" fill="#E8E7F5"/><path d="M24.105 147.452c-2.406 1.982-4.669 4.449-3.435 7.573 1.543 3.912 5.644 4.495 9.366 5.145 2.285.401 4.744-.734 6.908.757-9.359 1.453-18.68 1.574-27.654-1.869-10.433-4.002-12.46-15.911-4.13-23.046 1.164-.999 2.042-1.438 3.586-.477 4.645 2.898 9.42 5.584 14.125 8.384 1.362.809 2.565 1.762 1.234 3.533z" fill="#D2D4EC"/><path d="M49.057 155.464c-4.312-1.195-6.582-4.698-9.268-7.725 4.032 1.453 6.877 4.343 9.268 7.725zm-7.187 1.922c-3.7-1.907-6.923-4.343-9.14-7.884 3.98 1.566 6.741 4.525 9.14 7.884z" fill="#AAB7D6"/><path d="M31.42 156.471c-.46.786-1.119.824-1.618.423a113.046 113.046 0 01-5.32-4.562c-.241-.22-.241-.969-.06-1.324.295-.583.886-.303 1.256 0a234.763 234.763 0 015.342 4.57c.234.212.287.628.4.893zm24.795-12.446c1.142.998 2.965 1.362 3.586 2.988.227.598-.59 1.264-1.188.901-1.331-.818-2.905-1.506-3.45-3.14-.174-.553.378-.817 1.052-.749z" fill="#AEB9D8"/><path d="M47.173 145.689c3.587 1.332 5.841 4.222 8.679 6.386.537.408.847.961.4 1.573-.136.19-.779.295-.93.159-2.89-2.549-6.424-4.456-8.149-8.118z" fill="#AAB7D6"/><path d="M267.444 24.71c-4.926-4.69-6.083-11.182-8.285-17.166-.59-1.604.575-1.536 1.619-1.536 8.52 0 17.047.015 25.566-.008 1.763-.008 2.519.689 3.087 2.467 3.367 10.622 9.435 19.255 19.429 24.801 1.105.613 2.308 1.074 2.399 2.58-3.004.726-5.977 1.8-9.019 2.096-5.387.514-10.842.643-15.881-1.967 4.721.053 9.435-.053 14.103-.848.938-.159 2.315-.151 1.997-1.528-.242-1.044-1.498-.658-2.269-.484-4.139.915-8.3 1.49-12.545 1.301-1.089-.053-2.005.166-2.073 1.513-4.789-1.082-8.799-3.54-12.469-6.726-1.815-1.574-2.92-4.063-5.659-4.494zm11.788 4.404c3.374 2.383 13.861 1.922 17.81-.575-6.136-.416-11.561 1.173-17.81.575zm1.082-3.654c2.958 1.437 5.462.355 7.914-.008 1.581-.234 4.509.923 4.441-1.014-.068-1.86-2.852-.37-4.366-.393-2.534-.03-5.371-.832-7.989 1.415zm-1.445-7.755c-3.178-.44-6.356-.908-9.443.348 3.186.53 6.371 1.135 9.443-.348z" fill="#E8E7F5"/><path d="M286.351 35.977c5.047 2.61 10.494 2.481 15.881 1.967 3.05-.295 6.015-1.37 9.019-2.096 5.765.129 11.19 2.754 17.024 2.315 2.595-.197 5.182-.492 7.823-.522-3.518 2.149-7.415 3.185-11.402 3.866-12.893 2.217-25.861 3.89-38.458-1.127-7.876-3.14-14.739-7.854-18.802-15.677 2.739.431 3.844 2.92 5.66 4.494 3.662 3.178 7.679 5.637 12.469 6.726.264.023.529.038.786.053z" fill="#D2D4EC"/><path d="M286.351 35.977l-.786-.046c.06-1.347.976-1.566 2.073-1.513 4.252.197 8.413-.378 12.544-1.301.772-.174 2.028-.56 2.27.484.318 1.377-1.059 1.37-1.998 1.528-4.668.795-9.381.893-14.103.848zm-7.119-6.863c6.25.598 11.667-.991 17.81-.575-3.949 2.497-14.435 2.958-17.81.575z" fill="#A6B4D5"/><path d="M280.314 25.46c2.618-2.247 5.455-1.445 7.989-1.408 1.514.023 4.298-1.475 4.366.394.068 1.937-2.86.78-4.441 1.014-2.452.355-4.956 1.43-7.914 0z" fill="#AAB7D6"/><path d="M278.869 17.704c-3.072 1.483-6.265.878-9.443.349 3.087-1.256 6.265-.787 9.443-.349z" fill="#AEB9D8"/><path d="M168.647 79.295c14.717 0 26.648-11.93 26.648-26.648 0-14.716-11.931-26.647-26.648-26.647S142 37.93 142 52.648c0 14.717 11.93 26.647 26.647 26.647z" fill="#66C7FA"/><path d="M173.24 60.561c0 4.51-3.208 8.164-7.165 8.164s-7.165-3.654-7.165-8.164c0-4.509 7.165-12.453 7.165-12.453s7.165 7.952 7.165 12.453zm9.337-11.697c0 2.694-1.914 4.873-4.283 4.873-2.36 0-4.282-2.18-4.282-4.873s4.282-7.437 4.282-7.437 4.283 4.744 4.283 7.437zm-22.161-4.206c0 1.876-1.332 3.39-2.974 3.39-1.641 0-2.973-1.522-2.973-3.39 0-1.877 2.973-5.176 2.973-5.176s2.974 3.307 2.974 5.176z" fill="#fff"/><path d="M69.647 119.295c14.718 0 26.648-11.931 26.648-26.648S84.365 66 69.647 66C54.93 66 43 77.93 43 92.647c0 14.717 11.93 26.648 26.647 26.648z" fill="#66C7FA"/><path d="M82.343 84.877c-3.102-3.102-8.133-3.102-11.228 0l-1.248 1.249-1.249-1.249a7.925 7.925 0 00-5.613-2.33 7.9 7.9 0 00-5.622 2.33c-3.102 3.102-3.102 8.134 0 11.228l1.256 1.256 11.228 11.228 11.228-11.235 1.248-1.249a7.912 7.912 0 002.33-5.614 7.893 7.893 0 00-2.33-5.614z" fill="#fff"/><path d="M69.17 102.234a.358.358 0 01-.325-.205l-4.509-8.723-1.974 3.934a.36.36 0 01-.333.204h-5.274a.371.371 0 010-.741h5.039l2.202-4.38a.36.36 0 01.333-.205c.143 0 .264.076.333.197l4.448 8.61 4.48-12.484c.075-.204.264-.242.37-.242a.36.36 0 01.326.257l2.685 8.171h6.174a.371.371 0 010 .742h-6.438a.372.372 0 01-.356-.257l-2.429-7.4-4.395 12.272a.368.368 0 01-.326.242l-.03.008z" fill="#9CDDE7"/><defs><linearGradient id="paint0_linear" x1="176.055" y1="189.88" x2="176.055" y2="264.754" gradientUnits="userSpaceOnUse"><stop stop-color="#80A1F2"/><stop offset="1" stop-color="#75B9FF"/></linearGradient><linearGradient id="paint1_linear" x1="126.26" y1="230.071" x2="126.26" y2="265.223" gradientUnits="userSpaceOnUse"><stop stop-color="#FFB27D"/><stop offset="1" stop-color="#FEE0BD"/></linearGradient><linearGradient id="paint2_linear" x1="225.45" y1="230.253" x2="225.45" y2="265.223" gradientUnits="userSpaceOnUse"><stop stop-color="#FFB27D"/><stop offset="1" stop-color="#FEE0BD"/></linearGradient><linearGradient id="paint3_linear" x1="154.387" y1="177.023" x2="161.31" y2="183.946" gradientUnits="userSpaceOnUse"><stop offset=".002" stop-color="#FFDA9F"/><stop offset="1" stop-color="#FCA854"/></linearGradient><linearGradient id="paint4_linear" x1="197.431" y1="177.023" x2="190.508" y2="183.946" gradientUnits="userSpaceOnUse"><stop offset=".002" stop-color="#FFDA9F"/><stop offset="1" stop-color="#FCA854"/></linearGradient><linearGradient id="paint5_linear" x1="175.756" y1="174.408" x2="175.756" y2="199.111" gradientUnits="userSpaceOnUse"><stop stop-color="#FFB27D"/><stop offset="1" stop-color="#FEE0BD"/></linearGradient><linearGradient id="paint6_linear" x1="175.927" y1="140.611" x2="175.927" y2="183.449" gradientUnits="userSpaceOnUse"><stop stop-color="#FFB27D"/><stop offset="1" stop-color="#FEE0BD"/></linearGradient><linearGradient id="paint7_linear" x1="137.965" y1="154.528" x2="137.965" y2="265.455" gradientUnits="userSpaceOnUse"><stop stop-color="#FFB27D"/><stop offset="1" stop-color="#FEE0BD"/></linearGradient><linearGradient id="paint8_linear" x1="213.851" y1="154.528" x2="213.851" y2="265.455" gradientUnits="userSpaceOnUse"><stop stop-color="#FFB27D"/><stop offset="1" stop-color="#FEE0BD"/></linearGradient></defs></svg>