<svg width="418" height="481" fill="none" xmlns="http://www.w3.org/2000/svg"><path d="M318.284 340.526c-.48-38.757-30.79-70.049-69.515-71.676-12.529-.524-24.404 2.118-34.861 7.215-17.692 8.6-37.382 11.995-57.039 11.22a73.496 73.496 0 00-2.215-.055c-43.473-.513-79.48 34.774-79.818 78.257-.262 33.955 20.934 62.999 50.829 74.372 13.49 5.13 22.189 17.507 34.839 24.459 58.578 32.209 101.57-1.746 109.32-23.139 6.941-19.165 17.495-36.847 30.822-52.28 11.177-12.945 17.867-29.873 17.638-48.373z" fill="#D2E8F9"/><path d="M301.214 461.993H99.012l-19.068 18.893H320.28l-19.067-18.893z" fill="#C2DFF9"/><path d="M271.013 373.99c-2.379-5.359-6.887-9.518-12.464-11.351-17.234-5.687-44.684-5.032-44.684-5.032H179.67s-25.769-.655-42.403 5.021c-5.479 1.866-9.9 5.992-12.246 11.274l-17.9 40.319 37.142 14.723v36.651h107.486v-36.651l37.142-14.723-17.878-40.231z" fill="url(#paint0_linear)"/><path d="M110.526 415.563c-2.03 8.36-9.484 45.852 18.751 50.709l14.953-37.339-33.704-13.37z" fill="url(#paint1_linear)"/><path d="M284.831 415.825c2.128 8.841 9.146 45.623-18.806 50.447l-14.691-37.208 33.497-13.239z" fill="url(#paint2_linear)"/><path d="M167.38 358.535s9.583-25.682 10.565-26.784c.982-1.103-5.894-.983-7.618 2.706-1.725 3.689-9.703 13.392-9.703 13.392l6.756 10.686z" fill="url(#paint3_linear)"/><path d="M228.206 358.535s-9.582-25.682-10.565-26.784c-.982-1.103 5.894-.983 7.619 2.706 1.724 3.689 9.703 13.392 9.703 13.392l-6.757 10.686z" fill="url(#paint4_linear)"/><path d="M197.569 335.265l-17.048 4.257V358l17.048 12.901L214.629 358v-18.478l-17.06-4.257z" fill="url(#paint5_linear)"/><path d="M236.381 314.44l-5.893 6.844c.36-1.867.545-3.777.545-5.698v-10.401c0-2.74-1.026-5.381-2.881-7.4-3.646-4.006-6.778-11.275-6.778-11.275-21.84 13.25-45.022 0-45.022 0-1.856 2.86-5.534 6.549-8.284 9.135a10.982 10.982 0 00-3.46 8.001v11.94c0 1.757.152 3.504.469 5.217l-5.49-6.363s-9.823-14.396-3.602-29.283c0 0 5.567-19.636 17.343-19.799 0 0 7.717-9.169 24.438-9.158v-.011c.076 0 .142.011.218.011.077 0 .142-.011.218-.011v.011c16.711-.011 24.449 9.158 24.449 9.158 11.548.327 16.786 20.77 16.786 20.77 5.381 16.208-3.056 28.312-3.056 28.312z" fill="#233862"/><path d="M228.152 297.785a11.008 11.008 0 012.881 7.4v10.401c0 17.081-14.865 32.722-33.212 32.722-18.348 0-33.213-15.641-33.213-32.722v-11.94c0-3.034 1.255-5.927 3.46-8.001 2.75-2.586 6.417-6.275 8.284-9.135 0 0 23.193 13.25 45.033 0 0 0 3.121 7.269 6.767 11.275z" fill="url(#paint6_linear)"/><path opacity=".36" d="M214.629 343.582v6.112c-4.934 2.969-10.675 4.726-16.809 4.726-6.341 0-12.267-1.877-17.299-5.032v-6.112c5.042 3.155 10.958 5.032 17.299 5.032 6.134 0 11.875-1.746 16.809-4.726z" fill="#F28D33"/><path d="M166.67 326.533c-11.733-2.401-8.982-17.856-6.537-20.945 1.659-2.095 3.383-1.713 4.486-1.08v11.078c-.011 3.777.72 7.466 2.051 10.947zm62.311.011a30.598 30.598 0 002.052-10.958v-11.067c1.092-.633 2.827-1.037 4.486 1.069 2.445 3.078 5.195 18.544-6.538 20.956z" fill="#FDBF77"/><path d="M200.407 329.208c0 1.375-1.943 2.499-4.333 2.499s-4.333-1.113-4.333-2.499c0-1.387 1.943-.535 4.333-.535s4.333-.841 4.333.535z" fill="#F28D33"/><path d="M200.778 339.827a.749.749 0 01-.502-.196c-.535-.491-1.888-.982-3.7-.982-1.812 0-3.165.491-3.7.982a.752.752 0 01-1.048-.044.753.753 0 01.044-1.048c.917-.84 2.718-1.364 4.693-1.364 1.976 0 3.777.524 4.694 1.364a.732.732 0 01.043 1.048.696.696 0 01-.524.24zm-16.328-17.649a1.931 1.931 0 10.002-3.862 1.931 1.931 0 00-.002 3.862zm23.292 0a1.931 1.931 0 10.002-3.862 1.931 1.931 0 00-.002 3.862zm-18.882-9.921c.6.12.993.721.873 1.321-.36 1.866-3.187 2.696-5.85 2.696-1.386 0-2.707-.229-3.733-.633a1.11 1.11 0 01.819-2.063c.764.306 1.822.458 2.914.469 3.896.055 4.977-1.79 4.977-1.79zm15.127 0c-.6.12-.993.721-.873 1.321.36 1.866 3.198 2.696 5.85 2.696 1.386 0 2.707-.229 3.733-.633a1.11 1.11 0 00-.819-2.063c-.764.306-1.822.458-2.914.469-3.896.055-4.977-1.79-4.977-1.79z" fill="#083A60"/><path d="M183.064 325.77c0-.699-1.735-1.267-3.885-1.267-2.151 0-3.886.568-3.886 1.267 0 .698 1.735 1.266 3.886 1.266 2.139 0 3.885-.568 3.885-1.266zm34.108 0c0-.699-1.735-1.267-3.886-1.267-2.15 0-3.885.568-3.885 1.267 0 .698 1.735 1.266 3.885 1.266 2.151 0 3.886-.568 3.886-1.266z" fill="#F28D33"/><path opacity=".28" d="M168.078 295.645a10.986 10.986 0 00-3.459 8.001v11.951c0 4.912 1.233 9.703 3.427 14.047 1.746-7.04 4.999-17.136 4.922-21.229-.12-5.937-5.937-1.517-6.516-5.468-.371-2.543 3.831-8.611 6.876-12.617-1.702 1.888-3.634 3.787-5.25 5.315zm59.452 0a10.987 10.987 0 013.46 8.001v11.951c0 4.912-1.234 9.703-3.428 14.047-1.746-7.04-4.998-17.136-4.922-21.229.12-5.937 5.938-1.517 6.516-5.468.371-2.543-3.831-8.611-6.876-12.617 1.703 1.888 3.634 3.787 5.25 5.315z" fill="#E8945B"/><path d="M167.686 361.111s-.186-12.345-3.133-20.825c-1.397-4.006-2.292-6.363-2.849-7.739a4.838 4.838 0 01.066-3.82c2.423-5.381 7.236-19.384 6.341-21.49-1.102-2.576-5.162 3.132-7.378 6.079-2.216 2.947-13.872 21.796-12.759 28.072 1.102 6.265 5.075 18.173 5.075 20.749 0 2.575-34.479 63.937-35.145 79.675-.229 5.359 3.428 24.263 13.393 24.776 13.053.666 21.294-16.295 22.767-21.086 1.452-4.792 13.622-84.391 13.622-84.391z" fill="url(#paint7_linear)"/><path d="M227.901 361.111s.185-12.345 3.132-20.825c1.397-4.006 2.292-6.363 2.849-7.739a4.838 4.838 0 00-.066-3.82c-2.423-5.381-7.236-19.384-6.341-21.49 1.103-2.576 5.163 3.132 7.378 6.079 2.216 2.947 13.873 21.796 12.759 28.072-1.102 6.265-5.075 18.173-5.075 20.749 0 2.575 34.479 63.937 35.145 79.675.229 5.359-3.427 24.263-13.392 24.776-13.054.666-21.294-16.295-22.768-21.086-1.451-4.792-13.621-84.391-13.621-84.391z" fill="url(#paint8_linear)"/><path opacity=".42" d="M277.66 441.911c-.175-4.257-2.827-11.854-6.614-20.716l5.85-2.325c12.552 34.883-5.173 46.55-10.631 47.489l-.021-.044c8.48-2.717 11.634-19.427 11.416-24.404zm-159.766-.099c.174-4.256 2.826-11.853 6.614-20.715l-5.85-2.325c-12.552 34.883 5.173 46.55 10.63 47.489l.022-.044c-8.48-2.718-11.635-19.417-11.416-24.405z" fill="#F49D47"/><path d="M309.441 294.882c21.23 0 38.441-17.211 38.441-38.441 0-21.23-17.211-38.441-38.441-38.441-21.23 0-38.441 17.211-38.441 38.441 0 21.23 17.211 38.441 38.441 38.441z" fill="#66C7FA"/><path d="M326.828 246.574a21.25 21.25 0 013.449 11.646c0 11.809-9.572 21.381-21.382 21.381-11.809 0-21.381-9.572-21.381-21.381 0-11.81 9.572-21.382 21.381-21.382 1.987 0 3.908.273 5.741.775" stroke="#fff" stroke-miterlimit="10"/><path d="M308.895 271.034c7.077 0 12.814-5.737 12.814-12.814s-5.737-12.814-12.814-12.814-12.813 5.737-12.813 12.814 5.736 12.814 12.813 12.814z" stroke="#fff" stroke-miterlimit="10"/><path d="M313.13 258.22a4.244 4.244 0 01-4.246 4.246 4.245 4.245 0 01-4.246-4.246c0-2.347 1.9-4.246 4.246-4.246a4.243 4.243 0 014.246 4.246zm11.209-24.82l-5.108 5.119 1.528 3.58 5.108-5.108-1.528-3.591z" fill="#fff"/><path d="M329.447 238.519l-3.58-1.528-5.108 5.108 3.58 1.528 5.108-5.108z" fill="#fff"/><path d="M321.298 240.677l-9.893 10.003.776.767 9.893-10.002-.776-.768z" fill="#fff"/><path d="M99.44 294.882c21.231 0 38.442-17.211 38.442-38.441 0-21.23-17.211-38.441-38.441-38.441C78.21 218 61 235.211 61 256.441c0 21.23 17.21 38.441 38.44 38.441z" fill="#66C7FA"/><path d="M117.755 245.232c-4.475-4.475-11.733-4.475-16.197 0l-1.8 1.801-1.801-1.801a11.43 11.43 0 00-8.1-3.362 11.39 11.39 0 00-8.108 3.362c-4.475 4.475-4.475 11.733 0 16.197l1.811 1.812 16.197 16.197 16.197-16.208 1.801-1.801a11.414 11.414 0 003.362-8.099c0-2.925-1.113-5.861-3.362-8.098z" fill="#fff"/><path d="M98.753 270.27a.517.517 0 01-.47-.295L91.78 257.39l-2.849 5.676a.52.52 0 01-.48.295h-7.608a.536.536 0 010-1.07h7.27l3.176-6.319a.52.52 0 01.48-.295c.207 0 .382.109.48.284l6.418 12.42 6.461-18.009c.109-.294.382-.349.535-.349.197 0 .404.153.469.371l3.875 11.788h8.906a.536.536 0 010 1.07h-9.288a.538.538 0 01-.513-.372l-3.503-10.674-6.342 17.703a.532.532 0 01-.47.35l-.043.011z" fill="#9CDDE7"/><path d="M228.67 36.2c-15.51-3.81-31.314-1.583-46.976-2.161-15.04-.557-27.396-5.326-33.977-20.148-2.085-4.682-5.283-8.885-8.011-13.37 2.128-1.321 3.296.196 4.518.971 7.062 4.453 14.844 6.483 23.095 6.592 11.592.153 23.194-.316 34.774.153 9.703.393 19.34 2.238 25.103 11.231 3.853 6.014 6.778 12.606 10.118 18.948-3.154.294-5.446-2.663-8.644-2.216zm-16.623-22.19c.415 5.59 3.787 9.726 6.592 14.124.175.273 1.092.36 1.463.164.327-.175.677-1.048.513-1.299-2.783-4.355-4.442-9.452-8.568-12.988zm-12.115 12.847c-.906-5.457-3.526-9.997-7.597-13.763 1.135 5.337 3.362 10.085 7.597 13.763zm10.631.764c-.764-6.014-5.381-13.403-9.791-14.636 3.602 5.152 4.934 10.663 9.791 14.636zm-23.347-4.29c-.087-4.638-3.088-6.853-4.398-9.844-.382-.873-1.43-1.222-2.216-.502-.393.36-.666 1.528-.393 1.845 2.161 2.597 2.511 6.668 7.007 8.502zm-13.239 3.035c-.098-.371-.109-.567-.196-.71-1.747-2.859-2.925-6.1-5.578-8.349-.109-.087-1.146.513-1.135.742.229 3.384 2.511 5.796 4.191 8.492.393.633 1.037 1.08 1.801.764.415-.164.677-.666.917-.939z" fill="#E8E7F5"/><path d="M228.67 36.2c3.187-.448 5.49 2.51 8.644 2.227.273 3.11 3.067 4.65 4.486 7.04.644 1.08 1.583 2.28.208 3.23-1.037.72-1.856-.23-2.587-1.124-3.318-4.028-8.928-5.938-10.751-11.373z" fill="#D2D4EC"/><path d="M212.047 14.01c4.115 3.537 5.774 8.634 8.557 12.989.164.251-.185 1.124-.513 1.299-.371.196-1.277.109-1.462-.164-2.794-4.398-6.167-8.535-6.582-14.123zm-12.115 12.847c-4.224-3.678-6.461-8.426-7.596-13.763 4.071 3.766 6.69 8.306 7.596 13.763zm10.631.764c-4.857-3.973-6.189-9.484-9.79-14.636 4.42 1.233 9.026 8.622 9.79 14.636z" fill="#AAB7D6"/><path d="M187.217 23.332c-4.497-1.823-4.846-5.894-7.007-8.503-.262-.316 0-1.484.393-1.844.785-.72 1.833-.371 2.215.502 1.31 2.99 4.312 5.206 4.399 9.845z" fill="#AEB9D8"/><path d="M173.977 26.366c-.251.273-.502.775-.906.939-.774.316-1.407-.131-1.8-.764-1.681-2.696-3.962-5.108-4.192-8.492-.01-.24 1.026-.83 1.136-.742 2.652 2.248 3.831 5.49 5.577 8.35.076.152.087.338.185.71z" fill="#AAB7D6"/><path d="M34.773 182.772c3.569 2.336 7.029.207 10.161-.808 11.853-3.798 24.077-5.719 36.29-7.629 8.492-1.332 16.23 1.495 23.347 6.047 5.184 3.307 10.369 6.603 15.378 10.488-10.958.186-21.632.732-32.1 3.34-10.095 2.511-20.191 5.021-30.309 7.477-1.375.338-2.837.36-4.256.524-3.122-2.151-6.67-.513-9.965-1.092-5.37-.939-11.286-1.779-13.513-7.422-1.768-4.507 1.496-8.066 4.967-10.925zm33.278-2.543c2.489 5.282 7.585 8.033 11.755 11.7.23.197 1.146.044 1.342-.229.644-.873.197-1.681-.578-2.27-4.093-3.1-7.346-7.28-12.519-9.201zm2.718 14.101c-3.45-4.878-7.553-9.048-13.37-11.143 3.863 4.376 7.138 9.419 13.37 11.143zm-10.37 2.773c-3.459-4.846-7.454-9.114-13.184-11.373 3.198 5.108 7.848 8.622 13.185 11.373zm-15.072-1.321c-.164-.382-.23-.982-.578-1.288a341.882 341.882 0 00-7.706-6.592c-.535-.437-1.386-.841-1.812 0-.262.513-.262 1.582.087 1.91a152.126 152.126 0 007.673 6.581c.72.579 1.67.524 2.336-.611zm35.767-17.954c-.972-.099-1.78.283-1.506 1.08.785 2.369 3.045 3.351 4.977 4.53.862.524 2.04-.437 1.713-1.299-.906-2.347-3.536-2.871-5.184-4.311z" fill="#E8E7F5"/><path d="M34.773 182.772c-3.471 2.859-6.735 6.417-4.956 10.925 2.227 5.643 8.143 6.483 13.513 7.422 3.296.578 6.843-1.059 9.965 1.091-13.502 2.096-26.948 2.271-39.893-2.695-15.051-5.774-17.976-22.954-5.96-33.246 1.682-1.441 2.948-2.074 5.174-.688 6.702 4.181 13.589 8.055 20.377 12.094 1.965 1.168 3.7 2.543 1.78 5.097z" fill="#D2D4EC"/><path d="M70.768 194.33c-6.22-1.724-9.495-6.778-13.37-11.143 5.818 2.095 9.921 6.264 13.37 11.143zM60.4 197.102c-5.338-2.75-9.987-6.265-13.185-11.373 5.74 2.26 9.725 6.527 13.184 11.373z" fill="#AAB7D6"/><path d="M45.327 195.782c-.666 1.135-1.615 1.19-2.336.611-2.62-2.117-5.184-4.3-7.673-6.581-.349-.317-.349-1.397-.087-1.91.426-.841 1.277-.437 1.812 0a341.666 341.666 0 017.705 6.592c.339.306.415.906.579 1.288zm35.767-17.954c1.648 1.44 4.278 1.964 5.173 4.311.328.862-.851 1.823-1.713 1.299-1.921-1.179-4.192-2.172-4.977-4.53-.251-.797.545-1.179 1.517-1.08z" fill="#AEB9D8"/><path d="M68.051 180.229c5.173 1.921 8.426 6.09 12.519 9.212.775.589 1.222 1.386.578 2.27-.196.273-1.124.425-1.342.229-4.17-3.678-9.266-6.429-11.755-11.711z" fill="#AAB7D6"/><path d="M318.181 180.992c-7.105-6.767-8.775-16.132-11.951-24.765-.852-2.314.829-2.216 2.335-2.216 12.29 0 24.591.022 36.88-.011 2.544-.011 3.635.993 4.454 3.558 4.857 15.324 13.61 27.778 28.028 35.778 1.594.884 3.329 1.55 3.46 3.722-4.333 1.048-8.623 2.597-13.01 3.023-7.771.742-15.641.928-22.91-2.838 6.811.077 13.611-.076 20.345-1.222 1.353-.229 3.34-.218 2.881-2.205-.349-1.506-2.161-.949-3.274-.698-5.97 1.32-11.973 2.15-18.096 1.877-1.572-.076-2.893.24-2.991 2.183-6.909-1.561-12.693-5.108-17.987-9.703-2.619-2.27-4.213-5.861-8.164-6.483zm17.005 6.352c4.868 3.438 19.995 2.772 25.693-.83-8.852-.6-16.678 1.692-25.693.83zm1.561-5.272c4.267 2.074 7.88.513 11.416-.011 2.281-.338 6.505 1.332 6.407-1.462-.098-2.685-4.115-.535-6.298-.568-3.656-.043-7.749-1.2-11.525 2.041zm-2.085-11.187c-4.584-.633-9.168-1.31-13.621.502 4.595.764 9.19 1.637 13.621-.502z" fill="#E8E7F5"/><path d="M345.456 197.243c7.28 3.766 15.139 3.58 22.91 2.838 4.398-.426 8.677-1.975 13.01-3.023 8.317.185 16.143 3.973 24.558 3.34 3.743-.284 7.476-.71 11.285-.753-5.075 3.099-10.696 4.595-16.448 5.577-18.598 3.198-37.306 5.61-55.478-1.626-11.362-4.53-21.262-11.33-27.123-22.615 3.951.622 5.545 4.213 8.164 6.483 5.283 4.584 11.078 8.131 17.987 9.703.382.033.764.054 1.135.076z" fill="#D2D4EC"/><path d="M345.456 197.243l-1.135-.065c.088-1.943 1.408-2.259 2.991-2.183 6.134.284 12.137-.546 18.096-1.877 1.113-.251 2.925-.808 3.274.698.459 1.987-1.528 1.976-2.881 2.205-6.734 1.146-13.534 1.288-20.345 1.222zm-10.27-9.899c9.016.862 16.83-1.43 25.693-.83-5.697 3.602-20.825 4.268-25.693.83z" fill="#A6B4D5"/><path d="M336.747 182.072c3.776-3.242 7.869-2.085 11.525-2.03 2.183.033 6.2-2.128 6.298.568.098 2.794-4.126 1.124-6.407 1.462-3.536.513-7.149 2.063-11.416 0z" fill="#AAB7D6"/><path d="M334.662 170.885c-4.431 2.139-9.037 1.266-13.621.502 4.453-1.812 9.037-1.135 13.621-.502z" fill="#AEB9D8"/><path d="M207.441 206.882c21.23 0 38.441-17.211 38.441-38.441 0-21.23-17.211-38.441-38.441-38.441-21.23 0-38.441 17.211-38.441 38.441 0 21.23 17.211 38.441 38.441 38.441z" fill="#66C7FA"/><path d="M214.066 179.858c0 6.505-4.628 11.776-10.336 11.776s-10.336-5.271-10.336-11.776 10.336-17.966 10.336-17.966 10.336 11.471 10.336 17.966zm13.469-16.874c0 3.885-2.762 7.029-6.178 7.029-3.405 0-6.178-3.144-6.178-7.029 0-3.886 6.178-10.729 6.178-10.729s6.178 6.843 6.178 10.729zm-31.969-6.069c0 2.707-1.921 4.89-4.289 4.89-2.369 0-4.29-2.194-4.29-4.89 0-2.707 4.29-7.465 4.29-7.465s4.289 4.769 4.289 7.465z" fill="#fff"/><defs><linearGradient id="paint0_linear" x1="198.006" y1="357.584" x2="198.006" y2="465.595" gradientUnits="userSpaceOnUse"><stop stop-color="#80A1F2"/><stop offset="1" stop-color="#75B9FF"/></linearGradient><linearGradient id="paint1_linear" x1="126.173" y1="415.563" x2="126.173" y2="466.272" gradientUnits="userSpaceOnUse"><stop stop-color="#FFB27D"/><stop offset="1" stop-color="#FEE0BD"/></linearGradient><linearGradient id="paint2_linear" x1="269.262" y1="415.825" x2="269.262" y2="466.272" gradientUnits="userSpaceOnUse"><stop stop-color="#FFB27D"/><stop offset="1" stop-color="#FEE0BD"/></linearGradient><linearGradient id="paint3_linear" x1="166.748" y1="339.037" x2="176.735" y2="349.024" gradientUnits="userSpaceOnUse"><stop offset=".002" stop-color="#FFDA9F"/><stop offset="1" stop-color="#FCA854"/></linearGradient><linearGradient id="paint4_linear" x1="228.842" y1="339.037" x2="218.854" y2="349.024" gradientUnits="userSpaceOnUse"><stop offset=".002" stop-color="#FFDA9F"/><stop offset="1" stop-color="#FCA854"/></linearGradient><linearGradient id="paint5_linear" x1="197.575" y1="335.265" x2="197.575" y2="370.901" gradientUnits="userSpaceOnUse"><stop stop-color="#FFB27D"/><stop offset="1" stop-color="#FEE0BD"/></linearGradient><linearGradient id="paint6_linear" x1="197.82" y1="286.51" x2="197.82" y2="348.308" gradientUnits="userSpaceOnUse"><stop stop-color="#FFB27D"/><stop offset="1" stop-color="#FEE0BD"/></linearGradient><linearGradient id="paint7_linear" x1="143.058" y1="306.586" x2="143.058" y2="466.607" gradientUnits="userSpaceOnUse"><stop stop-color="#FFB27D"/><stop offset="1" stop-color="#FEE0BD"/></linearGradient><linearGradient id="paint8_linear" x1="252.529" y1="306.586" x2="252.529" y2="466.607" gradientUnits="userSpaceOnUse"><stop stop-color="#FFB27D"/><stop offset="1" stop-color="#FEE0BD"/></linearGradient></defs></svg>