<svg width="22" height="16" fill="none" xmlns="http://www.w3.org/2000/svg"><path d="M0 16v-1.067h22V16H0zm0-2.133V12.8h22v1.067H0zm0-2.133v-1.067h22v1.066l-22 .001zM0 9.6V8.533h22V9.6H0zm0-2.133V6.4h22v1.067H0zm0-2.134V4.266h22v1.067H0zM0 3.2V2.133h22V3.2H0zm0-2.134V0h22v1.066H0z" fill="#D02F44"/><path d="M9 0H0v7h9V0z" fill="#46467F"/><g filter="url(#filter0_d)"><path d="M7 5.5a.5.5 0 111 0 .5.5 0 01-1 0zm-2 0a.5.5 0 111 0 .5.5 0 01-1 0zm-2 0a.5.5 0 111 0 .5.5 0 01-1 0zm-2 0a.5.5 0 111 0 .5.5 0 01-1 0zm5-1a.5.5 0 111 0 .5.5 0 01-1 0zm-2 0a.5.5 0 111 0 .5.5 0 01-1 0zm-2 0a.5.5 0 111 0 .5.5 0 01-1 0zm5-1a.5.5 0 111 0 .5.5 0 01-1 0zm-2 0a.5.5 0 111 0 .5.5 0 01-1 0zm-2 0a.5.5 0 111 0 .5.5 0 01-1 0zm-2 0a.5.5 0 111 0 .5.5 0 01-1 0zm5-1a.5.5 0 111 0 .5.5 0 01-1 0zm-2 0a.5.5 0 111 0 .5.5 0 01-1 0zm-2 0a.5.5 0 111 0 .5.5 0 01-1 0zm5-1a.5.5 0 111 0 .5.5 0 01-1 0zm-2 0a.5.5 0 111 0 .5.5 0 01-1 0zm-2 0a.5.5 0 111 0 .5.5 0 01-1 0zm-2 0a.5.5 0 111 0 .5.5 0 01-1 0z" fill="url(#paint0_linear)"/></g><defs><linearGradient id="paint0_linear" x1="4.5" y1="1" x2="4.5" y2="6" gradientUnits="userSpaceOnUse"><stop stop-color="#fff"/><stop offset="1" stop-color="#F0F0F0"/></linearGradient><filter id="filter0_d" x="1" y="1" width="7" height="6" filterUnits="userSpaceOnUse" color-interpolation-filters="sRGB"><feFlood flood-opacity="0" result="BackgroundImageFix"/><feColorMatrix in="SourceAlpha" values="0 0 0 0 0 0 0 0 0 0 0 0 0 0 0 0 0 0 127 0"/><feOffset dy="1"/><feColorMatrix values="0 0 0 0 0 0 0 0 0 0 0 0 0 0 0 0 0 0 0.059 0"/><feBlend in2="BackgroundImageFix" result="effect1_dropShadow"/><feBlend in="SourceGraphic" in2="effect1_dropShadow" result="shape"/></filter></defs></svg>