<svg width="308" height="210" fill="none" xmlns="http://www.w3.org/2000/svg"><path d="M23.845 171.015C2.78 145.31-14.1 130.278 17.429 86.157c27.98-39.14 57.28-23.212 84.594-14.355 19.815 6.429 39.504-5.397 64.515-45.216 34.107-54.312 152.33-21.375 130.779 62.188-10.43 40.435 5.452 20.831 10.254 82.317 4.801 61.486-256.15 33.577-283.726-.076z" fill="#EBF3FA"/><path d="M124.409 153.13s2.279-8.514 5.26-9.743c2.982-1.229 29.724-.526 30.864.702 1.228 1.229 2.63 7.988 2.63 7.988l1.228.526s-1.228-9.83-3.858-11.322c-2.63-1.492-30.513-1.58-32.705-.615-2.192.966-4.472 12.376-4.472 12.376h1.053v.088z" fill="#7A88B0"/><path d="M201.066 206.86c.025.013.063.025.101.051h21.085c-.201-.755-.88-2.114-3.296-2.504-3.271-.528-8.945-2.428-10.203-6.618l-.113-.415c-1.007-4.466-8.304 1.372-8.304 1.372s-.025.176-.05.478c-.176 1.635-.604 6.932.78 7.636z" fill="#2C3A64"/><path d="M228.958 131.135s-13.713 48.701-17.84 67.535c0 0-10.178 2.038-11.763-1.157 0 0 3.284-53.042 9.31-59.773 7.498-8.378 20.293-6.605 20.293-6.605z" fill="#2C3A64"/><path d="M230.091 81.78s-.364-2.176.202-3.988c.566-1.811 2.906-6.605 2.164-8.266-.743-1.66-3.435-6.139-5.096-6.126-1.66.012 1.749 4.793 1.271 6.277-.465 1.498-.616 1.61-1.195 1.485-.579-.126-1.46-2.982-1.749-2.315-.289.667-.126 5.083.428 6.19.553 1.107-.579 7.322-.579 7.322l4.554-.579z" fill="#ED975D"/><path d="M231.411 80.8s-3.674-2.09-6.505-1.209c0 0-5.636 16.23-8.743 28.156-5.951-14.694-9.625-29.35-9.625-29.35s-7.221 9.976-9.825 16.606c-2.605 6.63 12.971 29.892 19.022 31.729 6.316 1.9 5.158 0 8.719-2.038 1.144-1.485 4.805-8.882 6.957-43.895z" fill="#FFA412"/><path d="M248.019 207.615c.025.013.062.025.1.038h21.086c-.201-.755-.893-2.114-3.296-2.504-3.271-.528-8.945-2.428-10.203-6.618l-.114-.415c-1.006-4.466-8.303 1.372-8.303 1.372s-.025.176-.05.478c-.177 1.648-.604 6.957.78 7.649z" fill="#2C3A64"/><path d="M233.046 129.953s-2.05.918-4.592 2.78c-.289-1.472-.704-2.428-.704-2.428-18.092-4.718-66.516-4.328-66.516-4.328s-10.417 2.605-7.359 17.765c2.818 13.952 49.317 7.485 64.326 3.308.352-.1.692-.201 1.019-.301-1.195 8.882 7.171 21.563 14.493 33.226 6.039 9.612 11.185 19.349 11.185 19.349 3.032 1.887 13.21.793 13.21.793-6.429-18.167-25.062-70.164-25.062-70.164z" fill="#35488B"/><path d="M193.116 73.477s5.196 16.632 12.996 20.344c0 0 .742-5.045-.529-8.882a124.668 124.668 0 002.743-2.177c2.642-2.202 3.988-3.61 3.988-3.61l-1.157-8.103-.793-5.498a25.084 25.084 0 01-3.887 3.624c-6.731 5.02-13.361 4.302-13.361 4.302z" fill="#FFB27D"/><path d="M206.477 69.162s-2.617 7.196 1.85 13.6c2.642-2.202 3.988-3.61 3.988-3.61l-1.158-8.103c-2.805-1.56-4.68-1.887-4.68-1.887z" fill="#ED975D"/><path d="M214.289 80.736s-11.499-7.636-6.642-14.72c4.868-7.095 6.655-12.845 14.204-8.278 7.548 4.567 7.108 8.24 6.064 11.009-1.057 2.755-10.506 13.788-13.626 11.99z" fill="#FFB27D"/><path d="M208.992 51.171c-.05-.189-.264-.44-.843-.755 0 0 .629-.075 1.271.227.541-.78 1.711-2.064 3.321-1.724 0 0-.968.038-1.509.893 2.503-.918 6.68-.44 16.141 5.184 12.468 7.397 4.051 13.738 1.887 13.927-2.176.189-5.057-4.643-8.303-5.926-3.259-1.283-6.102 3.02-7.473 3.133-1.372.113-.403-.805-1.523-2.164-1.119-1.359-2.44.981-2.793 2.768-.352 1.774-3.346 2.88-3.346 2.88l-.931-3.157c-.931-3.158 1.724-13.323 3.598-14.846.164-.176.327-.301.503-.44z" fill="#2B478B"/><path d="M207.118 101.18c-3.46 8.178-6.618 13.411-7.02 14.091-1.485 2.466-3.083 4.718-4.555 6.693-.05.063-.088.126-.138.189-2.881 3.874-7.284 4.944-7.146 5.913.277 1.95-4.642 6.617-12.757 8.693-9.411 2.403-20.331 3.56-23.086.377-.919-1.069-1.233-3.032-1.132-5.472.201-5.146 6.68-25.867 6.68-25.867 11.084-33.54 42.813-33.54 42.813-33.54s-.616 8.039 7.171 10.82c.013.024 1.824 11.8-.83 18.103z" fill="#FFB93E"/><path d="M225.75 125.046s4.768 1.686 6.076 2.504c1.309.818 4.315 4.932 4.655 6.378.34 1.447.73 5.687.491 6.392-.252.704-3.9-2.013-4.706-4.58-.805-2.566-2.893-3.246-2.818-3.107.076.138 1.145 3.422.919 3.56-.227.138-1.195.39-2.076-1.447-.881-1.837-2.617-3.17-2.29-5.057.327-1.888-.251-4.643-.251-4.643z" fill="#FFB27D"/><path d="M188.41 128.342c.277 1.95-4.806 6.354-12.921 8.43-6.768-13.462 6.102-44.285 6.102-44.285l13.94 29.502c-2.932 3.95-7.259 5.36-7.121 6.353z" fill="#FFA412"/><path d="M200.085 115.271c-1.485 2.466-3.083 4.718-4.555 6.693-.05.063-.088.126-.138.189-1.912-.743-3.812-2.202-4.768-3.561-2.202-3.095-2.378-21.74-2.378-21.74s8.995 11.109 11.839 18.419z" fill="#FFA412"/><path d="M227.576 125.461s-21.74-6.089-32.9-8.756c.982-13.172 4.202-52.978-16.066-37.038 0 0-1.534 42.662 8.291 51.305 0 0 31.541.667 37.554.302 0 0 1.762-.919 2.202-1.522 1.397-1.938.919-4.291.919-4.291z" fill="#FFB93E"/><path d="M185.628 156.465v48.801c0 2.458-2.016 4.389-4.384 4.389H98.737c-2.192 0-4.034-1.58-4.384-3.687-.088-.263-.088-.526-.088-.79v-48.8c0-2.458 2.016-4.389 4.384-4.389h82.508c2.455.088 4.471 2.107 4.471 4.476z" fill="#6B48A6"/><path d="M113.202 152.077c-8.242.175-9.294 3.072-9.645 5.442-.35 2.37 0 42.744 0 42.744h-1.227s-.702-38.268 0-42.744c.701-4.389 3.507-5.442 3.507-5.442h7.365z" fill="#3D0B34"/><path d="M98.91 160.327c0 .702-.438 1.317-1.052 1.317-.614 0-1.052-.615-1.052-1.317s.438-1.316 1.052-1.316c.526 0 1.052.614 1.052 1.316zm1.315 4.389a.692.692 0 01-.701.702.692.692 0 01-.702-.702c0-.351.263-.702.701-.702.351 0 .702.351.702.702z" fill="#fff"/><path d="M204.039 156.465v48.801c0 .615-.088 1.141-.351 1.668-.613 1.58-2.192 2.721-4.121 2.721H117.06c-2.455 0-4.384-2.019-4.384-4.389v-48.801c0-2.457 2.016-4.388 4.384-4.388h82.507c2.543 0 4.472 2.019 4.472 4.388z" fill="#8B69C5"/><path d="M150.339 171.491l-4.424-.653-1.356 9.204 4.424.654 1.356-9.205z" fill="#fff"/><path d="M204.039 156.465v48.801c0 .615-.088 1.141-.351 1.668h-84.875s44.367-8.075 59.535-54.857h21.307c2.455 0 4.384 2.019 4.384 4.388z" fill="#CBB3FF"/><path d="M170.545 177.355c2.761 0 4.998-3.065 4.998-6.846s-2.237-6.846-4.998-6.846c-2.76 0-4.997 3.065-4.997 6.846s2.237 6.846 4.997 6.846zm2.982 10.971c.678 0 1.227-.746 1.227-1.667 0-.922-.549-1.668-1.227-1.668s-1.228.746-1.228 1.668c0 .921.55 1.667 1.228 1.667zm-26.92-2.37c0 1.58-.964 2.897-2.192 2.897-1.227 0-2.192-1.317-2.192-2.897 0-1.58.965-2.896 2.192-2.896 1.228 0 2.192 1.316 2.192 2.896zm-9.644 6.846c.581 0 1.052-.668 1.052-1.492s-.471-1.492-1.052-1.492c-.581 0-1.052.668-1.052 1.492s.471 1.492 1.052 1.492zm1.753-40.725s-21.657.702-23.498 2.721c-1.841 2.106-2.455 26.068-2.455 26.068v-24.401c0-2.457 2.017-4.388 4.384-4.388h21.569z" fill="#fff"/><path d="M124.775 183.938c0 1.053-.526 1.843-1.228 1.843-.701 0-1.227-.878-1.227-1.843 0-1.054.526-1.844 1.227-1.844.702 0 1.228.79 1.228 1.844z" fill="#FFA299"/><path d="M114.079 209.742H98.647c-2.192 0-4.034-1.579-4.384-3.686h17.448c.088 0 .351 2.107 2.368 3.686z" fill="#8384EE"/><path d="M135.148 160.91l-5.31 1.163 1.911 8.745 5.311-1.163-1.912-8.745z" fill="#fff"/><path d="M134.852 161.601l-4.54.994 1.649 7.546 4.54-.994-1.649-7.546z" fill="#B6BA2C"/><path d="M67.772 114l3.862-3.852c1.405-1.401 1.405-3.502 0-4.903-1.404-1.401-3.51-1.401-4.915 0l-3.862 3.852-3.862-3.852c-1.404-1.401-3.51-1.401-4.915 0-1.404 1.401-1.404 3.502 0 4.903L57.942 114l-3.862 3.853c-1.404 1.401-1.404 3.502 0 4.903 1.404 1.401 3.51 1.401 4.915 0l3.862-3.853 3.862 3.853c1.404 1.401 3.51 1.401 4.915 0 1.405-1.401 1.405-3.502 0-4.903L67.772 114zm-17.536 34.849l2.193-2.193c.798-.797.798-1.993 0-2.791-.797-.797-1.993-.797-2.79 0l-2.194 2.193-2.193-2.193c-.797-.797-1.993-.797-2.79 0-.798.798-.798 1.994 0 2.791l2.192 2.193-2.192 2.193c-.798.797-.798 1.994 0 2.791.797.797 1.993.797 2.79 0l2.193-2.193 2.193 2.193c.798.797 1.994.797 2.791 0 .798-.797.798-1.994 0-2.791l-2.193-2.193z" fill="#CAE0FF"/></svg>