<svg width="275" height="240" fill="none" xmlns="http://www.w3.org/2000/svg"><path d="M274.473 191.385c0-.225 0-.45-.036-.682-8.802-81.856-80.978-72.176-132.06-138.184-51.082-66.008-97.695-36.091-97.695-36.091-54.573 39.61-16.689 85.381-17.603 107.389-.914 22.007-29.024 49.29-16.725 95.939l.065.246a27.035 27.035 0 0024.917 19.969h192.945a46.214 46.214 0 0046.192-48.586z" fill="#E7E8FA"/><path d="M193.111 229.341c-3.577.979-14.047-5.021-16.602-5.079-2.655 1.451-2.946 8.337-3.446 10.543-.501 2.205 22.747-1.488 21.093 1.226s-16.805.268-18.191.726c-.725.232-.812 1.632-.319 3.098h26.847a25.109 25.109 0 004.1-4.55 34.654 34.654 0 00-2.322 4.55h5.652a4.063 4.063 0 011.292-1.727c.348-.218.929.551 1.77 1.727h25.201c1.632-1.633 2.604-3.004 2.532-3.469-.211-1.335-13.453.269-15.862-1.574-2.409-1.843-2.322-3.36.762-4.463 3.084-1.102 14.026 3.991 17.415 1.452 3.388-2.54 6.349-8.591 6-10.471-.348-1.879-7.481 3.44-14.156 4.484-6.676 1.045-11.276-.268-10.224-2.597 1.052-2.329 16.348-1.669 20.861-4.499 4.513-2.83 5.137-11.181 4.354-12.386-.784-1.204-17.466 9.905-21.188 9.31-3.722-.595-1.589-3.193 2.663-3.766 4.252-.574 15.064-5.08 16.036-8.171.972-3.091-.559-9.919-1.894-9.708-1.335.21-4.121 5.71-7.111 8.613-2.989 2.902-6.726 4.644-7.408.878-.682-3.766 10.826-6.785 12.553-8.708 1.727-1.922-.378-9.614-1.372-10.884-.994-1.269-16.435-4.774-19.127-3.054-3.018 4.201-3.562 16.689-2.242 18.8 1.321 2.112.559 6.567-2.663 3.766-3.054-3.534.886-19.628.813-20.419-.073-.79-3.127-.972-6.189 1.161-3.062 2.134-2.177 13.925-.69 17.611 1.488 3.686 2.997 12.792-3.069 7.8s-2.481-20.658-4.513-21.899c-2.032-1.24-6.393 3.171-8.069 4.847-1.676 1.676-1.4 6.117.566 9.919 1.966 3.802 11.08 12.336 6.661 13.627-4.419 1.292-10.361-18.866-12.016-19.49-1.654-.624-5.623 2.061-7.256 6.843-1.553 4.535 15.042 15.288 12.785 18.379-6.675 1.045-11.892-13.285-14.584-13.895-2.692-.609-5.145 4.484-6.422 7.8-1.277 3.316.406 4.985 5.079 8.12 4.673 3.134 14.476 3.28 11.9 5.529zm19.649-9.368c-.5 3.331-3.809.458-3.809.458.298-3.643 4.31-3.788 3.809-.458zm-9.207 3.193c3.715-2.329 4.012 3.301 1.632 6.734a3.809 3.809 0 01-2.529 1.787 3.821 3.821 0 01-3.022-.677c-2.423-2.141.203-5.515 3.919-7.844z" fill="#80BC46"/><path d="M26.716 204.649c2.997-1.756 9.186-.501 5.145 3.882-5.08 4.114-27.356-2.076-28.466-2.003-1.11.073-1.45 4.354 1.357 8.707 2.808 4.354 19.352 3.628 24.555 1.698 5.202-1.93 17.98-3.628 10.753 4.622s-28.937 2.583-30.751 5.377c-1.814 2.794 4.158 9.055 6.429 11.457a6.076 6.076 0 003.73 1.589h3.373a21.232 21.232 0 006.756-1.952c5.384-2.583 17.675-14.954 19.308-8.707.936 3.563-7.982 7.517-15.905 10.681h18.923c2.032-1.487 3.701-2.177 4.71-1.451a6.64 6.64 0 010 1.451h30.221a32.963 32.963 0 00-10.95-13.961c17.415 11.182 25.469 3.737 27.965-.478 2.598-4.398.421-15.478-2.118-16.863-2.54-1.386-2.903 6.856-9.136 11.384-6.233 4.528-11.61 1.328-12.574-.384-.965-1.713 14.867-6.988 13.786-18.14-1.081-11.153-13.112-23.35-14.984-23.111-1.872.24-.196 18.786-2.902 22.073-2.707 3.287-4.789 3.098-6.19-1.255-1.4-4.354 6.154-19.403 2.714-24.286-3.439-4.883-11.718-9.223-14.36-8.823-2.64.399 4.478 10.586 5.66 19.954 1.183 9.367-.849 15.723-4.063 14.156-3.214-1.567-1.633-22.885-5.391-29.307-3.759-6.422-15.39-7.641-17.103-6.639-1.712 1.001 13.061 24.794 12.103 29.974-.957 5.181-4.535 2.076-5.151-3.882-.617-5.957-6.407-21.238-10.732-22.733-4.325-1.494-13.86.37-13.627 2.242.232 1.872 7.844 6.03 11.798 10.326 3.955 4.295 6.19 9.585.907 10.383-5.282.798-9.019-15.397-11.61-17.893-2.59-2.496-13.43.116-15.237 1.451-1.807 1.335-7.386 22.711-5.13 26.557 5.776 4.368 23.19 5.66 26.187 3.904zm41.606 23.038c4.688 3.461 1.32 7.8 1.32 7.8-3.098 3.294-7.69-.515-10.789-5.805-3.098-5.29 4.782-5.457 9.47-1.995zM54.79 216.701c4.629.834.471 5.34.471 5.34-5.064-.566-5.093-6.182-.471-5.34z" fill="url(#paint0_linear)"/><path d="M181.451 0H88.124a15.854 15.854 0 00-15.84 15.84v208.313a15.863 15.863 0 0014.896 15.811h94.271a15.861 15.861 0 0015.847-15.84V15.84A15.863 15.863 0 00181.451 0z" fill="#fff"/><path d="M181.451 3.52h-15.202l-2.764 4.89a8.185 8.185 0 01-7.118 4.15h-43.181a8.192 8.192 0 01-7.125-4.15l-2.758-4.89h-15.18A12.335 12.335 0 0075.79 15.853v208.299a12.335 12.335 0 0012.335 12.335h93.327a12.336 12.336 0 0012.335-12.335V15.84a12.335 12.335 0 00-12.335-12.32z" fill="url(#paint1_linear)"/><path d="M149.466 7.924h-29.024a1.183 1.183 0 01-1.175-1.176 1.183 1.183 0 011.175-1.175h29.024a1.183 1.183 0 011.176 1.175 1.184 1.184 0 01-1.176 1.176z" fill="#E7E8FA"/><path d="M107.657 133.932H63.062a4.106 4.106 0 00-4.107 4.107v4.106a4.106 4.106 0 004.107 4.107h44.595a4.107 4.107 0 004.107-4.107v-4.106a4.107 4.107 0 00-4.107-4.107zm-.515 18.045H63.577a4.622 4.622 0 00-4.622 4.622v34.321a4.622 4.622 0 004.622 4.622h43.565a4.622 4.622 0 004.622-4.622v-34.321a4.623 4.623 0 00-4.622-4.622z" fill="#fff"/><path d="M93.174 141.659H65.449a1.213 1.213 0 01-.857-2.068c.227-.228.535-.355.857-.355h27.725a1.21 1.21 0 011.12 1.658 1.217 1.217 0 01-1.12.765zm0 21.979H65.449a1.21 1.21 0 01-1.12-.748 1.214 1.214 0 010-.927 1.21 1.21 0 011.12-.742h27.725a1.202 1.202 0 011.212 1.205 1.214 1.214 0 01-1.212 1.212zm0 12.124H65.449a1.209 1.209 0 01-1.212-1.211 1.21 1.21 0 011.212-1.212h27.725a1.21 1.21 0 01.86 2.058 1.213 1.213 0 01-.86.365zm0 12.082H65.449a1.213 1.213 0 010-2.424h27.725a1.217 1.217 0 011.117.76 1.213 1.213 0 01-1.117 1.664zm11.551-18.264H65.449a1.21 1.21 0 01-1.212-1.211 1.21 1.21 0 011.212-1.212h39.276a1.212 1.212 0 110 2.423zm1.212-27.921h-7.256a1.213 1.213 0 01-.857-2.068c.228-.228.536-.355.857-.355h7.256a1.211 1.211 0 110 2.423z" fill="#A1C2FF"/><path d="M102.643 188.098l-2.902 1.509a.36.36 0 01-.39-.027.359.359 0 01-.14-.365l.544-3.2a.373.373 0 00-.101-.326l-2.33-2.264a.37.37 0 01.204-.632l3.214-.464a.384.384 0 00.283-.203l1.451-2.902a.365.365 0 01.33-.203.362.362 0 01.33.203l1.452 2.902a.347.347 0 00.275.203l3.215.464a.373.373 0 01.203.632l-2.322 2.264a.373.373 0 00-.109.326l.552 3.2a.367.367 0 01-.147.363.369.369 0 01-.39.029l-2.903-1.509a.367.367 0 00-.319 0z" fill="url(#paint2_linear)"/><path opacity=".08" d="M175.878 29.634h-43.427a8.214 8.214 0 00-8.214 8.213v128.505a8.213 8.213 0 008.214 8.213h43.427a8.214 8.214 0 008.214-8.213V37.847a8.214 8.214 0 00-8.214-8.213z" fill="#fff"/><path d="M213.702 196.157c11.113-11.114 11.113-29.132 0-40.246-11.114-11.113-29.133-11.113-40.246 0-11.114 11.114-11.114 29.132 0 40.246 11.113 11.114 29.132 11.114 40.246 0z" fill="#323197"/><path d="M193.735 140.535v35.648h-35.649a35.506 35.506 0 0042.466 34.669A35.507 35.507 0 00228.404 183a35.504 35.504 0 00-34.669-42.465z" fill="url(#paint3_linear)"/><path d="M193.583 195.688c10.856 0 19.656-8.801 19.656-19.657s-8.8-19.656-19.656-19.656c-10.856 0-19.657 8.8-19.657 19.656 0 10.856 8.801 19.657 19.657 19.657z" fill="url(#paint4_linear)"/><path d="M193.583 189.418c7.393 0 13.387-5.993 13.387-13.387s-5.994-13.387-13.387-13.387c-7.394 0-13.388 5.993-13.388 13.387s5.994 13.387 13.388 13.387z" fill="#A1C2FF"/><path d="M197.269 53.136H148a5.573 5.573 0 00-5.572 5.572v71.849A5.575 5.575 0 00148 136.13h49.269V53.136z" fill="#323197" opacity=".31"/><path d="M212.695 47.68H152.84a5.573 5.573 0 00-5.572 5.572v71.885a5.573 5.573 0 005.572 5.573h59.855a5.573 5.573 0 005.573-5.573V53.252a5.573 5.573 0 00-5.573-5.573z" fill="url(#paint5_linear)"/><path d="M182.176 62.641V47.68H152.84a5.571 5.571 0 00-5.572 5.573v9.39h34.908z" fill="#A1C2FF"/><path d="M165.077 57.615v2.41h-.812V53.87h2.27c.674 0 1.201.172 1.582.516.383.344.575.799.575 1.366 0 .597-.188 1.058-.562 1.382-.373.322-.907.482-1.603.482h-1.45zm0-.663h1.458c.435 0 .767-.102.998-.305.231-.206.347-.502.347-.888 0-.366-.116-.66-.347-.88-.231-.22-.548-.334-.951-.342h-1.505v2.415zm1.446 10.583h-1.446v2.49h-.817V63.87h2.039c.693 0 1.226.158 1.598.474.375.315.562.775.562 1.378 0 .383-.104.717-.313 1.002a1.838 1.838 0 01-.862.639l1.446 2.613v.05h-.871l-1.336-2.49zm-1.446-.664h1.247c.403 0 .723-.104.96-.313.239-.208.359-.487.359-.837 0-.38-.114-.672-.342-.875-.226-.203-.553-.306-.981-.309h-1.243v2.334z" fill="#fff"/><path d="M201.238 58.419h-2.579l-.58 1.607h-.837l2.351-6.157h.711l2.355 6.157h-.833l-.588-1.607zm-2.334-.668h2.093l-1.049-2.88-1.044 2.88zm.812 9.209l1.607-3.091h.921l-2.122 3.86v2.297h-.812V67.73l-2.123-3.861h.93l1.599 3.091z" fill="#93A5C9"/><path d="M163.035 71h-7.706c-.91 0-1.647.738-1.647 1.647v7.706c0 .91.737 1.647 1.647 1.647h7.706c.91 0 1.647-.737 1.647-1.647v-7.706c0-.91-.737-1.647-1.647-1.647zm15.629 0h-7.706c-.909 0-1.647.738-1.647 1.647v7.706c0 .91.738 1.647 1.647 1.647h7.706c.91 0 1.647-.737 1.647-1.647v-7.706c0-.91-.737-1.647-1.647-1.647zm15.623 0h-7.706c-.91 0-1.647.738-1.647 1.647v7.706c0 .91.737 1.647 1.647 1.647h7.706c.909 0 1.647-.737 1.647-1.647v-7.706c0-.91-.738-1.647-1.647-1.647zm15.622 0h-7.706c-.91 0-1.647.738-1.647 1.647v7.706c0 .91.737 1.647 1.647 1.647h7.706c.909 0 1.647-.737 1.647-1.647v-7.706c0-.91-.738-1.647-1.647-1.647zm-46.874 17.16h-7.706c-.91 0-1.647.738-1.647 1.648v7.706c0 .91.737 1.647 1.647 1.647h7.706c.91 0 1.647-.738 1.647-1.647v-7.706c0-.91-.737-1.647-1.647-1.647zm15.629 0h-7.706c-.909 0-1.647.738-1.647 1.648v7.706c0 .91.738 1.647 1.647 1.647h7.706c.91 0 1.647-.738 1.647-1.647v-7.706c0-.91-.737-1.647-1.647-1.647z" fill="#A1C2FF"/><path d="M194.287 88.16h-7.706c-.91 0-1.647.738-1.647 1.648v7.706c0 .91.737 1.647 1.647 1.647h7.706c.909 0 1.647-.738 1.647-1.647v-7.706c0-.91-.738-1.647-1.647-1.647z" fill="#FF8D02"/><path d="M209.909 88.16h-7.706c-.91 0-1.647.738-1.647 1.648v7.706c0 .91.737 1.647 1.647 1.647h7.706c.909 0 1.647-.738 1.647-1.647v-7.706c0-.91-.738-1.647-1.647-1.647zm-46.874 17.168h-7.706c-.91 0-1.647.738-1.647 1.647v7.706c0 .91.737 1.647 1.647 1.647h7.706c.91 0 1.647-.737 1.647-1.647v-7.706c0-.909-.737-1.647-1.647-1.647zm15.629 0h-7.706c-.909 0-1.647.738-1.647 1.647v7.706c0 .91.738 1.647 1.647 1.647h7.706c.91 0 1.647-.737 1.647-1.647v-7.706c0-.909-.737-1.647-1.647-1.647zm15.623 0h-7.706c-.91 0-1.647.738-1.647 1.647v7.706c0 .91.737 1.647 1.647 1.647h7.706c.909 0 1.647-.737 1.647-1.647v-7.706c0-.909-.738-1.647-1.647-1.647zm15.622 0h-7.706c-.91 0-1.647.738-1.647 1.647v7.706c0 .91.737 1.647 1.647 1.647h7.706c.909 0 1.647-.737 1.647-1.647v-7.706c0-.909-.738-1.647-1.647-1.647z" fill="#A1C2FF"/><path opacity=".08" d="M115.058 30.512H85.142a2.423 2.423 0 00-2.424 2.423v3.955a2.423 2.423 0 002.424 2.423h29.916a2.424 2.424 0 002.424-2.423v-3.955a2.424 2.424 0 00-2.424-2.423zm0 13.205H85.142a2.423 2.423 0 00-2.424 2.424v3.954a2.423 2.423 0 002.424 2.424h29.916a2.424 2.424 0 002.424-2.424v-3.954a2.424 2.424 0 00-2.424-2.424z" fill="#fff"/><path d="M85.802 49.29a40.088 40.088 0 00-13.518 2.337v75.716a40.195 40.195 0 0046.54-14.922 40.197 40.197 0 00-33.022-63.13z" fill="#323197" opacity=".31"/><path d="M85.802 127.038c20.742 0 37.557-16.815 37.557-37.557s-16.815-37.557-37.557-37.557S48.245 68.74 48.245 89.481s16.815 37.557 37.557 37.557z" fill="#A1C2FF"/><path d="M90.511 89.031s-2.75 7.329-.914 12.132c.682 4.586-12.335 1.147-14.425-4.578.682-3.664 3.2-6.182 3.432-13.51.232-7.33 12.146 1.146 11.907 5.956z" fill="url(#paint6_linear)"/><path d="M77.9 88.487c.239-.97.413-1.953.522-2.946l7.257-3.388c2.604 1.879 4.904 4.738 4.803 6.878a27.952 27.952 0 00-1.51 7.06c-6.726-1.364-9.766-5.137-11.072-7.604z" fill="#FFA26E" opacity=".32"/><path d="M96.062 77.741s3.214 9.063.109 12.72c-4.855 5.718-12.408 2.59-15.427-.856-3.018-3.447-2.902-17.8 2.177-20.063 5.08-2.264 10.986-.646 13.14 8.199z" fill="url(#paint7_linear)"/><path d="M79.649 74.178c.094-.297.188-.587.297-.863l2.736-2.903 8.562-.53a9.875 9.875 0 013.25 3.629c-1.922.725-5.412 1.756-8.257 1.415-2.844-.341-2.467 0-2.467 0a6.42 6.42 0 01-.399 5.434c-1.575 2.765-3.156 4.144-2.365 6.422-.69-1.284-1.234-10.318-1.357-12.604z" fill="#FFA26E" opacity=".32"/><path d="M82.16 73.953s1.806 2.866-.959 7.982a7.517 7.517 0 000 4.782c.138 1.182-2.496-1.256-2.902-2.308-.392-.79-2.83.327-3.592-.725-.761-1.052.566-2.242.566-2.242s-3.555-3.686-3.163-6.712c.391-3.026 3.954-2.772 3.954-2.772s-1.98-.922-2.503-1.974c-.4-.921 2.634.791 2.902 1.452a2.358 2.358 0 01.53-1.974c.522-.66.13 1.974.13 1.974a11.704 11.704 0 012.236-3.556c1.712-1.98 4.745-.66 7.118-2.111 2.372-1.452 1.973-4.216 3.555-4.354 1.582-.138 4.97 2.438 4.281 7.183.39-1.483.522-3.021.392-4.55.595-.297 2.177 4.151-.595 6.227 0 0 1.582-.392 2.474-2.67.69-1.575 1.676 3.562-3.853 5.238-5.529 1.676-8.932-.08-10.572 1.11z" fill="url(#paint8_linear)"/><path d="M82.769 85.846a2.851 2.851 0 105.703 0 2.851 2.851 0 00-5.703 0z" fill="#FE746A"/><path d="M79.076 85.215s-2.475-3.541-3.933-1.59c-1.459 1.953 4.484 5.493 4.644 3.846a3.055 3.055 0 00-.712-2.256z" fill="url(#paint9_linear)"/><path d="M78.488 86.514s-1.241-2.271-2.816-2.271c-.45-.4.835-.247 1.531.29.697.537 1.778 1.516 1.285 1.98z" fill="#FF7D5A"/><path d="M78.531 86.1s-1.45-1.451-2.235-.95c-.362.587 2.57 2.038 2.235.95z" fill="#FF7D5A"/><mask id="a" maskUnits="userSpaceOnUse" x="51" y="55" width="69" height="69"><path d="M85.802 123.367c18.714 0 33.885-15.171 33.885-33.886 0-18.714-15.171-33.885-33.885-33.885-18.715 0-33.886 15.17-33.886 33.885 0 18.715 15.171 33.886 33.886 33.886z" fill="#fff"/></mask><g mask="url(#a)"><path d="M102.961 123.455c-.454-1.186-1.324-17.577-1.324-19.791 0-2.439-2.634-3.932-2.634-3.932-1.463-.946-5.918-1.841-7.366-2.19-.872-.21-1.668-.46-2.37-.746 0 0 .263.597-1.712 1.144-7.243.299-11.983-2.585-11.983-2.585s-11.186 1.888-13.168 3.979c-3.658 3.97-4.463 22.727-4.587 24.121h45.144z" fill="url(#paint10_linear)"/></g><path d="M114.26 80.97c5.346 0 9.679-4.334 9.679-9.68s-4.333-9.68-9.679-9.68-9.68 4.334-9.68 9.68 4.334 9.68 9.68 9.68z" fill="url(#paint11_linear)"/><path d="M110.443 71.443l3.084 3.076 5.834-5.826" stroke="#fff" stroke-width="2" stroke-linecap="round" stroke-linejoin="round"/><path d="M122.771 205.664H72.284v16.283h50.487a2.621 2.621 0 001.867-.769 2.63 2.63 0 00.774-1.865v-11.007a2.641 2.641 0 00-2.641-2.642z" fill="#323197" opacity=".31"/><path d="M119.687 202.588H61.16a2.64 2.64 0 00-2.64 2.641v11a2.64 2.64 0 002.64 2.641h58.527a2.641 2.641 0 002.642-2.641v-11a2.641 2.641 0 00-2.642-2.641z" fill="#fff"/><path d="M69.882 216.744a5.653 5.653 0 11-.002-11.305 5.653 5.653 0 01.002 11.305zm0-9.534a3.887 3.887 0 00-3.814 4.651 3.892 3.892 0 005.308 2.829 3.888 3.888 0 00-1.494-7.48z" fill="#A1C2FF"/><path d="M71.058 211.941h-1.452a.443.443 0 01-.442-.443v-2.859a.443.443 0 01.885 0v2.417h.987a.442.442 0 01.022.885z" fill="#A1C2FF"/><path d="M101.571 213.787v2.756H99.96v-7.821h3.051c.587 0 1.103.108 1.547.323.447.214.791.521 1.031.918.24.394.36.843.36 1.348 0 .766-.263 1.372-.79 1.816-.523.44-1.248.66-2.175.66h-1.413zm0-1.305h1.44c.426 0 .75-.1.972-.301.225-.2.338-.487.338-.859 0-.383-.113-.693-.338-.929-.226-.237-.537-.358-.935-.366h-1.477v2.455zm-.07 9.24l2.557 6.381 2.557-6.381h1.337v7.821h-1.031v-3.046l.097-3.287-2.568 6.333h-.789l-2.562-6.317.102 3.271v3.046h-1.032v-7.821h1.332z" fill="#5A6A90"/><path d="M126.508 200.607a1.76 1.76 0 01-1.09 1.63 1.763 1.763 0 11.578-2.876 1.748 1.748 0 01.512 1.246z" fill="#fff"/><path opacity=".44" d="M172.279 142.297h-32.122a2.422 2.422 0 00-2.424 2.42 2.422 2.422 0 002.424 2.42h32.122a2.422 2.422 0 002.424-2.42 2.422 2.422 0 00-2.424-2.42zm-22.443 12.539h-9.687a2.415 2.415 0 01-2.416-2.416 2.416 2.416 0 012.416-2.424h9.687a2.41 2.41 0 011.711.711 2.407 2.407 0 01.705 1.713v0a2.414 2.414 0 01-2.416 2.416z" stroke="#fff" stroke-miterlimit="10"/><path d="M60.573 55.45a2.35 2.35 0 11-4.702.015 2.35 2.35 0 014.702-.015z" fill="#A1C2FF"/><path d="M192.973 140.041c13.721 0 31.738-5.166 37.303-6.864a1.297 1.297 0 011.54.57c.1.171.159.364.173.562v38.152c0 29.474-38.414 53.375-38.414 53.375s-38.42-23.901-38.42-53.375v-36.382a1.28 1.28 0 01.54-.967 1.292 1.292 0 011.093-.186c5.296 1.269 22.486 5.115 36.185 5.115z" fill="#93B1C2"/><path d="M192.973 140.041c13.721 0 31.738-5.166 37.303-6.864a1.297 1.297 0 011.54.57c.1.171.159.364.173.562v38.152c0 29.474-38.414 53.375-38.414 53.375s-38.42-23.901-38.42-53.375v-36.382a1.28 1.28 0 01.54-.967 1.292 1.292 0 011.093-.186c5.296 1.269 22.486 5.115 36.185 5.115z" fill="#323197"/><path d="M193.575 146.31c10.289 0 23.082-3.374 29.503-6.037 1.916-.791 4.093.494 4.093 2.424v30.613c0 25.78-33.596 46.678-33.596 46.678S159.98 199.09 159.98 173.31v-29.285c0-1.851 2.01-3.128 3.904-2.482 6.363 2.17 19.301 4.767 29.691 4.767z" fill="url(#paint12_linear)"/><path d="M193.931 154.618v57.221s-26.724-17.022-26.724-37.252v-23.219a2.094 2.094 0 011.888-1.943c.327-.031.658.015.964.136 4.992 1.763 15.564 5.057 23.872 5.057z" fill="url(#paint13_linear)"/><path d="M193.931 154.618v57.221s27.667-17.022 27.667-37.252v-23.219a2.087 2.087 0 00-1.859-1.938 2.077 2.077 0 00-.956.124c-5.181 1.683-16.45 5.064-24.852 5.064z" fill="#A1C2FF"/><path d="M196.884 168.354h-5.543c-.91 0-1.647.738-1.647 1.647v18.677c0 .91.737 1.647 1.647 1.647h5.543c.91 0 1.647-.737 1.647-1.647v-18.677c0-.909-.737-1.647-1.647-1.647z" fill="#ED6B64"/><path d="M183.069 176.771v5.137c0 .91.737 1.647 1.647 1.647h18.793c.91 0 1.647-.737 1.647-1.647v-5.137c0-.91-.737-1.647-1.647-1.647h-18.793c-.91 0-1.647.737-1.647 1.647z" fill="#ED6B64"/><defs><linearGradient id="paint0_linear" x1="-.119" y1="192.757" x2="105.454" y2="220.335" gradientUnits="userSpaceOnUse"><stop stop-color="#0F5950"/><stop offset="1" stop-color="#25734B"/></linearGradient><linearGradient id="paint1_linear" x1="24708.9" y1="118755" x2="63536.3" y2="24454" gradientUnits="userSpaceOnUse"><stop stop-color="#DDE1EE"/><stop offset="1" stop-color="#8182EE"/></linearGradient><linearGradient id="paint2_linear" x1="97.245" y1="184.317" x2="108.39" y2="184.317" gradientUnits="userSpaceOnUse"><stop stop-color="#FF8D02"/><stop offset="1" stop-color="#FFC757"/></linearGradient><linearGradient id="paint3_linear" x1="20025.9" y1="28570.4" x2="26973.9" y2="28570.4" gradientUnits="userSpaceOnUse"><stop stop-color="#FF8D02"/><stop offset="1" stop-color="#FFC757"/></linearGradient><linearGradient id="paint4_linear" x1="173.926" y1="176.031" x2="213.246" y2="176.031" gradientUnits="userSpaceOnUse"><stop stop-color="#D5E0F5"/><stop offset="1" stop-color="#fff"/></linearGradient><linearGradient id="paint5_linear" x1="156.468" y1="136.834" x2="196.957" y2="63.483" gradientUnits="userSpaceOnUse"><stop stop-color="#D8E2F6"/><stop offset=".01" stop-color="#DAE3F6"/><stop offset=".12" stop-color="#EBF0FA"/><stop offset=".26" stop-color="#F6F9FD"/><stop offset=".46" stop-color="#FDFEFF"/><stop offset="1" stop-color="#fff"/></linearGradient><linearGradient id="paint6_linear" x1="79.511" y1="100.489" x2="85.461" y2="89.496" gradientUnits="userSpaceOnUse"><stop stop-color="#FFB58E"/><stop offset=".33" stop-color="#FEB38B"/><stop offset=".59" stop-color="#FCAD81"/><stop offset=".83" stop-color="#F9A370"/><stop offset="1" stop-color="#F5985F"/></linearGradient><linearGradient id="paint7_linear" x1="4782.66" y1="6502.18" x2="4963.53" y2="7200.8" gradientUnits="userSpaceOnUse"><stop stop-color="#FFB58E"/><stop offset=".33" stop-color="#FEB38B"/><stop offset=".59" stop-color="#FCAD81"/><stop offset=".83" stop-color="#F9A370"/><stop offset="1" stop-color="#F5985F"/></linearGradient><linearGradient id="paint8_linear" x1="88.066" y1="66.001" x2="75.941" y2="82.08" gradientUnits="userSpaceOnUse"><stop stop-color="#B62C01"/><stop offset="1" stop-color="#7C0C0A"/></linearGradient><linearGradient id="paint9_linear" x1="1368.03" y1="1339.22" x2="1388.94" y2="1447.58" gradientUnits="userSpaceOnUse"><stop stop-color="#FFB58E"/><stop offset=".33" stop-color="#FEB38B"/><stop offset=".59" stop-color="#FCAD81"/><stop offset=".83" stop-color="#F9A370"/><stop offset="1" stop-color="#F5985F"/></linearGradient><linearGradient id="paint10_linear" x1="56.471" y1="123.875" x2="65.36" y2="93.978" gradientUnits="userSpaceOnUse"><stop stop-color="#38D1A6"/><stop offset="1" stop-color="#32CAB5"/></linearGradient><linearGradient id="paint11_linear" x1="4093.71" y1="5017.91" x2="4610.21" y2="5017.91" gradientUnits="userSpaceOnUse"><stop stop-color="#FF8D02"/><stop offset="1" stop-color="#FFC757"/></linearGradient><linearGradient id="paint12_linear" x1="19135.3" y1="32589.2" x2="25357.2" y2="32589.2" gradientUnits="userSpaceOnUse"><stop stop-color="#FFC757"/><stop offset=".589" stop-color="#FF8D02"/></linearGradient><linearGradient id="paint13_linear" x1="7980.48" y1="25539.8" x2="8964.72" y2="25539.8" gradientUnits="userSpaceOnUse"><stop stop-color="#D5E0F5"/><stop offset="1" stop-color="#fff"/></linearGradient></defs></svg>