<svg width="314" height="174" fill="none" xmlns="http://www.w3.org/2000/svg"><path d="M82.348 172.494s-27.184-27.874-9.872-60.652c17.311-32.778 40.542-16.283 39.431-54.441-1.111-38.158 53.453-41.417 70.818-30.348 17.364 11.07 17.255 24.396 53.111 19.999 35.856-4.397 69.315 21.31 74.829 42.811 5.513 21.502 9.923 82.631-36.249 82.697-46.172.066-192.068-.066-192.068-.066z" fill="#EBF3FA"/><g clip-path="url(#clip0)"><path d="M187.155 48.219c-1.726-2.453-3.815-4.724-5.995-6.904-2.18-2.18-4.451-4.27-6.904-5.995-13.535-10.81-30.159-16.926-47.691-16.926-20.62 0-39.969 8.296-54.594 22.921S49.05 75.29 49.05 95.91c0 17.623 6.116 34.246 16.926 47.782a70.15 70.15 0 005.995 6.813 70.001 70.001 0 006.813 5.995c13.535 10.81 30.159 16.926 47.781 16.926 20.621 0 39.97-8.296 54.595-22.921 14.625-14.626 22.921-33.974 22.921-54.594 0-17.532-6.116-34.156-16.926-47.691zM67.52 95.909c0-15.806 6.177-30.612 17.26-41.786 11.173-11.082 25.979-17.259 41.785-17.259 12.718 0 24.799 3.997 34.792 11.355L78.966 130.7c-7.449-9.992-11.446-22.073-11.446-34.79zm100.831 41.786c-11.173 11.083-25.98 17.26-41.786 17.26-12.717 0-24.798-3.997-34.791-11.446l82.482-82.39c7.358 9.991 11.355 22.073 11.355 34.79 0 15.806-6.177 30.613-17.26 41.786z" fill="#FF696F"/></g><path d="M287.607 76.486l-24.128 39.237-.374-.156-40.657-16.763s20.608 1.347 23.282-.432c2.518-1.675 29.99-22.203 36.684-23.357.411-.072.742-.068.986.016l4.207 1.455z" fill="#739AF0"/><path d="M263.105 115.567l-40.657-16.763s20.607 1.347 23.281-.432c2.518-1.675 29.99-22.203 36.684-23.357-7.345 6.156-24.554 21.072-25.512 26.53-.915 5.199 3.78 11.284 6.204 14.022z" fill="#2B478B"/><path d="M264.092 129.669c-1.571.093-6.239.257-12.604.339-18.296.231-50.603-.207-63.623-4.863-11.679-4.177-73.4-26.454-115.958-42.359 15.685-15.605 31.68-22.194 45.277-24.47 49.662 18.236 114.558 42.267 122.564 46.241 13.164 6.54 31.011 13.837 31.011 13.837s-.031.597-.158 1.527c-.415 3.014-1.845 9.462-6.509 9.748z" fill="#E58638"/><path d="M269.961 123.065c-.031.102-.062.214-.094.319-.677 2.303-1.864 4.751-3.911 5.784a4.83 4.83 0 01-.652.27l-.003-.001v.003c-.072.022-.149.043-.231.066-.073.019-.151.04-.234.056l-.003-.001a3.023 3.023 0 01-.24.045 3.802 3.802 0 01-.251.034 3.345 3.345 0 01-.329.023l-.001.003c-.026 0-.053.002-.079.004-.027.003-.056.001-.083.004l-.001.003c-.029-.002-.058 0-.088.001l-.001.003a.572.572 0 00-.092.004c-.033.001-.066.001-.096.003l-.003-.001-.001.003c-.032.001-.065.002-.099.005-.036 0-.069.004-.105.004l-.003-.001c-.037.003-.07.003-.109.005-.037.003-.076.002-.112.005l-.245.011-.003-.001-.122.005-.003-.001-.001.003a5.304 5.304 0 01-.128.004l-.095.003c-.347.015-.733.032-1.154.045l-.239.006a307.86 307.86 0 01-3.986.112l-.482.009-.824.02c-.059 0-.118.003-.183.001-.082.004-.174.004-.259.007-.086.002-.17.002-.262.002l-.265.005c-.086.003-.177.003-.269.004l-.268.004-.275.005-.275.002c-.003-.001-.004.002-.004.002l-.277.002-.204.005a.42.42 0 00-.079.001h-.283a97.53 97.53 0 01-1.46.019c-.285.006-.575.007-.871.013l-.758.009c-.19.003-.383.004-.579.006-.755.006-1.529.01-2.322.015-.163 0-.32-.001-.477.001-.277.002-.554 0-.832.004-.252.002-.503.001-.761.005-.284 0-.567-.001-.852.002-9.476.005-20.902-.213-31.346-.964-.364-.026-.731-.056-1.096-.079l-.543-.043c-.363-.029-.723-.06-1.084-.088a194.28 194.28 0 01-3.191-.285l-1.041-.102-.516-.055c-.342-.036-.684-.075-1.024-.108a103.46 103.46 0 01-1.01-.12 84.039 84.039 0 01-.993-.122 54.412 54.412 0 01-.979-.124l-.965-.131-.95-.136-.467-.07c-.619-.094-1.231-.191-1.824-.287-.15-.025-.299-.05-.445-.078l-.877-.154a74.259 74.259 0 01-1.685-.33 46.53 46.53 0 01-1.21-.26c-.264-.057-.524-.12-.778-.18-.383-.09-.758-.184-1.119-.281a37.648 37.648 0 01-3.022-.918c-.071-.027-.148-.054-.228-.083l-.054-.018a1.975 1.975 0 00-.148-.054c-.192-.07-.392-.138-.608-.218-.057-.019-.113-.041-.175-.061-.071-.026-.142-.053-.219-.08a21.21 21.21 0 01-.345-.122c-.062-.024-.125-.044-.19-.069-.062-.02-.127-.045-.192-.069-.131-.046-.265-.093-.398-.143l-.412-.147c-.071-.026-.143-.049-.217-.076-.177-.066-.356-.128-.542-.196-.086-.031-.176-.062-.261-.095-.184-.064-.371-.132-.564-.202-.08-.029-.161-.054-.246-.088l-.724-.259c-.685-.245-1.414-.509-2.187-.788-.092-.035-.19-.069-.287-.106a54.493 54.493 0 01-.588-.208c-.293-.108-.596-.214-.905-.326-.123-.047-.251-.092-.373-.136-.291-.103-.587-.211-.884-.316a12.65 12.65 0 00-.326-.117 36.855 36.855 0 00-.619-.223l-.682-.248-.365-.13-.34-.124c-.185-.064-.365-.13-.552-.198-1.061-.382-2.167-.783-3.317-1.196a33.004 33.004 0 00-.504-.182c-.255-.093-.512-.188-.771-.279-.598-.218-1.212-.437-1.831-.66-.047-.02-.095-.036-.142-.053l-1.634-.589a.727.727 0 00-.077-.028l-10.569-3.83a537.134 537.134 0 01-2.862-1.037l-1.46-.532a319.639 319.639 0 01-1.763-.638c-.069-.022-.136-.051-.211-.075l-3.01-1.094-.778-.284-.241-.086c-.886-.321-1.783-.648-2.683-.978a192.6 192.6 0 01-1.182-.429c-.264-.095-.524-.19-.786-.282-.532-.197-1.062-.389-1.599-.584-.803-.29-1.606-.581-2.413-.88-.072-.023-.142-.052-.217-.076-.334-.125-.666-.243-.998-.365-.023-.009-.048-.016-.071-.026-.993-.359-1.986-.726-2.991-1.089l-.082-.033c-.104-.038-.208-.073-.312-.112-.59-.212-1.182-.428-1.774-.645-.444-.162-.895-.322-1.342-.488-.278-.101-.557-.201-.835-.304-1.165-.42-2.327-.85-3.501-1.276l-.029-.011c-1.938-.713-3.89-1.423-5.852-2.142-.27-.098-.537-.195-.806-.295l-.056-.02c-.862-.313-1.717-.628-2.581-.945a68.37 68.37 0 01-.796-.293c-.741-.27-1.484-.54-2.223-.814-1.506-.554-3.016-1.11-4.519-1.66-.954-.348-1.907-.697-2.856-1.048-.598-.22-1.195-.441-1.79-.658-1.427-.523-2.844-1.046-4.262-1.566l-.204-.076c-.887-.327-1.779-.652-2.66-.98-1.26-.464-2.519-.933-3.77-1.394l-1.503-.553c-.154-.056-.305-.114-.456-.169-1.012-.371-2.013-.746-3.016-1.115l-.442-.162c-.685-.255-1.369-.506-2.048-.762-2.886-1.07-5.72-2.123-8.49-3.154-.335-.122-.666-.246-1-.371a56.395 56.395 0 00-.606-.224c-.27-.104-.54-.202-.813-.303-.537-.201-1.073-.398-1.604-.598C61.59 78.925 52.4 75.44 45.322 72.685c-.722-.278-1.425-.551-2.098-.819a439.79 439.79 0 01-4.595-1.83c-3.908-1.571-6.551-2.717-7.566-3.292C25.585 63.627 16.841 57 11.941 51.276 8.99 47.82 7.434 44.699 8.84 42.865c1.787-2.331 4.53-3.279 7.221-3.788 2.331-.447 4.623-.562 6.215-.978l.27-.071a4.76 4.76 0 00.804-.312c.039-.022.076-.038.122-.064.67-.336 1.774-.907 3.31-1.508a33.776 33.776 0 013.639-1.19c.01-.003.013-.002.021-.007 6.124-1.625 15.842-2.446 28.997 2.24 0 0 25.7 9.352 57.739 21.12h.003c3.193 1.172 6.448 2.37 9.747 3.584h.003c1.098.402 2.205.81 3.314 1.218 1.664.61 3.337 1.23 5.016 1.846h.003c2.798 1.033 5.615 2.068 8.443 3.112.565.208 1.133.418 1.699.623 1.133.419 2.262.839 3.396 1.254 2.268.84 4.534 1.676 6.802 2.516 1.129.417 2.256.837 3.386 1.251 4.031 1.491 8.038 2.976 11.987 4.445l.018.005a7096.679 7096.679 0 0132.039 11.977h.003l1.527.573a2913.984 2913.984 0 0115.526 5.908c2.203.851 4.268 1.648 6.169 2.39 6.886 2.682 11.667 4.632 13.493 5.539 4.743 2.357 10.091 4.813 14.993 6.985.403.18.807.357 1.203.532.019.012.04.018.061.027a413.33 413.33 0 001.847.815c.681.296 1.347.588 1.996.869.95.409 1.862.802 2.724 1.171.374.159.735.315 1.091.465a599.953 599.953 0 007.093 2.972s-.003.084-.017.24l-.001.039c-.005.041-.008.086-.012.136-.011.099-.021.216-.037.346-.018.171-.041.37-.073.592 0 0-.001.003.002.004-.008.053-.014.11-.024.169-.025.186-.053.38-.089.592-.023.143-.05.299-.076.451-.016.084-.031.174-.049.26-.017.097-.038.195-.058.291l-.089.428c-.013.058-.026.117-.042.177a9.944 9.944 0 01-.114.468 9.155 9.155 0 01-.081.316c-.01.059-.025.117-.038.172z" fill="#D7E2FF"/><path d="M269.961 123.065c-.032.102-.063.214-.095.319-.677 2.303-1.864 4.751-3.91 5.784a4.83 4.83 0 01-.652.27l-.003-.001-.001.003c-.071.022-.149.043-.23.066-.074.019-.152.04-.234.056l-.003-.001a2.726 2.726 0 01-.241.044 3.981 3.981 0 01-.58.058l-.001.003c-.026 0-.052.002-.079.004-.027.003-.056.001-.082.004l-.001.003c-.029-.002-.059 0-.089.001l-.001.003a.48.48 0 00-.092.004c-.033.001-.066.001-.095.003l-.003-.001-.001.003c-.033.001-.066.001-.099.005-.036 0-.07.004-.106.004l-.003-.001c-.036.003-.069.003-.109.005-.037.003-.075.002-.112.005l-.244.011-.003-.001-.122.005-.003-.001-.001.003-.128.004-.096.003c-.346.015-.732.032-1.153.045l-.24.006c-1.106.039-2.447.078-3.986.111l-.482.01c-.269.007-.544.012-.824.02-.058 0-.118.003-.183.001-.082.004-.173.004-.259.007-.085.002-.17.002-.261.002l-.266.005-.268.004-.269.004c-.091 0-.184.004-.275.005l-.275.002c-.003-.001-.003.002-.003.002l-.278.002c-.065.001-.131.002-.204.005-.025-.004-.051-.001-.078.001h-.284c-.475.008-.963.017-1.459.019-.285.006-.576.007-.871.013a1797.445 1797.445 0 01-1.338.015c-.754.006-1.528.01-2.322.015-.163 0-.319-.001-.476.001-.278.002-.555 0-.833.004-.251.002-.502.001-.761.005a60.387 60.387 0 00-.851.002c-9.477.005-20.902-.213-31.346-.965-.365-.026-.731-.055-1.097-.078l-.542-.043c-.364-.029-.723-.06-1.084-.088a206.066 206.066 0 01-4.233-.387l-.516-.055c-.342-.036-.683-.075-1.023-.108a99.923 99.923 0 01-1.01-.12 79.175 79.175 0 01-.993-.122 54.53 54.53 0 01-.98-.124l-.965-.131-.95-.136-.466-.07a184.36 184.36 0 01-1.825-.287 69.225 69.225 0 01-3.007-.563c-.411-.081-.813-.17-1.209-.26-.265-.057-.525-.119-.778-.179-.383-.09-.758-.184-1.119-.281a37.12 37.12 0 01-1.407-.393c-.23-.067-.448-.137-.667-.207-.108-.034-.216-.067-.323-.106a20.812 20.812 0 01-.854-.295c-.018-.005-.035-.013-.053-.018-.047-.02-.098-.037-.148-.054-.193-.07-.393-.138-.609-.218-.056-.019-.112-.041-.175-.061a15.888 15.888 0 00-.563-.202c-.062-.024-.125-.044-.19-.069a4.564 4.564 0 01-.193-.07c-.13-.046-.264-.092-.397-.142-.134-.047-.273-.099-.413-.147l-.216-.076c-.178-.066-.356-.128-.543-.196-.086-.031-.175-.062-.26-.095-.185-.064-.371-.132-.564-.202-.08-.029-.161-.054-.246-.088l-.724-.259c-.685-.245-1.414-.509-2.188-.788-.091-.035-.19-.069-.287-.106-.193-.067-.386-.136-.588-.208-.293-.108-.596-.214-.904-.326-.124-.047-.252-.092-.373-.136-.291-.103-.587-.211-.884-.316a9.8 9.8 0 00-.327-.117 39.437 39.437 0 00-.619-.224l-.681-.247-.365-.13-.341-.124c-.184-.064-.365-.13-.551-.198-1.062-.382-2.167-.783-3.318-1.196a26.74 26.74 0 00-.504-.182 53.447 53.447 0 00-.77-.279c-.598-.218-1.213-.437-1.832-.66-.047-.02-.094-.036-.142-.053a803.966 803.966 0 00-1.71-.617l-10.569-3.83-.569-.207c-.756-.271-1.524-.549-2.294-.83l-1.46-.532c-.027-.007-.053-.018-.08-.029-.557-.2-1.12-.404-1.683-.609-.069-.023-.136-.051-.211-.075l-3.009-1.094-.779-.284-.24-.086c-.886-.321-1.784-.648-2.683-.978-.395-.142-.786-.283-1.182-.429-.264-.096-.525-.191-.786-.283-.533-.196-1.063-.388-1.599-.583-.803-.29-1.606-.581-2.414-.88-.072-.023-.142-.052-.217-.076-.333-.125-.666-.244-.997-.365-.024-.009-.048-.016-.071-.026-.993-.36-1.987-.726-2.992-1.089l-.082-.033-.311-.112c26.563-6.452 39.236-26.653 39.236-26.653l.018.005a7063.646 7063.646 0 0132.039 11.977l.003.001c.514.191 1.022.384 1.527.573a2916.585 2916.585 0 0115.527 5.907c2.203.852 4.267 1.648 6.168 2.39 6.886 2.683 11.667 4.633 13.493 5.54 4.743 2.356 10.092 4.812 14.993 6.985.404.18.808.357 1.203.532.019.012.041.018.061.026a283.186 283.186 0 001.848.815c.681.297 1.347.588 1.996.869.949.41 1.861.803 2.724 1.172l1.09.465a608.878 608.878 0 007.093 2.972s-.003.084-.017.239l-.001.039c-.005.041-.007.086-.012.137-.011.098-.02.216-.037.345-.018.171-.04.37-.073.593 0 0 0 .003.003.004-.009.053-.015.11-.024.169-.026.185-.053.38-.089.591l-.076.452c-.017.083-.032.174-.05.26-.016.096-.037.195-.057.29l-.09.429a2.644 2.644 0 01-.042.177 10.67 10.67 0 01-.113.467c-.026.104-.053.214-.081.317-.014.061-.03.119-.042.174z" fill="#F99746"/><path opacity=".5" d="M264.094 129.666c-1.572.096-6.24.257-12.602.339.311-8.772-5.072-13.963-5.072-13.963l24.181 3.879c-.413 3.011-1.845 9.462-6.507 9.745z" fill="#E27727"/><path d="M141.689 84.072c-.748-.279-1.101-1.192-.785-2.027l.606-1.611c.317-.838 1.187-1.295 1.934-1.016.748.279 1.101 1.191.785 2.026l-.606 1.612c-.317.838-1.186 1.295-1.934 1.016zm-7.013-2.61c-.748-.28-1.102-1.192-.786-2.027l.607-1.612c.316-.837 1.186-1.294 1.934-1.015.748.279 1.101 1.191.785 2.026l-.606 1.612c-.317.838-1.187 1.294-1.934 1.016zm-7.012-2.608c-.748-.279-1.102-1.192-.786-2.027l.607-1.611c.316-.838 1.186-1.295 1.934-1.016.747.279 1.101 1.192.785 2.026l-.606 1.612c-.316.835-1.186 1.291-1.934 1.016zm-7.014-2.611c-.747-.278-1.101-1.191-.785-2.026l.606-1.611c.316-.835 1.187-1.295 1.935-1.016.747.279 1.101 1.191.785 2.026l-.606 1.612c-.316.835-1.186 1.291-1.935 1.016zm-7.01-2.609c-.748-.279-1.102-1.192-.786-2.026l.606-1.612c.316-.835 1.187-1.294 1.935-1.016.748.28 1.101 1.192.785 2.027l-.606 1.611c-.317.838-1.187 1.295-1.934 1.016zm-7.014-2.612c-.748-.279-1.102-1.191-.786-2.026l.606-1.612c.316-.835 1.187-1.294 1.935-1.015.747.278 1.101 1.191.785 2.026l-.606 1.612c-.317.837-1.187 1.294-1.934 1.015zm-7.011-2.609c-.747-.279-1.1-1.191-.785-2.026l.606-1.612c.316-.835 1.187-1.294 1.934-1.016.748.28 1.102 1.192.786 2.027l-.606 1.611c-.317.838-1.187 1.295-1.935 1.016zm-7.014-2.611c-.748-.28-1.101-1.192-.785-2.027l.606-1.611c.317-.838 1.187-1.295 1.934-1.016.748.279 1.102 1.191.785 2.026l-.606 1.612c-.316.838-1.186 1.294-1.934 1.016zm-7.011-2.61c-.748-.279-1.102-1.192-.785-2.026l.606-1.612c.316-.835 1.186-1.294 1.934-1.016.748.28 1.101 1.192.785 2.027l-.606 1.611c-.317.838-1.186 1.295-1.934 1.016zm-6.873-2.559c-.748-.28-1.102-1.192-.786-2.027l.607-1.611c.316-.835 1.186-1.295 1.934-1.016.748.279 1.101 1.191.785 2.026l-.606 1.612c-.317.838-1.187 1.294-1.934 1.016zm-7.014-2.607c-.747-.28-1.101-1.192-.785-2.027l.606-1.611c.316-.835 1.187-1.295 1.934-1.016.748.279 1.102 1.191.786 2.026l-.606 1.612c-.316.835-1.186 1.291-1.935 1.016zm-7.013-2.612c-.748-.278-1.101-1.191-.785-2.026l.606-1.611c.317-.838 1.187-1.295 1.934-1.016.748.279 1.102 1.191.786 2.026l-.607 1.612c-.316.835-1.186 1.294-1.934 1.015zm-8.664-3.318c-.747-.279-1.1-1.192-.785-2.026l.606-1.612c.316-.835 1.187-1.294 1.935-1.016.747.28 1.101 1.192.785 2.027l-.606 1.611c-.317.838-1.187 1.295-1.934 1.016zm161.943 61.291c-.748-.278-1.102-1.191-.786-2.026l.61-1.611c.316-.835 1.186-1.294 1.934-1.016.747.279 1.101 1.192.785 2.027l-.606 1.612c-.32.837-1.19 1.293-1.937 1.014zm-7.011-2.61c-.748-.279-1.102-1.192-.786-2.027l.607-1.611c.316-.835 1.186-1.295 1.934-1.016.748.279 1.101 1.192.785 2.027l-.606 1.611c-.317.838-1.187 1.295-1.934 1.016zm-7.015-2.608c-.748-.279-1.101-1.192-.785-2.026l.606-1.612c.316-.835 1.186-1.295 1.934-1.016.747.279 1.101 1.192.785 2.027l-.606 1.611c-.316.835-1.186 1.292-1.934 1.016zM31.7 35.39l-6.175 3.264-2.976-.619c.3-.09.569-.191.804-.312.042-.02.08-.04.125-.063.671-.339 1.777-.906 3.31-1.508a34.604 34.604 0 013.661-1.199l1.252.438zm1.02.466l-6.073 3.34 5.11 2.654 3.188-4.846-2.225-1.148zm2.69 1.453l-2.647 4.65 4.34-.029 1.223-3.413-2.916-1.208zm87.363 65.462c2.34-.241 3.91-3.757 2.6-5.818-1.309-2.057-3.259-4.302-5.895-5.24-5.412-1.93-6.285 9.933-4.518 10.674 1.043.439 4.699.705 7.813.384z" fill="#2B478B"/><path d="M246.565 113.681c.304-.239 22.741-1.318 35.364 5.349l-15.198 4.561-20.311-7.551c0 .003-1.377-1.171.145-2.359z" fill="#355DAF"/><path d="M249.774 63.498s-22.185 26.594-26.082 30.482c-3.898 3.89-10.443 5.249-10.443 5.249l-.037.003-40.569 4.71s-44.492-16.186-54.088-20.02l-.003-.001c-.869-.348-1.452-.598-1.689-.719-2.829-1.474-3.852-3.257-2.969-4.195.882-.936 73.136 10.049 81.117 11.33.076.012.154.024.228.038 7.783 1.2 9.192-1.17 9.192-1.17L242.44 64.14c.538-.51 1.271-.802 2.063-.954 2.366-.453 5.271.313 5.271.313z" fill="#D7E2FF"/><path d="M244.509 63.19c-10.373 7.269-39.044 27.302-41.575 28.504-2.72 1.297-68.267-6.002-84.376-7.769h-.003c-.869-.348-1.452-.598-1.689-.719-2.829-1.475-3.851-3.257-2.969-4.196.882-.935 73.135 10.05 81.117 11.331 7.982 1.282 9.42-1.132 9.42-1.132l38.008-25.067c.538-.506 1.271-.798 2.067-.953z" fill="#739AF0"/><path d="M249.774 63.498s-22.185 26.594-26.082 30.482c-3.898 3.89-10.442 5.249-10.442 5.249l-.037.003c-7.869-2.385-14.04-6.06-17.974-8.854 7.782 1.2 9.192-1.17 9.192-1.17l38.008-25.066c.539-.51 1.272-.802 2.064-.954 2.366-.456 5.271.31 5.271.31z" fill="#D7E2FF"/><path d="M121.464 89.408l-5.633 14.955s-6.446.486-15.48-2.544c-5.528-1.854-8.927-4.119-10.732-5.597-1.142-.935-1.645-1.557-1.645-1.557l5.903-15.675c.64-.295 1.446-.417 2.383-.396 7.761.149 24.247 9.887 24.247 9.887l.957.927z" fill="#E9F0FF"/><path d="M96.264 78.589l-6.64 17.631c-1.143-.936-1.646-1.557-1.646-1.557l5.904-15.675c.636-.296 1.445-.417 2.382-.399z" fill="#FF9843"/><path d="M78.77 156.532c13.536 10.789 30.162 16.893 47.786 16.893 20.624 0 39.975-8.28 54.601-22.876 14.627-14.597 22.924-33.907 22.924-54.486 0-17.498-6.117-34.088-16.928-47.597-3.068-5.109-10.451-11.273-13.527-13.43L66.567 143.567c2.18 2.176 9.84 11.151 12.203 12.964zm95.483-95.192c7.358 9.972 11.356 22.03 11.356 34.723 0 15.774-6.178 30.552-17.262 41.703-11.174 11.06-25.983 17.225-41.791 17.225-12.719 0-24.801-3.989-34.795-11.423l82.492-82.228z" fill="#F9585E"/><path d="M301.802 160.2a3.064 3.064 0 003.072 3.068 3.064 3.064 0 003.072-3.068c0-1.7-1.371-3.069-3.072-3.069a3.064 3.064 0 00-3.072 3.069z" fill="#66A357"/><path d="M300.589 160.2a3.064 3.064 0 003.073 3.068 3.064 3.064 0 003.072-3.068c0-1.7-1.371-3.069-3.072-3.069a3.075 3.075 0 00-3.073 3.069z" fill="#A8D29F"/><path d="M284.376 171.467a3.07 3.07 0 01-3.072-3.069 3.07 3.07 0 013.072-3.068 3.07 3.07 0 110 6.137z" fill="#66A357"/><path d="M283.164 171.466a3.07 3.07 0 01-3.073-3.068 3.071 3.071 0 013.073-3.069 3.07 3.07 0 013.072 3.069 3.07 3.07 0 01-3.072 3.068z" fill="#A8D29F"/><path d="M307.3 156.864l-3.403 3.162a3.87 3.87 0 01-1.181.756l-22.924 9.52-4.254-3.068 31.762-10.37zm-48.274-34.337l1.087-.755c-5.025-7.27-14.746-21.59-15.55-23.746-.504-1.37-.504-2.502-.015-3.4.803-1.416 2.662-1.793 2.678-1.793l.063-.016 5.089-1.573c5.829-2.314 8.318 2.25 8.429 2.454l.031.063 13.612 20.536 1.103-.724-13.596-20.504c-.126-.236-.898-1.542-2.395-2.55-1.497-1.007-4.049-1.92-7.657-.487l-4.978 1.542c-.331.079-2.49.598-3.545 2.44-.709 1.242-.725 2.753-.079 4.515 1.071 2.817 15.125 23.133 15.723 23.998z" fill="#66A357"/><path d="M260.556 117.366l-11.265 7.726s-2.962 2.99.441 8.986c2.994 5.271 19.048 35.139 19.048 35.139s3.34 6.215 16.354-1.558l-24.578-50.293z" fill="#66A357"/><path d="M257.388 128.822l18.213 33.361a8.56 8.56 0 0010.824 3.776l11.453-4.815.284-.126 7.168-3.006a8.296 8.296 0 001.954-1.148c.142-.11.268-.221.394-.331 2.143-1.872 3.182-4.705 2.836-7.475a8.668 8.668 0 00-1.229-3.446l-19.442-31.047a8.562 8.562 0 00-9.862-3.604l-2.096.677-.504.157-.425.142-7.027 2.234-.866.268-6.775 2.156a8.873 8.873 0 00-2.82 1.526c-.047.047-.11.095-.158.126l-.315.283c-2.694 2.565-3.544 6.767-1.607 10.292z" fill="#A8D29F"/><path d="M278.61 165.361a8.567 8.567 0 007.799.598l11.454-4.815.283-.126 7.185-3.006a8.278 8.278 0 002.347-1.479c2.127-1.873 3.703-6.09 2.379-9.284 0 0-24.31 10.008-29.02 12.95-2.427 1.511-2.427 3.667-2.427 5.162z" fill="#82B378"/><path d="M276.956 111.921c.063.016 6.743.976 8.65 3.509 1.969 2.597 21.3 34.494 21.489 34.824.016.032 1.56 3.258-.126 6.861l.331-.236c.142-.11.268-.22.394-.33 1.465-3.635-.126-6.405-.205-6.531-.803-1.322-19.536-32.243-21.505-34.871-1.733-2.298-6.57-3.258-8.114-3.525l-.504.157-.41.142zm-7.893 2.518c.977.188 4.837 1.148 7.2 4.972 2.788 4.454 20.513 37.987 20.702 38.318l.015.031.016.016c.016.016 1.229 1.715.599 3.493l.284-.125.283-.126c.536-1.841-.63-3.336-.803-3.541-.552-1.039-17.929-33.896-20.687-38.333-2.048-3.289-5.136-4.548-6.743-5.004l-.866.299zm-10.067 4.091c.031 0 1.402.157 2.804.818a10.755 10.755 0 014.506 4.076c2.773 4.469 19.867 38.129 20.04 38.475l.016.031.016.016c.015.016 1.024 2.093.393 3.871l.725-.299c.394-1.542-.567-3.635-.74-3.839-.552-1.07-17.283-34.038-20.041-38.475-2.583-4.17-6.427-4.957-7.231-5.067-.047.047-.11.094-.158.125l-.33.268z" fill="#66A357"/><path d="M247.558 160.01s2.442 2.267 1.969 3.872c-.472 1.605-2.678 2.675-2.977 4.642-.3 1.967-1.497 3.037-2.568 3.037h-5.121s-.787-1.385 1.119-1.794c1.906-.409 2.631-2.722 2.505-4.863-.126-2.14.173-5.004.173-5.004l4.049-.96.851 1.07zm-44.319 11.535h13.597c.11-.032.205-.047.268-.079.898-.456.63-3.918.52-4.988-.016-.205-.032-.315-.032-.315s-4.774-3.808-5.42-.897c-.015.094-.047.173-.078.268-.82 2.722-4.522 3.965-6.665 4.311-1.654.284-2.079 1.228-2.19 1.7z" fill="#233862"/><path d="M205.981 93.43s.725 9.033 1.576 19.876c1.15 14.744 2.552 32.841 2.678 36.272.237 5.948 1.198 15.484 1.198 15.484s2.268 2.266 6.79 1.306c0 0 4.033-13.596 5.199-27.995l.047-.708c1.072-14.65 2.742-45.493 2.742-45.493l-20.23 1.259z" fill="#2B478B"/><path d="M205.981 93.43s.725 9.033 1.576 19.875l15.865 25.084.047-.708c1.072-14.651 2.742-45.494 2.742-45.494l-20.23 1.244z" fill="#233862"/><path d="M209.29 94.5s13.06 32.685 21.647 48.059c8.586 15.359 11.265 19.655 11.265 19.655s4.915-1.967 5.372-3.305c0 0-3.277-29.663-9.028-36.886-3.245-4.091-7.058-16.35-7.247-20.63-.173-4.28-1.166-12.778-1.166-12.778l-20.843 5.886z" fill="#2B478B"/><path d="M196.086 85.484l-.74 1.48s-3.797.534-2.757 4.484c0 0 .567 1.62 1.607 1.117 1.039-.52.535-.472 2.032-1.164 1.497-.693 2.363-2.03 2.032-3.242l.237-1.29-2.411-1.385zm19.899-41.434c-.582-3.43-.598-5.444-.598-5.444l6.617-5.335c-.252 7.333 4.458 10.858 4.458 10.858s-8.822 4.343-13.927 2.738c0-.015 1.261-1.62 3.45-2.816z" fill="#FFB27D"/><path d="M213.826 38.464s8.429 1.4 9.217-3.855c.788-5.256 2.411-8.608-2.93-9.725-5.341-1.117-6.696.74-7.389 2.423-.694 1.684-1.072 10.67 1.102 11.157z" fill="#FFB27D"/><path d="M222.981 34.97s-.173-7.033-7.846-8.166c-5.262-.771-2.08-5.162-1.465-5.854 0 0 4.017.77 8.129 1.668 8.634 1.888 2.096 11.314 1.182 12.353z" fill="#233862"/><path d="M196.97 87.545c-1.135-1.148-1.97-2.66-1.97-2.66s9.579-11.88 10.351-13.107c.772-1.228 6.586-20.993 6.586-20.993l14.699-2.974S214.363 73.1 212.331 76.184c-3.356 5.098-13.408 12.683-13.408 12.683s-1.071-.409-1.953-1.322z" fill="#A53D38"/><path d="M205.414 94.186c.157.126.33.205.535.205 1.922-.032 7.5 1.038 12.226.55 3.986-.377 7.515-1.557 11.296-3.257.504-.22 1.654-.85 1.639-1.4-.016-.614-.079-1.511-.158-2.628-.268-3.903-.74-10.622-.283-18.365a79.81 79.81 0 00.126-4.28c.031-10.496-2.017-19.796-6.208-22.912-.362-.251-2.584.866-4.616 1.857-1.859.913-3.167.897-4.931.535l-2.316 1.684c-2.143 1.983-4.49 4.69-5.514 8.797-.867 3.493-1.387 9.803-1.655 16.334-.126 2.958-.236 5.948-.252 8.78v.095c-.031.283-.031.582-.031.865-.095 7.27.016 13.03.142 13.14z" fill="#B64C41"/><path d="M230.952 87.656c-.267-3.903-.74-10.622-.283-18.365.079-1.447.126-2.88.126-4.28-1.749-4.233-3.167-7.301-3.167-7.301h-4.395c0-.016-3.214 21.999 7.719 29.946z" fill="#A53D38"/><path d="M239.523 89.025l.835 1.432s-1.639 3.462 2.253 4.752c0 0 1.67.425 1.812-.74.141-1.148-.111-.707.141-2.328.237-1.637-.393-3.085-1.607-3.478l-.945-.913-2.489 1.275z" fill="#FFB27D"/><path d="M241.729 89.418c-1.592.315-3.309.19-3.309.19s-4.711-14.51-5.309-15.831c-.599-1.322-13.975-17.011-13.975-17.011l5.577-13.942s14.448 24.123 15.929 27.506c2.426 5.603 3.261 18.16 3.261 18.16s-.93.677-2.174.928z" fill="#B64C41"/><defs><clipPath id="clip0"><path fill="#fff" transform="translate(49.05 18.394)" d="M0 0h155.032v155.032H0z"/></clipPath></defs></svg>