<svg width="273" height="347" fill="none" xmlns="http://www.w3.org/2000/svg"><path fill-rule="evenodd" clip-rule="evenodd" d="M153.043 62.76c4.377-2.987 7.91-7.137 8.962-12.567 3.031-15.643-19.442-18.038-25.716-11.413-6.273 6.626-11.047 26.414-5.996 29.25 2.014 1.131 6.983 1.011 12.422-.534l-8.476 19.84 17.376 4.652 1.428-29.227z" fill="#FCD8B9"/><path fill-rule="evenodd" clip-rule="evenodd" d="M147.013 47.999c-3.128 9.002-6.118 13.121-8.972 12.357-4.282-1.146-7.192-4.81-9.07-5.314-1.37-.366-1.519 1.413-.949 2.915.47 1.24 3.849 3.216 3.417 4.826-.432 1.61-2.979-.406-3.235.549-.424 1.58-1.727 4.413 1.04 5.154 2.8.75 11.101 1.888 13.581-1.861 1.601-2.42 3.652-7.773 6.153-16.06.176.026.351.062.527.109 2.399.642 3.827 3.09 3.189 5.467a4.423 4.423 0 01-2.134 2.729 67.72 67.72 0 002.245 5.305c5.623-1.584 11.485-9.06 8.918-18.436-.245-4.322-2.643-7.237-5.883-9.16-2.523-1.937-5.434-2.858-8.11-2.819-4.987-.89-9.736-.583-11.204-.038-1.227 4.573-.697 6.17 6.975 8.095 1.614 1.484 2.603 3.562 3.512 6.182z" fill="#191847"/><path fill-rule="evenodd" clip-rule="evenodd" d="M143.161 152.468l-36.797 92.715-24.68 78.383H71.94l37.73-171.098h33.492z" fill="#FCD8B9"/><path fill-rule="evenodd" clip-rule="evenodd" d="M150.57 152.468c.392 32.581 6.106 76.446 7.019 78.476.609 1.354 21.62 18.572 63.034 51.654l-6.712 7.15c-48.865-28.363-74.428-44.436-76.689-48.219-3.392-5.674-14.434-57.891-23.3-89.061h36.648z" fill="#FCD8B9"/><path fill-rule="evenodd" clip-rule="evenodd" d="M221.565 280.196c2.254.796 3.807 1.551 4.658 2.265 1.036.869 2.402 2.308 4.1 4.319l-27.181 32.373c-3.489-1.492-4.584-3.238-3.284-5.236 1.3-1.999 2.364-3.673 3.192-5.021l5.922-20.675a.75.75 0 01.947-.508l3.16 1.002c2.192-1.021 3.728-2.056 4.609-3.105.716-.853 1.36-2.319 1.932-4.398a1.5 1.5 0 011.945-1.016zm-135.89 39.825c.838 2.238 1.258 3.912 1.258 5.023 0 1.351-.226 3.322-.676 5.914H43.972c-1.099-3.63-.464-5.59 1.903-5.879 2.368-.29 4.334-.551 5.9-.785l19.654-8.756a.75.75 0 01.99.38l.008.019L73.69 319c2.192 1.022 3.973 1.533 5.343 1.533 1.114 0 2.651-.45 4.613-1.348a1.5 1.5 0 012.029.836z" fill="#E4E4E4"/><path fill-rule="evenodd" clip-rule="evenodd" d="M118.42 315.493l-46.335-5.006 34.34-158.019h41.501L118.42 315.493z" fill="#69A1AC"/><path fill-rule="evenodd" clip-rule="evenodd" d="M211.039 271.061l-30.393 35.814c-32.013-34.806-50.676-57.517-55.99-68.133-5.314-10.616-10.092-39.374-14.332-86.274h46.722c2.317 41.261 3.878 62.851 4.684 64.771.807 1.92 17.243 19.861 49.309 53.822z" fill="#89C5CC"/><path fill-rule="evenodd" clip-rule="evenodd" d="M85.776 135.274L59.19 148.327c-6.69.589-12.403 1.782-17.139 3.578-1.174.74-2.726 2.382 1.53 2.801 4.254.418 8.711 1.048 9.039 2.575.328 1.526-2.513 2.782-1.681 4.91.554 1.419 4.81-1.144 12.765-7.689l25.018-5.511-2.946-13.717zm90.315 16.521l-15.439-2.657c4.127 32.266 6.405 49.402 6.834 51.407.965 4.512-3.782 10.289-5.936 13.463 4.64 3.128 5.568-5.266 11.401-1.208 5.324 3.704 8.876 9.342 16.3 6.411.913-.361 2.151-2.105.233-3.976-4.778-4.661-11.462-12.524-12.143-14.845-.928-3.165-1.345-19.363-1.25-48.595z" fill="#FCD8B9"/><path fill-rule="evenodd" clip-rule="evenodd" d="M143.603 79.69l-6.191-2.214c-27.277 16.18-43.907 53.562-76.594 69.159l5.467 9.846c51.46 2.669 72.361-42.82 77.318-76.791z" fill="#E87613"/><path fill-rule="evenodd" clip-rule="evenodd" d="M157.35 164.386l-56.483-9.949c-2.581-.454-1.44-4.075-.737-5.88 8.116-20.829 29.033-41.139 34.457-71.868l16.74.328c9.671 23.931 9.647 51.292 6.023 87.369z" fill="#DDE3E9"/><path fill-rule="evenodd" clip-rule="evenodd" d="M167.934 101.791c2.486-.259 4.638-1.507 6.457-3.743 7.841-9.638 6.729-15.901.707-18.956-6.023-3.055-12.401-.07-22.54-1.857a10.417 10.417 0 00-1.533-.164l-5.152-.608c-23.34 46.749-33.184 78.949-29.534 96.598l44.455 7.831c1.556 6.573 3.169 12.157 4.84 16.751l12.113 2.134c7.612-36.463 4.341-69.125-9.813-97.986z" fill="#FF9B21"/><path fill-rule="evenodd" clip-rule="evenodd" d="M155.589 153.852c-3.452 11.389-7.215 19.433-11.289 24.133l16.498 2.906c-1.815-7.667-3.551-16.68-5.209-27.039z" fill="#000" fill-opacity=".1"/><path d="M260.678 156.547l-1.762 91.493 2.244.043 1.762-91.493-2.244-.043zm-31.014-.58l-1.762 91.493 2.244.043 1.762-91.493-2.244-.043z" fill="#EEC29D"/><path d="M225.065 152.167c-1.283 0-2.351.962-2.351 2.245 0 1.283.961 2.352 2.244 2.352l45.096.855.107-4.704-45.096-.748z" fill="#0B141F"/><path d="M272.405 155.481c0 1.283-1.068 2.352-2.351 2.245-1.282 0-2.351-1.069-2.244-2.352.107-1.283 1.069-2.352 2.351-2.245 1.282 0 2.351 1.069 2.244 2.352z" fill="#213A5A"/><path d="M213.737 332.09c-3.847-.107-5.664 2.886-5.664 6.628-.107 3.741 1.39 6.842 5.45 6.842 2.138 0 3.847-2.994 3.954-6.735 0-3.635-1.603-6.629-3.74-6.735zm34.838 5.131l-2.886 9.087-5.343-.107 1.069-8.446 3.954-.32 3.206-.214z" fill="#0B141F"/><path d="M248.575 337.221l-2.886 9.087-2.778-.107 2.458-8.766 3.206-.214z" fill="#213A5A"/><path d="M198.242 336.9l-1.069 8.446 5.343.107 2.993-9.087-7.267.534z" fill="#0B141F"/><path d="M272.619 339.68l-20.09-.428-14.854-73.444-17.312-42.014s5.45-3.421 13.037-4.811c1.175-.214 2.458-.428 3.847-.535 1.71-.107 3.42-.213 5.236 0 11.862.963 23.831 13.684 27.464 52.064l2.672 69.168z" fill="#1B406C"/><path d="M188.945 338.076l63.584 1.176s.427-69.061-4.702-92.153c-2.138-9.728-7.588-30.682-27.358-23.412-19.769 7.483-31.204 53.667-31.524 114.389z" fill="url(#paint0_linear)"/><path d="M262.039 296.062c0 .321-.32.641-.641.641-.32 0-.641-.32-.641-.641v-1.39c-.214-19.35-.427-45.756-9.725-62.967-4.595-8.66-11.648-11.76-17.418-12.615 1.175-.214 2.458-.428 3.847-.535 5.236 1.604 10.9 5.132 14.854 12.508 9.404 17.533 9.618 44.152 9.831 63.609l-.107 1.39z" fill="#fff"/><path d="M198.669 290.182s3.099-27.261 4.916-29.399c1.817-2.138 37.83-1.924 39.967.535 2.137 2.459 1.389 29.078 1.176 29.72-.107.641-43.601-.428-46.059-.856zm45.097 10.156l-45.204-.855c-.32 0-.534-.214-.534-.534 0-.321.214-.535.534-.535l45.204.855c.32 0 .534.214.534.535 0 .321-.214.534-.534.534zm-.748 8.125l-45.417-.855c-.321 0-.535-.214-.535-.534 0-.321.214-.535.535-.535l45.417.855c.32 0 .534.214.534.535.107.214-.214.534-.534.534zm4.274 13.043c0 1.283-.962 2.352-2.03 2.352-1.069 0-1.924-1.069-1.924-2.459 0-1.283.962-2.352 2.031-2.352 1.068 0 1.923 1.176 1.923 2.459zm-8.335 6.628c0 .641-.428 1.176-.962 1.176s-.962-.535-.962-1.176c0-.642.428-1.176.962-1.176s.962.534.962 1.176z" fill="#1B406C"/><path d="M266.421 339.893c-.107 3.742-.107 6.735-2.137 6.735-4.061-.107-5.451-3.1-5.451-6.842.107-3.741 1.924-6.735 5.664-6.628 2.138 0 2.031 2.993 1.924 6.735z" fill="#0B141F"/><path d="M268.238 339.894c-.107 3.741-1.817 6.735-3.954 6.735-2.138 0-3.741-3.101-3.634-6.842.107-3.742 1.817-6.735 3.954-6.735 2.031.107 3.634 3.207 3.634 6.842z" fill="#213A5A"/><path d="M266.314 339.894c0 1.924-.962 3.421-2.03 3.421-1.069 0-1.924-1.604-1.817-3.421 0-1.925.962-3.421 2.03-3.421 1.069 0 1.817 1.496 1.817 3.421z" fill="#fff"/><defs><linearGradient id="paint0_linear" x1="220.741" y1="222.184" x2="220.741" y2="339.252" gradientUnits="userSpaceOnUse"><stop stop-color="#72C472"/><stop offset="1" stop-color="#67C177"/></linearGradient></defs></svg>