<svg width="263" height="217" fill="none" xmlns="http://www.w3.org/2000/svg"><path d="M162.231 63.372H99.373a5 5 0 00-5 5v124.455a5 5 0 005 5h62.858a5 5 0 005-5V68.372a5 5 0 00-5-5z" fill="url(#paint0_linear)"/><path d="M241.48 216.509s50.432-78.357-3.11-99.787c-13.487-5.398-18.192-80.971-78.098-43.184-23.823 15.026-58.128-3.158-90.979 6.78-30.17 9.128-30.863 35.46-27.048 44.939 4.168 10.357-12.454 22.741-29.477 31.246-26.702 13.341-7.067 60.227 18.159 60.451 25.225.225 210.553-.445 210.553-.445z" fill="#EBF3FA"/><path d="M8.079 216.564s-13.842-23.263 0-27.032c13.842-3.77 28.576 22.144 31.255 8.295 2.68-13.85 9.472-47.352 22.82-33.28 13.35 14.073 16.36-10.249 36.063 7.938 19.704 18.187 3.387 44.078 3.387 44.078H8.079v.001zm231.516 0s16.298-13.838 5.135-21.65c-11.163-7.812-36.197 15.91-33.935-2.327 2.262-18.236 11.985-42.981-4.501-37.625-16.485 5.357-22.513-27.005-37.694-11.604-15.182 15.4-23.442 72.99-23.442 72.99l94.437.216z" fill="#23BC86"/><path d="M48.28 210.978s-.628 5.104.372 5.338c.389.09 11.925-.025 11.925-.025s0-1.379-1.89-1.685c-1.89-.307-5.21-1.429-5.772-3.932-.561-2.502-4.636.304-4.636.304z" fill="#233862"/><path d="M59.699 184.58c0 4.352-5.03 27.33-5.03 27.33s-5.074.911-7.266-1.268c0 0 .476-21.313 1.239-25.848.154-.917-.09-2.272-.567-3.919-1.879-6.487-7.346-17.491-6.093-24.017 1.573-8.177 12.685.632 12.685.632s.486 2.195 1.156 5.353c1.487 7.004 3.876 18.737 3.876 21.737z" fill="#2B478B"/><path d="M55.825 162.845l-7.75 18.031c-1.878-6.487-7.346-17.491-6.092-24.016 1.573-8.178 12.686.631 12.686.631s.486 2.196 1.156 5.354z" fill="#233862"/><path d="M73.185 149.056s2.502-3.945 3.523-3.99c1.02-.046 3.56-1.003 3.888-.486.327.516-1.566 1.766-2.384 2.409-.818.643-1.35 2.308-2.731 2.368-1.382.059-2.296-.301-2.296-.301z" fill="#E49963"/><path d="M55.652 120.641s5.337 15.599 7.79 18.558c2.452 2.961 11.056 7.335 11.131 7.725.179.929-.532 2.379-1.338 2.384-2.86.015-8.658-2.157-11.343-4.731-2.842-2.723-7.338-18.278-7.338-18.278l1.098-5.658z" fill="#88B7ED"/><path d="M80.433 139.163s3.052-.048 4.716-1.09c1.663-1.041 5.027-.997 5.71-.474.684.524.57.836-.263 1.309-.834.473-3.639 2.696-5.94 2.483-2.303-.213-5.033.504-5.033.504l.81-2.732z" fill="#E49963"/><path d="M20.08 206.408s-2.093 1.941-1.685 3.32c.409 1.38 2.299 2.298 2.554 3.983.256 1.685 1.277 2.605 2.197 2.605h4.384s.676-1.186-.958-1.543c-1.634-.358-2.252-2.338-2.149-4.176.102-1.838-.153-4.29-.153-4.29l-3.474-.817-.715.918z" fill="#233862"/><path d="M54.87 152.598s-13.181 25.412-20.538 38.588c-7.356 13.176-9.655 16.853-9.655 16.853s-4.213-1.685-4.597-2.835c0 0 3.782-21.798 9.894-29.497 2.783-3.504 2.656-13.39 3.482-18.917.544-3.64 3.02-10.068 3.02-10.068l18.394 5.876z" fill="#2B478B"/><path d="M60.081 115.045c1.37 1.645 1.868 3.319 1.868 3.319-4.574-.315-10.253-6.544-10.253-6.544s3.317-.916 5.656-4.582a13.372 13.372 0 001.304-2.689l1.356 2.377 2.255 3.954s-.472 1.17-1.56 3.093a37.94 37.94 0 01-.626 1.072z" fill="#E49963"/><path d="M63.344 124.953c-.14 2.222-.811 5.589-1.72 9.323a194.385 194.385 0 01-1.152 4.46 227.853 227.853 0 01-2.064 7.245l-.026.083c-.052.236-.132.486-.205.716a353.295 353.295 0 01-1.724 5.563c-.988 3.084-.995 4.801-1.783 5.149-1.584.7-7.819-.051-11.555-1.67-3.157-1.344-7.967-5.396-7.942-7.435.029-2.363 3.201-9.481 5.306-17.792 2.595-10.152 8.352-18.258 13.153-19.93.358-.116.74.637 2.133 1.972 1.286 1.233 2.904 2.003 4.437 2.168l.914 1.524c1.237 2.182 2.457 5.001 2.228 8.624z" fill="url(#paint1_linear)"/><path d="M61.623 134.276a193.859 193.859 0 01-1.15 4.46 227.853 227.853 0 01-2.065 7.245l-.027.083c-.051.236-.131.486-.204.716a353.216 353.216 0 01-1.725 5.563c-9.985-12.679-4.322-27.863-4.322-27.863l9.493 9.796z" fill="#88B7ED"/><path d="M49.016 121.139s9.429 21.883 15.29 22.471c2.893.29 15.082-.593 18.566-1.299 0 0 .652-.91-.309-3.62 0 0-13.334-1.134-15.717-3.083-3.547-2.899-2.432-15.14-6.573-17.642-4.139-2.501-9.951-2.473-11.257 3.173z" fill="url(#paint2_linear)"/><path d="M62.268 110.88s-.472 1.17-1.56 3.093c-2.802-2.062-3.281-5.373-3.355-6.735-.022-.385-.01-.615-.01-.615l.355.041 2.315.263 2.255 3.953z" fill="#D68D5D"/><path d="M63.55 111.272s-7.159-1.523-6.14-5.966c1.016-4.442.777-7.632 5.392-6.846 4.615.785 5.111 2.683 5.133 4.249.02 1.564-2.495 8.846-4.384 8.563z" fill="#E49963"/><path d="M57.339 105.613s2.365-5.654 8.822-4.063c3.146.776 1.14-4.01.877-4.754 0 0-1.313-.11-4.877-.677-7.481-1.194-5.222 8.373-4.822 9.494z" fill="#2B478B"/><path d="M83.659 50.644a10.815 10.815 0 017.618-3.144h66.441a10.82 10.82 0 017.62 3.144 10.71 10.71 0 013.162 7.578v147.556a10.71 10.71 0 01-3.162 7.578 10.824 10.824 0 01-7.62 3.144H90.621a10.817 10.817 0 01-7.185-3.354 10.708 10.708 0 01-2.936-7.347V58.222a10.704 10.704 0 013.159-7.578z" fill="#fff" stroke="#75B9FF"/><path d="M158.114 49h-10.95l-1.992 3.485a5.861 5.861 0 01-2.16 2.163c-.9.52-1.924.794-2.967.794h-31.106a5.953 5.953 0 01-2.97-.793 5.865 5.865 0 01-2.162-2.164L101.82 49H90.886a8.935 8.935 0 00-6.283 2.574A8.742 8.742 0 0082 57.79v148.422a8.74 8.74 0 002.603 6.215A8.936 8.936 0 0090.886 215h67.228a8.935 8.935 0 006.283-2.574 8.74 8.74 0 002.603-6.215V57.779a8.742 8.742 0 00-2.606-6.208 8.936 8.936 0 00-6.28-2.571z" fill="url(#paint3_linear)"/><path d="M135.176 53h-20.352a.763.763 0 01-.581-.295A1.123 1.123 0 01114 52c.001-.265.089-.518.243-.705a.763.763 0 01.581-.295h20.352a.763.763 0 01.581.295c.154.187.242.44.243.705a1.123 1.123 0 01-.243.705.763.763 0 01-.581.295z" fill="#E7E8FA"/><path d="M164.269 51.628C162.977 50.336 161.5 50 161.5 50l-.179 3.602v2.344l-3.851.837-2.512 4.352 1.674 1.842-2.344 3.013-2.846 1.674s-3.684 5.691-3.014 6.36c.669.67 2.344 3.348 2.846 4.353.503 1.004-6.865 6.528-6.865 6.528s-4.856.67-4.856 2.846c0 0 2.679-2.344 6.196-1.34l7.201-7.631-2.679-5.022 2.506-5.097 2.778 2.084-1.339 4.017 3.348-4.389-2.865-2.678 4.317-4.836-2.381-2.79 5.544-3.013.483 4.278-2.753 4.612.856 2.753 2.642 2.827-1.972-3.348-.298-2.38 3.2-4.278-.93-5.58 3.093-.44s-.231-1.872-2.231-3.872zm-11.54 6.107l-5.413 1.769.582 3.936-4.581 1.859 1.014 4.488-1.864 3.334-8.157-.887-3.72-3.94-3.509 3.828-.452 4.16-.399 3.66-2.23 1.585 3.517-1.376.045-3.849.643-4.196 2.729-1.686 1.703 2.579-3.268 1.479.944 2.685-.043-2.363 4.348-1.436 8.192 1.078 3.203-4.667-1.193-4.17 3.863-1.114.158 2.337 1.008-3.071-.938-3.769 3.818-2.253zm4.527 25.5l2.847 4.35-7.372 6.194 5.697 2.846-.837 5.189-10.047 8.871 8.205-9.205-1.005-4.52-4.855-3.683 8.372-5.859-1.005-4.183z" fill="#B8D2FE"/><path d="M137.593 55.106l-.726 3.403 4.354 1.674 1.116 2.065-1.451-1.563-5.079-1.562 1.786-4.017zm19.646 20.812l3.237-.279 3.963-2.734 1.514 1.507v2.009l-1.625-2.12-3.349 2.9-3.74-1.283zM90 204.423c-.91-1.213-1-2-1-2l3.758-4.166 6.464-3.499-2.397-5.928 3.646-4.241v-3.646l1.042 3.794-2.679 3.721 2.356 5.233.176-.095 1.625-6.734 6.922-6.862 13.283 8.158-13.283-5.569-6.744 11.443 2.213-.907 1.117 3.07 4.837-2.009.447-3.348h4.614l-3.573.893.075 3.496-6.865 3.348-1.47-2.752-3.198 1.269-8.608 5.179 1.425 3.979s-2.683.173-4.183-1.827z" fill="#B8D2FE"/><path d="M56.418 101.029h18.426c.129 0 .139-.189.012-.202l-6.282-.69s.1-5.576-5.805-5.576c-5.907 0-6.677 4.144-6.351 6.468z" fill="#30235A"/><path d="M154.01 155.028l-26.335-45.598c-1.1-1.907-3.853-1.907-4.954 0l-26.334 45.598c-1.1 1.906.276 4.29 2.477 4.29h52.668c2.202 0 3.578-2.383 2.478-4.29zm-24.668-2.61h-8.267v-7.308h8.267v7.308zm.285-23.043l-1.71 13.658h-5.478l-1.67-13.658v-6.798h8.858v6.798z" fill="url(#paint4_linear)"/><path d="M177.169 133.61s-2.539-1.692-3.374-3.468c-.834-1.775-3.098-2.087-3.955-2.016-.857.07-1.71 1.277-.789 1.544 1.392.402 1.311 2.463 3.362 3.53 2.051 1.067 3.958 3.146 3.958 3.146l.798-2.736z" fill="#AB7041"/><path d="M177.317 216.65l-11.924-.413c.054-.32.356-1.379 1.97-1.56 1.904-.215 5.283-1.201 5.984-3.778.701-2.577 4.599 1.056 4.599 1.056s.273 4.177-.629 4.695z" fill="#233862"/><path d="M199.782 166.512c-2.129 3.987-7.039 9.472-8.929 13.788-.448 1.021-.726 1.976-.76 2.83-.381 9.822-11.718 28.821-11.718 28.821-1.041.623-5.335-.844-5.335-.844s.652-4.287 3.66-19.073c1.658-8.157 4.4-20.291 6.524-29.534.547-2.381 1.054-4.57 1.489-6.45.942-4.053 1.558-6.669 1.558-6.669l4.134.212 11.164.573c-.001 0 4.481 4.604-1.787 16.346z" fill="#2B478B"/><path d="M199.782 166.512c-2.129 3.987-7.039 9.472-8.93 13.788a3659.052 3659.052 0 01-7.629-17.8c.547-2.381 1.053-4.57 1.489-6.45.685-2.801.904-4.057 1.558-6.669l15.298.784c0 .001 4.481 4.605-1.786 16.347zm20.045 44.242c-.513 1.345-2.467 2.117-2.849 3.777-.268 1.16-.878 1.919-1.534 2.247l-5.239-.182c-.079-.198-.408-1.223 1.086-1.433 1.658-.232 2.422-2.159 2.46-4.001l.003-.135c.055-1.822.476-4.131.476-4.131l3.525-.552.557.839.087.133c-.001.001 1.94 2.094 1.428 3.438z" fill="#233862"/><path d="M196.985 190.655c1.967 3.884 16.378 20.908 16.378 20.908s4.938-1.479 5.91-4.411c0 0-8.178-14.156-12.119-20.713-1.128-1.875-.818-29.919-4.884-35.173-5.098-6.586-15.151 5.226-15.151 5.226s2.674 9.905 3.504 13.024c1.837 6.916 5.006 18.463 6.362 21.139z" fill="#2B478B"/><path d="M192.559 114.811c-.64-2.908-.741-4.646-.741-4.646l5.445-4.845c.099 6.291 4.272 9.114 4.272 9.114s-7.372 4.089-11.806 2.926c0-.001 1.006-1.427 2.83-2.549z" fill="#E49963"/><path d="M190.478 110.128s7.271.843 7.727-3.691c.456-4.535 1.701-7.48-2.922-8.211-4.623-.731-5.701.91-6.221 2.386-.52 1.476-.464 9.179 1.416 9.516z" fill="#E49963"/><path d="M198.172 106.749s-.442-6.022-7.061-6.667c-4.533-.442-.233-4.202.253-4.822 0 0 1.713.353 5.273.953 7.471 1.258 2.273 9.601 1.535 10.536z" fill="#233862"/><path d="M186.3 123.156c-.577 2.151-1.018 5.555-1.348 9.383a192.502 192.502 0 00-.336 4.595 225.727 225.727 0 00-.36 7.524l-.001.087c-.027.24-.031.503-.036.744-.07 2.142-.116 4.13-.142 5.822-.051 3.237-.593 4.867.042 5.448 1.277 1.17 7.425 2.45 11.483 2.109 3.42-.264 9.274-2.567 9.903-4.508.729-2.25-.004-10.007.659-18.554.786-10.449-2.078-19.969-6.092-23.086-.303-.224-.907.366-2.651 1.187-1.612.758-3.414.962-4.919.627l-1.333 1.161c-1.87 1.673-3.928 3.955-4.869 7.461z" fill="url(#paint5_linear)"/><path d="M184.616 137.135c-.127 1.483.097-1.563 0 0a228.581 228.581 0 00-.36 7.524l-.001.087c-.027.24-.031.503-.035.744-.071 2.142-.117 4.13-.143 5.822 13.513-8.825 13.002-25.022 13.002-25.022l-12.463 10.845z" fill="#D88029"/><path d="M195.311 102.861s-.337-1.518-2.303-2.409c0 0 5.938 2.142 5.567 4.063-.37 1.921-.403 2.234-.403 2.234s-3.202-.936-2.861-3.888z" fill="#233862"/><path d="M222.7 166.947l-55.718-55.702c-2.49-2.49-3.65-6.002-3.182-9.493.692-5.161-.946-10.574-4.913-14.54a17.225 17.225 0 00-9.967-4.918l-.649.649 9.251 9.248-3.83 14.289-14.294 3.829-9.251-9.248-.648.649a17.206 17.206 0 004.918 9.963c3.967 3.966 9.382 5.603 14.545 4.911 3.492-.467 7.004.692 9.495 3.182l55.718 55.702c2.49 2.49 3.65 6.002 3.182 9.493a17.269 17.269 0 004.913 14.541 17.227 17.227 0 009.967 4.917l.649-.649-9.251-9.248 3.83-14.29 14.294-3.829 9.251 9.248.648-.648a17.208 17.208 0 00-4.918-9.964c-3.967-3.967-9.382-5.604-14.545-4.912-3.492.469-7.003-.691-9.495-3.18z" fill="#0663CF"/><path d="M176.415 133.54s-2.54-1.691-3.375-3.467c-.834-1.775-3.097-2.087-3.955-2.017-.857.071-1.343 1.064-.891 1.91.578 1.079 1.415 2.098 3.465 3.165 2.051 1.067 3.959 3.147 3.959 3.147l.797-2.738z" fill="#E49963"/><path d="M203.79 124.047s-13.269 19.793-19.14 19.3c-2.896-.243-9.089-6.117-11.791-8.923 0 0-.598-.947 2.021-2.704 0 0 9.084 5.091 10.025 4.87 1.639-.384 3.869-16.014 8.397-17.718 4.526-1.703 10.235-.615 10.488 5.175z" fill="url(#paint6_linear)"/><path d="M200.653 101.584l-17.659-5.26c-.123-.037-.079-.22.047-.197l6.216 1.132s1.497-5.373 7.157-3.687c5.662 1.686 5.215 5.88 4.239 8.012z" fill="#30235A"/><path d="M47.475 15.515c-.085 1.44.06 2.842.402 4.168l-2.683 1.532 3.531 6.18 2.686-1.534a13.497 13.497 0 005.238 3.252l-.181 3.084 7.107.417.181-3.083a13.473 13.473 0 005.582-2.616l2.488 1.837 4.232-5.725-2.485-1.835c.495-1.277.803-2.652.888-4.093.085-1.44-.06-2.842-.402-4.168L76.74 11.4l-3.53-6.18-2.687 1.533a13.496 13.496 0 00-5.237-3.252l.181-3.083L58.361 0l-.181 3.084A13.48 13.48 0 0052.597 5.7l-2.489-1.838-4.23 5.726 2.484 1.835a13.51 13.51 0 00-.888 4.092zm14.015-8.09a8.899 8.899 0 11-1.043 17.765A8.899 8.899 0 1161.49 7.425z" fill="#E8E8E8"/><path d="M36.584 45.58a10.854 10.854 0 002.026 2.688l-1.196 2.177L42.43 53.2l1.198-2.18c1.606.387 3.3.41 4.956.031l1.171 2.191 5.049-2.697-1.171-2.19a10.832 10.832 0 002.728-4.137l2.478.216.496-5.7-2.474-.217a10.836 10.836 0 00-1.11-3.179 10.85 10.85 0 00-2.027-2.689l1.197-2.177-5.017-2.756-1.198 2.18a10.83 10.83 0 00-4.956-.031l-1.17-2.191-5.049 2.697 1.17 2.19a10.835 10.835 0 00-2.728 4.137l-2.478-.216L33 42.183l2.474.216a10.868 10.868 0 001.11 3.18zm6.211-11.43a7.153 7.153 0 116.745 12.618 7.157 7.157 0 01-9.683-2.938 7.152 7.152 0 012.938-9.68zm35.517-11.747a9.506 9.506 0 001.778 2.358l-1.05 1.908 4.4 2.417 1.05-1.91a9.496 9.496 0 004.347.027l1.027 1.92 4.428-2.365-1.027-1.921a9.52 9.52 0 002.393-3.627l2.172.189.436-5-2.17-.189a9.504 9.504 0 00-.973-2.787 9.506 9.506 0 00-1.777-2.357l1.048-1.909-4.399-2.416-1.05 1.91a9.494 9.494 0 00-4.347-.027l-1.027-1.92-4.427 2.365 1.026 1.92a9.522 9.522 0 00-2.393 3.628l-2.172-.189-.436 5 2.17.188c.172.95.492 1.89.973 2.787zm5.447-10.022a6.276 6.276 0 018.492 2.576 6.272 6.272 0 01-2.577 8.49 6.276 6.276 0 01-8.492-2.576 6.272 6.272 0 012.577-8.49z" fill="#E8E8E8"/><defs><linearGradient id="paint0_linear" x1="130.802" y1="63.372" x2="130.802" y2="197.827" gradientUnits="userSpaceOnUse"><stop stop-color="#fff"/><stop offset="1" stop-color="#fff"/></linearGradient><linearGradient id="paint1_linear" x1="49.273" y1="110.654" x2="49.273" y2="157.754" gradientUnits="userSpaceOnUse"><stop stop-color="#8EC6F8"/><stop offset="1" stop-color="#ADD6EF"/></linearGradient><linearGradient id="paint2_linear" x1="66.052" y1="116.376" x2="66.052" y2="143.667" gradientUnits="userSpaceOnUse"><stop stop-color="#8EC6F8"/><stop offset="1" stop-color="#ADD6EF"/></linearGradient><linearGradient id="paint3_linear" x1="17826.6" y1="84664.2" x2="45278.5" y2="17260.1" gradientUnits="userSpaceOnUse"><stop stop-color="#DDE1EE"/><stop offset="1" stop-color="#75B9FF"/></linearGradient><linearGradient id="paint4_linear" x1="125.198" y1="108" x2="125.198" y2="159.318" gradientUnits="userSpaceOnUse"><stop stop-color="#FE9076"/><stop offset="1" stop-color="#FFD5B6"/></linearGradient><linearGradient id="paint5_linear" x1="195.054" y1="112.672" x2="195.054" y2="158.924" gradientUnits="userSpaceOnUse"><stop stop-color="#FE9278"/><stop offset="1" stop-color="#FFD3B4"/></linearGradient><linearGradient id="paint6_linear" x1="188.295" y1="118.14" x2="188.295" y2="143.356" gradientUnits="userSpaceOnUse"><stop stop-color="#FE9278"/><stop offset="1" stop-color="#FFD3B4"/></linearGradient></defs></svg>