<svg width="35" height="35" fill="none" xmlns="http://www.w3.org/2000/svg"><g clip-path="url(#clip0)"><path d="M29.925 5.03C26.6 1.816 22.225 0 17.565 0 4.194 0-4.204 14.489 2.474 26.014L0 35l9.239-2.41c4.024 2.175 7.322 1.983 8.335 2.111 15.507 0 23.226-18.76 12.33-29.614l.021-.057z" fill="#ECEFF1"/><path d="M17.598 31.72l-.009-.001h-.023c-4.64 0-7.606-2.198-7.897-2.325L4.2 30.816 5.666 25.5l-.349-.547a14.392 14.392 0 01-2.21-7.67c0-12.823 15.67-19.236 24.737-10.172 9.046 8.968 2.695 24.61-10.246 24.61z" fill="#4CAF50"/><path d="M25.531 20.864l-.013.11c-.439-.219-2.577-1.265-2.975-1.409-.894-.331-.642-.053-2.358 1.913-.255.285-.51.307-.942.11-.438-.219-1.842-.678-3.505-2.166-1.295-1.16-2.164-2.581-2.42-3.019-.428-.737.466-.842 1.28-2.382.146-.307.071-.547-.037-.765-.109-.219-.98-2.362-1.344-3.217-.35-.851-.71-.744-.98-.744-.84-.072-1.454-.06-1.995.502-2.354 2.587-1.76 5.256.254 8.094 3.958 5.18 6.066 6.134 9.922 7.458 1.041.33 1.99.284 2.742.176.837-.133 2.577-1.051 2.94-2.08.372-1.027.372-1.88.262-2.078-.108-.196-.393-.306-.83-.503z" fill="#FAFAFA"/></g><defs><clipPath id="clip0"><path fill="#fff" d="M0 0h35v35H0z"/></clipPath></defs></svg>