<svg width="167" height="251" fill="none" xmlns="http://www.w3.org/2000/svg"><path d="M20.43 132.955l-5.463 6.781-11.64 56.812 8.363 14.542 10.21-2.524 8.777-29.724-10.247-45.887z" fill="url(#paint0_linear)"/><path d="M47.894 118.752h.452c7.196.339 15.899 9.795 20.947 15.371 13.035 14.391 22.115 30.892 28.933 49.315 3.655 9.946 6.895 20.005 9.946 30.177.829 2.787 6.744 28.443 8.138 28.632-14.655-1.884-29.386-3.316-43.965-2.336-14.58 1.017-29.084 4.596-41.592 12.282-6.405-32.89-11.152-66.984-12.696-100.326-.189-3.993-.791-8.1-.415-12.055.415-4.559 2.675-6.631 5.237-10.097.866-1.205 1.77-2.373 2.825-3.353 5.651-5.161 14.656-7.836 22.19-7.61z" fill="url(#paint1_linear)"/><path d="M33.955 234.938c17.67-3.052 46.264-10.436 63.895-13.45-9.23-30.666-23.923-64.723-41.065-91.66-3.127-4.898-7.007-9.984-12.545-11.151-5.952-1.244-16.426 2.674-17.556 9.343-1.695 9.757 1.808 23.207 2.9 33.077 2.412 22.303.076 51.802 4.371 73.841z" fill="ivory"/><path d="M38.815 97.918c-6.97-12.13-22.378-4.257-23.395 7.874-.64 7.987 7.082 16.765 15.107 17.406.15 1.921.414 3.842.716 5.726 2.034-.565 4.068-1.092 6.065-1.658.64-.188 1.356-.414 1.545-1.054.113-.377 0-.792-.113-1.168-.377-1.281-.716-2.562-1.093-3.843.15-.113.264-.188.415-.301 3.353-2.562 4.86-6.97 4.671-11.19-.15-4.181-1.846-8.175-3.918-11.791z" fill="#FEE0BD"/><path d="M38.363 101.987c3.353 3.24 3.692 8.401 3.88 12.809.189 3.918.791 6.292 4.973 5.162 2.336-.641 6.555-1.696 7.535-4.258.753-1.959-1.997-5.312-3.466-6.442-1.13-.866-2.788-.716-3.88-1.62-.453-.377-.754-.866-1.055-1.394a23.814 23.814 0 01-2.411-6.706c-.302-1.582-.49-3.24-1.093-4.709-.904-2.147-3.654-3.805-5.425-5.312-3.278-2.788-10.775-4.897-13.487.076-.603 1.13-.603 2.486-.528 3.767.038.753.113 1.544.49 2.223 1.394 2.75 4.107 1.883 6.518 2.26 2.938.565 5.801 2.11 7.949 4.144z" fill="url(#paint2_linear)"/><path d="M18.96 113.026c.867 1.996 2.977 3.616 2.789 5.764-.076.979-.64 1.808-1.055 2.712-1.055 2.449-.678 5.425.904 7.535-3.918 1.884-7.874 3.767-11.792 5.651-.603.301-1.206.565-1.884.527-1.394-.075-2.26-1.544-2.825-2.825-1.168-2.524-2.336-5.237-1.809-7.949.226-1.243.83-2.449 1.055-3.692 1.13-6.066-6.14-11.83-3.918-17.594.98-2.562 3.58-4.069 5.35-6.216 3.051-3.692 3.504-9.117 6.819-12.583 6.216-6.555 18.46-1.206 17.518 7.949-.716 7.46-14.58 12.658-11.151 20.721z" fill="url(#paint3_linear)"/><path d="M108.361 240.212S78.636 133.03 47.857 119.882v-.038c-.038-.037-.075-.037-.15-.075 0 0-5.803.565-5.727.754l-3.805 33.718-12.734-26.146.678 62.99 6.405 60.015 16.651-12.169 27.502-.075 31.684 1.356z" fill="url(#paint4_linear)"/><path d="M30.301 130.205c-.678.037-2.072-4.822-1.394-5.501.678-.678 3.805-.339 6.555-1.017 2.75-.678 4.483-2.75 4.823 0 .339 2.713 1.394 6.179-9.984 6.518z" fill="ivory"/><path d="M50.004 119.091l7.61-.377 42.685 31.609-4.936 12.997-14.88-4.973-25.393-31.043-5.086-8.213z" fill="url(#paint5_linear)"/><path d="M98.038 164.074l6.066-10.7-10.963-34.886-7.271 2.939-1.96 34.245 14.128 8.402z" fill="url(#paint6_linear)"/><path d="M148.414 149.462L55.142 136 37 261.698l93.272 13.461 18.142-125.697z" fill="#739AF0"/><path d="M143.381 152.893l-83.358-12.03-16.74 115.984 83.358 12.031 16.74-115.985z" fill="#fff"/><path d="M85.29 140.351l-.614 4.258a4.293 4.293 0 003.626 4.87l22.78 3.288c2.342.338 4.515-1.294 4.855-3.646l.614-4.258-31.26-4.512z" fill="#F99746"/><path d="M74.8 164.213l-1.183-.171.793-5.497 1.184.17-.794 5.498zm6.577.949l-1.184-.171-1.782-3.949-.522 3.617-1.183-.171.793-5.498 1.184.171 1.785 3.958.523-3.625 1.18.171-.794 5.497zm5.029-.746a.726.726 0 00-.007-.265.509.509 0 00-.137-.238 1.565 1.565 0 00-.315-.242 5.414 5.414 0 00-.538-.281 7.172 7.172 0 01-.705-.379 2.78 2.78 0 01-.56-.445 1.636 1.636 0 01-.346-.534 1.258 1.258 0 01-.062-.648 1.31 1.31 0 01.246-.607c.132-.175.3-.315.508-.421a2.23 2.23 0 01.716-.215c.27-.037.56-.033.87.012.319.046.602.13.85.252s.453.272.615.449c.163.178.279.378.35.6.07.222.086.457.05.703l-1.183-.171a.904.904 0 00-.01-.33.657.657 0 00-.14-.278.844.844 0 00-.272-.207 1.386 1.386 0 00-.41-.119 1.518 1.518 0 00-.412-.009.842.842 0 00-.303.095.572.572 0 00-.292.421c-.027.181.048.347.223.497.176.15.443.305.802.464.299.138.56.281.781.429.222.147.402.305.54.471.139.166.237.345.292.535.056.191.067.399.034.626-.034.242-.115.45-.24.624a1.366 1.366 0 01-.49.418 2.05 2.05 0 01-.7.203 3.317 3.317 0 01-.874-.02 3.551 3.551 0 01-.56-.129 2.947 2.947 0 01-.522-.223 2.47 2.47 0 01-.444-.315 1.761 1.761 0 01-.335-.403 1.544 1.544 0 01-.19-.492 1.649 1.649 0 01-.011-.577l1.187.171a.985.985 0 00.022.435.742.742 0 00.191.315c.088.086.2.156.335.209.134.053.287.091.458.116.152.022.288.025.405.01a.848.848 0 00.3-.089.522.522 0 00.192-.175.618.618 0 00.09-.243zm7.729-3.024l-.524 3.628a2.036 2.036 0 01-.287.816 1.725 1.725 0 01-.546.544 1.997 1.997 0 01-.75.269 3.015 3.015 0 01-.9-.002 3.017 3.017 0 01-.868-.253 1.974 1.974 0 01-.643-.471 1.692 1.692 0 01-.368-.675 2.047 2.047 0 01-.043-.863l.524-3.628 1.183.17-.523 3.628c-.052.36 0 .636.156.827.156.191.394.309.712.355.322.046.582 0 .783-.139.202-.14.329-.389.38-.749l.524-3.628 1.19.171zm3.402 4.049l-.943-.137-.29 2.013-1.184-.171.793-5.497 2.134.308c.331.048.624.126.877.237.252.109.459.247.62.413.162.166.276.359.344.58.068.22.082.466.043.738-.03.202-.08.379-.15.532a1.435 1.435 0 01-.638.677 2.16 2.16 0 01-.46.18l.918 2.426-.007.053-1.27-.183-.787-2.169zm-.81-1.054l.955.138c.155.022.293.023.417.001a.805.805 0 00.315-.124.714.714 0 00.213-.231.908.908 0 00.108-.325c.037-.259-.01-.474-.143-.645-.132-.171-.358-.279-.676-.325l-.95-.137-.238 1.648h-.001zm7.764 2.955l-2.075-.3-.558 1.076-1.258-.182 2.932-5.188 1.097.158 1.357 5.808-1.259-.182-.236-1.19zm-1.622-1.171l1.436.208-.425-2.162-1.011 1.954zm9.132 3.411l-1.183-.171-1.782-3.95-.522 3.618-1.184-.171.794-5.498 1.183.171 1.785 3.958.523-3.625 1.181.171-.794 5.497h-.001zm6.616-.914a2.181 2.181 0 01-.309.741 1.797 1.797 0 01-.545.536c-.219.14-.473.236-.764.291a2.99 2.99 0 01-.97.005 2.597 2.597 0 01-.966-.327 2.046 2.046 0 01-.67-.634 2.389 2.389 0 01-.349-.9 3.497 3.497 0 01-.006-1.121l.052-.362c.059-.406.168-.764.329-1.074.16-.311.36-.566.599-.766.24-.2.516-.34.828-.42a2.56 2.56 0 011.013-.043 2.9 2.9 0 01.928.282 2.1 2.1 0 01.642.505c.167.201.287.427.361.681.073.253.104.522.093.805l-1.184-.171a1.68 1.68 0 00-.026-.447.852.852 0 00-.154-.346.855.855 0 00-.307-.243 1.679 1.679 0 00-.488-.137c-.4-.058-.718.038-.954.288-.236.25-.396.667-.481 1.251l-.053.37a3.88 3.88 0 00-.043.757c.012.221.055.409.127.566a.893.893 0 00.317.375c.138.094.312.156.523.186.187.027.351.03.492.009a.876.876 0 00.366-.134.824.824 0 00.256-.277c.067-.116.12-.255.157-.417l1.186.171zm5.121.176l-2.273-.328-.212 1.472 2.667.385-.132.91-3.85-.556.793-5.497 3.843.555-.132.917-2.66-.384-.189 1.31 2.273.328-.128.888z" fill="#ABDDDA"/><path d="M89.13 256.929c-1.384.239-2.706.277-3.708.045-1.527-.352-2.28-1.29-2.12-2.642.126-1.072.703-1.944 1.68-2.577a4.12 4.12 0 01.01-.222c.051-.761.284-1.239.691-1.419.658-.29 1.48.356 1.515.383l-.25.315c-.184-.146-.744-.49-1.104-.329-.311.137-.416.626-.45 1.03.78-.41 1.76-.696 2.927-.837a14.85 14.85 0 012.654-.07c.018-.093.037-.176.058-.243.054-.181.15-.388.337-.405.07-.005.203.016.296.214.059.127.073.3.052.502.288.034.555.078.79.13l.008-.014a4.61 4.61 0 01.262-1.378c.167-.447.365-.657.6-.645.14.007.25.1.286.241.084.331-.28 1.141-.748 1.901v.004c.322.103.532.227.583.365.04.103.025.253-.133.362-.301.207-.505.114-.6.041a.578.578 0 01-.177-.276c-.341.489-.696.898-.95 1.056-.236.147-.41.05-.473.001a.41.41 0 01-.089-.096 5.424 5.424 0 01-.393.584c-.52.671-1.043.98-1.51.89a.777.777 0 01-.474-.298 7.522 7.522 0 01-1.128 1.371c-.389.36-.832.449-1.246.25-.736-.352-1.271-1.571-1.341-2.933-.752.551-1.182 1.269-1.287 2.149-.136 1.153.474 1.894 1.813 2.203 3.38.779 9.838-1.545 10.63-3.827-.643 1.856-3.803 3.62-7.01 4.174zm-3.751-4.954c.006 1.427.556 2.555 1.12 2.826.265.127.534.065.801-.183a6.966 6.966 0 001.193-1.502 2.428 2.428 0 01-.09-.544c-.029-.474.047-1.109.223-1.526-.662.066-1.334.188-1.968.383-.484.15-.912.332-1.28.546zm3.557 1.181c.066.142.165.26.315.289.3.056.707-.213 1.118-.742.214-.275.397-.576.544-.869a3.984 3.984 0 01.005-.826 14.775 14.775 0 00-1.44-.019c.184.54-.088 1.368-.542 2.167zm2.39-1.256c.035.197.085.241.085.242.25-.16.562-.537.861-.976-.187-.034-.4-.066-.632-.094-.07.262-.179.546-.315.828zm-2.257-.848c-.131.197-.301.863-.265 1.483.293-.632.417-1.197.265-1.483zm3.946.31l.003.001-.003-.001zm.236-2.052c-.05.097-.104.237-.154.403a3.04 3.04 0 00.154-.403z" fill="#F99746"/><path d="M77.741 195.167l-15.076-2.176 2.183-15.123 15.076 2.176-2.183 15.123zm-14.263-2.786l13.656 1.971 1.977-13.699-13.656-1.97-1.977 13.698z" fill="#ABDDDA"/><path d="M71.017 191.093a1.075 1.075 0 01-.765-.507l-3.838-6.316a1.083 1.083 0 01.359-1.484 1.075 1.075 0 011.479.359l3.043 5.01 8.297-10.274a1.074 1.074 0 011.513-.16c.462.374.533 1.054.159 1.518l-9.258 11.464a1.077 1.077 0 01-.99.39z" fill="#F99746"/><path d="M74.329 218.812l-15.077-2.175 2.183-15.123 15.076 2.176-2.182 15.122zm-14.263-2.785l13.655 1.97 1.977-13.697-13.655-1.971-1.977 13.698z" fill="#ABDDDA"/><path d="M67.623 214.608a1.074 1.074 0 01-.765-.506l-3.838-6.316a1.082 1.082 0 01.36-1.484 1.073 1.073 0 011.478.359l3.043 5.009 8.297-10.273a1.074 1.074 0 011.513-.16c.462.375.533 1.055.159 1.518l-9.258 11.464a1.077 1.077 0 01-.99.389z" fill="#F99746"/><path d="M70.987 241.967l-15.076-2.176 2.182-15.122 15.076 2.176-2.182 15.122zm-14.263-2.785l13.655 1.971 1.977-13.698-13.656-1.97-1.977 13.697z" fill="#ABDDDA"/><path d="M64.313 237.542a1.075 1.075 0 01-.765-.507l-3.838-6.316a1.082 1.082 0 01.36-1.484 1.075 1.075 0 011.478.359l3.043 5.01 8.297-10.274a1.075 1.075 0 011.513-.161c.462.375.533 1.055.159 1.518l-9.258 11.465a1.08 1.08 0 01-.909.398c-.026-.001-.053-.005-.08-.008z" fill="#F99746"/><path opacity=".5" d="M109.234 187.877l-19.659-2.837-.213 1.476 19.659 2.837.213-1.476zm16.703 2.411l-4.468-.645-.213 1.475 4.468.645.213-1.475zm-17.654 4.179l-19.66-2.837-.212 1.475 19.659 2.837.213-1.475zm16.703 2.411l-6.661-.961-.213 1.475 6.661.961.213-1.475zm.476-3.296l-5.476-.79-.213 1.476 5.476.79.213-1.476zm-16.364-2.361l-5.476-.79-.212 1.475 5.475.79.213-1.475zm-7.832-1.13L89.1 188.335l-.213 1.475 12.166 1.756.213-1.475zm3.94 20.387l-18.909-2.729-.212 1.475 18.908 2.729.213-1.475zm-.201 6.698l-19.659-2.837-.213 1.475 19.659 2.838.213-1.476zm-.52-3.439l-5.087-.734-.213 1.476 5.087.734.213-1.476zm-6.497-.937l-12.166-1.756-.213 1.475 12.166 1.756.213-1.475zm4.598 21.14l-19.66-2.837-.212 1.476 19.659 2.837.213-1.476zm-.952 6.591l-19.658-2.838-.213 1.476 19.658 2.837.213-1.475zm2.942-2.939l-8.55-1.234-.212 1.475 8.549 1.234.213-1.475zm-9.959-1.437l-12.166-1.756-.213 1.475 12.166 1.756.213-1.475z" fill="#ABDDDA"/><path d="M65.057 249.366l-10.313-1.489-.151 1.047 10.313 1.489.151-1.047zm12.703 1.832l-10.314-1.488-.151 1.047 10.313 1.488.151-1.047zm-9.049 1.066l-14.303-2.065-.15 1.048 14.302 2.064.151-1.047z" fill="#ABDDDA"/><path d="M3.552 196.624l15.409-6.518 46.49 27.314-3.73 7.61-49.88-14.09-8.289-14.316z" fill="url(#paint7_linear)"/><path d="M90.165 6.08V3.104L88.808.278c-.339-.377-1.055-.377-1.356.038l-1.168 2.788V6.08c-1.092 0-2.825.829-2.825 1.883 0 1.055.866 1.884 1.959 1.884h.866l-.188 106.579c0 5.689-3.014 10.436-7.347 10.323-3.352-.075-6.253-2.939-6.743-7.573-.113-1.017-.98-1.808-2.072-1.808h-.075c-1.244 0-2.223 1.055-2.072 2.223.828 6.63 6.065 11.34 11.075 11.377 3.88 0 7.083-1.808 8.967-5.048 2.298-4.031 2.185-8.439 2.185-12.847 0-4.181 0-14.052.038-18.234 0-5.84.037-11.679.037-17.518 0-6.668.038-13.337.038-19.967 0-6.63.038-13.3.038-19.93 0-5.764.037-11.566.037-17.33 0-3.39 0-6.743.038-10.134h.603c1.092 0 1.959-.829 1.959-1.884-.076-1.167-1.583-1.996-2.637-1.996z" fill="#292949"/><path d="M53.998 77.772l.791-4.747a111.848 111.848 0 0118.573-45.736l12.056-17.255c-29.235 1.168-54.363 18.46-66.683 43.25a77.335 77.335 0 00-7.46 24.526c6.33-1.884 13.676-2.939 21.513-2.939 7.685.038 14.918 1.055 21.21 2.9zm62.84-9.418l2.034 10.21h.754c6.706-2.185 14.617-3.466 23.169-3.466 8.514 0 16.463 1.319 23.245 3.504-1.319-11.114-5.011-21.55-10.511-30.742-13.601-22.642-38.39-37.862-66.758-37.9-.829 0-1.658 0-2.487.038l9.57 14.052c11.716 14.467 17.103 29.16 20.984 44.304z" fill="#5D66D3"/><path d="M54.79 73.026l-.792 4.747c.076.037.15.037.189.075 8.1-3.579 19.213-5.613 31.457-5.613 12.922.037 24.563 2.335 32.739 6.329h.452l-2.035-10.21c-3.88-15.145-9.267-29.8-21.022-44.304L86.285 9.998c-.302 0-.566.037-.867.037L73.362 27.29A111.85 111.85 0 0054.79 73.026z" fill="#474EBB"/><path d="M53.998 77.773l-.038.15.227-.113c-.038 0-.114-.037-.189-.037z" fill="#fff"/><path d="M64.508 219.379l7.46-3.994 6.291.076-1.431 2.637 8.853 2.223-4.144 5.613-20.156-.98 3.127-5.575zM91.86 118.827l-.83-6.668-6.367-3.353-2.637 1.884.83 8.401 3.767 2.185 5.236-2.449z" fill="#FEE0BD"/><defs><linearGradient id="paint0_linear" x1="17.002" y1="132.955" x2="17.002" y2="211.09" gradientUnits="userSpaceOnUse"><stop stop-color="#FFA395"/><stop offset="1" stop-color="#FF6C96"/></linearGradient><linearGradient id="paint1_linear" x1="66.915" y1="118.739" x2="66.915" y2="252.193" gradientUnits="userSpaceOnUse"><stop stop-color="#FFA395"/><stop offset="1" stop-color="#FF6C96"/></linearGradient><linearGradient id="paint2_linear" x1="39.126" y1="86.596" x2="39.126" y2="120.24" gradientUnits="userSpaceOnUse"><stop stop-color="#5E4E3D"/><stop offset="1" stop-color="#87514C"/></linearGradient><linearGradient id="paint3_linear" x1="15.082" y1="81.45" x2="15.082" y2="135.219" gradientUnits="userSpaceOnUse"><stop stop-color="#5E4E3D"/><stop offset="1" stop-color="#87514C"/></linearGradient><linearGradient id="paint4_linear" x1="66.901" y1="119.769" x2="66.901" y2="251.1" gradientUnits="userSpaceOnUse"><stop stop-color="#FFA395"/><stop offset="1" stop-color="#FF6C96"/></linearGradient><linearGradient id="paint5_linear" x1="75.151" y1="118.714" x2="75.151" y2="163.32" gradientUnits="userSpaceOnUse"><stop stop-color="#FFA395"/><stop offset="1" stop-color="#FF6C96"/></linearGradient><linearGradient id="paint6_linear" x1="94.007" y1="118.488" x2="94.007" y2="164.074" gradientUnits="userSpaceOnUse"><stop stop-color="#FFA096"/><stop offset="1" stop-color="#FF6D96"/></linearGradient><linearGradient id="paint7_linear" x1="34.501" y1="190.106" x2="34.501" y2="225.03" gradientUnits="userSpaceOnUse"><stop stop-color="#FFA096"/><stop offset="1" stop-color="#FF6D96"/></linearGradient></defs></svg>