<svg width="103" height="34" fill="none" xmlns="http://www.w3.org/2000/svg"><g clip-path="url(#clip0)" fill="#C6C5C5"><path d="M26.329 4.109l-9.6 8.068 1.327-9.498h-6.332l1.328 9.498L4.27 4.109l-3.166 6.128 10.417 5.31L.49 20.654l2.86 6.23 9.702-7.864-1.43 8.885h6.537l-1.532-8.783 9.089 8.068 2.86-6.434-10.418-5.005 10.418-4.697-2.247-6.945zm28.391-.101l-9.498 7.966L46.55 2.68l-6.434-.102 1.328 9.396-8.783-7.966-2.554 6.536 10.111 5.004-10.417 5.004 1.94 6.434 9.907-7.965-1.634 8.68h6.536l-1.532-8.68 9.191 8.068 3.064-6.026L46.55 15.65l11.234-5.31-3.064-6.332zm14.808 14.911L65.035 2.782h-8.068l10.315 21.55s-.409 1.327-1.226 2.552c-.613 1.022-5.31.715-5.31.715l.102 4.596s.919.204 3.063.204c4.903 0 6.026-3.983 6.026-3.983L80.763 2.782h-6.23L69.528 18.92zM102.413 2.68h-7.965l-6.843 9.702v-9.6h-5.821l.204 25.124h3.88l.716-9.09 4.596-4.085 2.655 13.175h8.578l-8.374-15.728 8.374-9.498z"/></g><defs><clipPath id="clip0"><path fill="#fff" transform="translate(.388 .127)" d="M0 0h102.127v33.702H0z"/></clipPath></defs></svg>