<svg width="215" height="78" fill="none" xmlns="http://www.w3.org/2000/svg"><g clip-path="url(#clip0)" fill-rule="evenodd" clip-rule="evenodd" fill="#C6C5C5"><path d="M93.951 13.674h4.511c1.644 0 2.472.812 2.472 2.645v6.497h8.837v-6.497c0-1.833.815-2.645 2.669-2.645h4.313v4.27h-1.841l-.21.208v18.285h-4.931v-9.142h-8.837v9.142h-4.931V18.152s0-.209-.21-.209H93.95v-4.27zm35.742-.406l.111.012v4.688l-.111-.025c-3.695 0-6.575 3.052-6.575 6.915 0 4.06 2.88 7.31 6.575 7.31l.111-.025v4.688l-.111.012c-6.575 0-11.914-5.279-11.914-11.985 0-6.509 5.339-11.59 11.914-11.59zm.111.012l2.286.222c5.426 1.058 9.517 5.66 9.517 11.357 0 5.856-4.091 10.643-9.517 11.738l-2.286.234v-4.688l2.509-.542c2.422-1.107 4.165-3.703 4.165-6.742a6.904 6.904 0 00-4.165-6.374l-2.509-.517V13.28zm12.828.394h10.172v4.27h-3.189v4.675h3.189v4.06h-3.189v5.082c0 .21 0 .21.21.21h2.979v4.466h-5.648c-1.644 0-2.46-.812-2.46-2.646V17.943h-2.064v-4.27zm10.172 0h.099c4.523 0 7.192 2.436 7.192 6.103 0 2.227-1.025 3.654-2.051 4.675 1.854.812 3.077 2.843 3.077 5.07 0 4.27-3.287 6.915-8.008 6.915h-.309V31.97h.506c1.644 0 2.682-1.02 2.682-2.645 0-1.624-1.038-2.646-2.682-2.646h-.506v-4.06h.099c1.446 0 2.261-1.021 2.261-2.436 0-1.428-.815-2.24-2.261-2.24h-.099v-4.27zm17.772 0h2.459v6.509c-.198.406-.408 1.009-.408 1.624l-1.644 4.676h2.052v4.257h-3.275l-1.446 3.667c-.408 1.415-1.224 2.03-2.867 2.03h-3.09V31.97h1.026c.42 0 .42 0 .618-.209l6.575-18.087zm2.459 0h2.472l6.575 18.087c.197.21.197.21.605.21h.828v4.466h-2.879c-1.644 0-2.46-.615-2.88-2.24l-1.434-3.457h-3.287v-4.257h2.051l-1.631-4.676c0-.615-.21-1.218-.42-1.624v-6.51zm-79.084 29.26h17.871c1.644 0 2.67.812 2.67 2.645v15.442c0 .197 0 .197.21.197h1.643v4.48h-4.313c-1.854 0-2.669-.813-2.669-2.646v-15.64s0-.209-.21-.209h-8.219v18.494h-4.931V47.203h-2.052v-4.27zm35.334-.406l.099.012v4.688l-.099-.025c-3.708 0-6.575 3.052-6.575 6.916 0 4.06 2.867 7.309 6.575 7.309l.099-.025v4.688l-.099.012c-6.575 0-11.716-5.29-11.716-11.984 0-6.51 5.141-11.591 11.716-11.591zm.099.012l2.36.221c5.525 1.059 9.455 5.66 9.455 11.358 0 5.856-3.93 10.643-9.455 11.738l-2.36.234v-4.688l2.608-.542c2.459-1.107 4.078-3.703 4.078-6.742 0-2.904-1.619-5.34-4.078-6.374l-2.608-.517V42.54zm12.841.394h4.523c1.644 0 2.459.812 2.459 2.645v15.442c0 .197 0 .197.21.197h5.957V42.934h4.931v18.284h5.957c.21 0 .21 0 .21-.197V45.58c0-1.833.816-2.645 2.46-2.645h4.523v4.27h-1.854c-.21 0-.21.209-.21.209v15.639c0 1.833-.815 2.645-2.459 2.645h-21.986c-1.842 0-2.67-.812-2.67-2.645v-15.64s0-.209-.198-.209h-1.853v-4.27zm35.123 0h15.411c1.854 0 2.472.812 2.472 2.436v3.864h-4.523v-1.821c0-.21 0-.21-.21-.21h-2.867v18.494h-4.944V47.203h-2.867c-.21 0-.21 0-.21.21v1.82h-4.524V45.37c0-1.624.618-2.436 2.262-2.436zm24.248 0h2.459v6.509a3.703 3.703 0 00-.408 1.624l-1.643 4.676h2.051V60h-3.287l-1.434 3.458c-.408 1.624-1.236 2.24-2.879 2.24h-3.078v-4.48h1.026c.42 0 .42 0 .618-.197l6.575-18.087zm2.459 0h2.46l6.587 18.087c.198.197.198.197.618.197h.816v4.48h-2.88c-1.644 0-2.459-.616-2.88-2.24L207.343 60h-3.288v-4.257h2.052l-1.644-4.676c0-.615-.198-1.218-.408-1.624v-6.51zM62.288 23.357c.235-.073.544.074.853.48l13.965 13.609c.816.812.816 2.043 0 2.646L63.141 53.909c-.309.407-.618.505-.853.382-.234-.123-.383-.48-.383-.997v-29.05c0-.505.149-.813.383-.887zM38.399.68h.989l.951.394 14.373 14.224c.618.812.408 1.427-.617 1.427h-5.957a1.826 1.826 0 00-1.842 1.834v10.557c0 1.021-.828 1.833-2.064 1.833H33.764a1.837 1.837 0 01-1.853-1.833V18.559a1.83 1.83 0 00-1.854-1.834h-6.365c-1.026 0-1.236-.615-.618-1.427L37.46 1.074l.939-.394zM15.881 23.05c.26.123.42.48.42.997V53.7c0 .517-.16.825-.42.923-.247.099-.605 0-1.025-.307L.68 40.091c-.815-.603-.815-1.834 0-2.646L14.856 23.43c.42-.406.778-.504 1.025-.381zm17.883 23.341h10.468c1.236 0 2.064.813 2.064 1.834v11.172c0 1.218.816 2.03 1.842 2.03h5.549c1.026 0 1.433.603.618 1.219L40.339 76.66c-.42.406-.927.616-1.446.616-.506 0-1.025-.21-1.433-.616L23.494 62.646c-.828-.616-.42-1.219.606-1.219h5.957c1.038 0 1.854-.812 1.854-2.03V48.225c0-1.022.828-1.834 1.853-1.834z"/></g><defs><clipPath id="clip0"><path fill="#fff" transform="translate(.068 .68)" d="M0 0h214.467v76.595H0z"/></clipPath></defs></svg>