<svg width="112" height="112" fill="none" xmlns="http://www.w3.org/2000/svg"><path d="M65.803 100.858h-3.909v-4.73h3.328v-4.126h-3.328v-4.078h3.54v-4.328h-8.82v21.592h9.19v-4.33zM24.682 87.874h1.639v17.314h5.28V83.545h-12.2v21.643h5.281V87.874zm-7.084 12.583h-4.279v-5.235h3.645v-4.53h-3.645v-4.53h3.909v-4.73H7.51v23.756h10.088v-4.731zm55.29-4.33h1.637v9.061h5.282V83.596h-5.282v7.751h-1.637v-7.751h-5.281v21.592h5.28v-9.06zm11.53 9.061H89.7V87.924h3.168v-4.328H81.302v4.328h3.116v17.264zM38.686 83.596h-5.282v21.592h5.282V83.596zm16.432 16.861h-1.215V81.431h-5.809v19.026h-1.796V81.431H40.49v23.757h10.615v2.349h4.014v-7.08zm45.043-8.072a2.802 2.802 0 01-2.796-2.8 2.801 2.801 0 012.796-2.798 2.802 2.802 0 012.799 2.797c0 1.544-1.256 2.8-2.799 2.8zm5.407-5.744c-.135-.645-.398-1.194-.79-1.646-.391-.453-.976-.8-1.753-1.039-.78-.24-1.886-.36-3.321-.36h-5.34v21.592h5.28v-8.709h1.431c1.159 0 2.098-.168 2.818-.505.718-.337 1.212-.822 1.479-1.452.266-.63.399-1.635.399-3.012v-1.879c0-1.349-.067-2.346-.203-2.99z" fill="#C6C5C5"/><path d="M100.555 90.98l-.602-1.163v1.163h-.889v-2.789h.889v1.197l.566-1.197h1.022l-.759 1.377.865 1.412h-1.092zm-.394-3.522a2.13 2.13 0 00-2.126 2.126 2.128 2.128 0 004.254 0 2.13 2.13 0 00-2.128-2.126zm7.662-2.598a.152.152 0 01-.08.06.584.584 0 01-.198.026h-.371v-.35h.423c.094 0 .164.017.203.05.035.032.052.07.052.12a.163.163 0 01-.029.094zm.558 1.04l-.282-.443a1.337 1.337 0 00-.168-.207.547.547 0 00.195-.127.504.504 0 00.137-.358.558.558 0 00-.081-.295.458.458 0 00-.228-.195 1.047 1.047 0 00-.366-.05h-.82v1.822h.406v-.725h.156c.065 0 .091.005.101.007.02.005.044.015.067.03a.4.4 0 01.086.088c.039.049.09.122.151.217l.216.339.027.044h.495l-.092-.147" fill="#C6C5C5"/><path d="M107.519 83.459c-.929 0-1.684.756-1.684 1.685 0 .928.755 1.684 1.684 1.684.928 0 1.684-.756 1.684-1.684 0-.93-.756-1.685-1.684-1.685zm1.341 1.685a1.342 1.342 0 01-2.683 0 1.343 1.343 0 012.683 0zM55.748 72.982c-14.326 0-25.981-11.655-25.981-25.981 0-12.762 9.252-23.397 21.399-25.568v5.687c0 1.527.719 2.931 1.917 3.82v4.777H42.379a3.488 3.488 0 00-3.006 1.69c-.63 1.059-.666 2.38-.1 3.442l13.524 25.816a3.505 3.505 0 003.114 1.88 3.484 3.484 0 003.11-1.88l13.531-25.812a3.534 3.534 0 00-.109-3.462 3.54 3.54 0 00-2.995-1.674H58.74v-4.773a4.745 4.745 0 001.928-3.824v-5.627c11.98 2.307 21.06 12.864 21.06 25.508 0 14.326-11.654 25.98-25.98 25.98zm4.92-57.376v-5.25c0-2.617-2.134-4.744-4.757-4.744a4.75 4.75 0 00-4.745 4.744v5.202C35.807 17.786 23.97 31.034 23.97 47c0 17.522 14.255 31.777 31.778 31.777 17.522 0 31.778-14.255 31.778-31.777 0-15.85-11.664-29.023-26.858-31.395z" fill="#C6C5C5"/></svg>